{
	"asset":{
		"generator":"Khronos glTF Blender I/O v4.3.47",
		"version":"2.0"
	},
	"scene":0,
	"scenes":[
		{
			"name":"Scene",
			"nodes":[
				0,
				1,
				2,
				3,
				4,
				5,
				6,
				7,
				8,
				9,
				10,
				11,
				12,
				13,
				14,
				15,
				16,
				17
			]
		}
	],
	"nodes":[
		{
			"mesh":0,
			"name":"bezeg_veja.003",
			"rotation":[
				0.24237746000289917,
				0.15812546014785767,
				-0.0032644576858729124,
				0.9572036862373352
			],
			"translation":[
				0.052670761942863464,
				0.6848058700561523,
				0.310200035572052
			]
		},
		{
			"mesh":1,
			"name":"bezeg_veja.001",
			"rotation":[
				-0.07244296371936798,
				0.09099742770195007,
				-0.04513311758637428,
				0.9921867251396179
			],
			"translation":[
				0.7405566573143005,
				1.2228620052337646,
				-0.11079039424657822
			]
		},
		{
			"mesh":2,
			"name":"bezeg_veja.002",
			"rotation":[
				-0.05788262188434601,
				0.2529256343841553,
				-0.19999909400939941,
				0.9448167085647583
			],
			"translation":[
				0.4566849172115326,
				1.2995043992996216,
				-0.49184954166412354
			]
		},
		{
			"mesh":3,
			"name":"bezeg_veja.004",
			"rotation":[
				0.037118565291166306,
				0.16775868833065033,
				-0.29434335231781006,
				0.9401283264160156
			],
			"translation":[
				0.31932333111763,
				0.6871199011802673,
				0.10464896261692047
			]
		},
		{
			"mesh":4,
			"name":"bezeg_veja.005",
			"rotation":[
				-0.16803117096424103,
				0.24014921486377716,
				0.0253894180059433,
				0.9557453989982605
			],
			"translation":[
				-0.3860931396484375,
				1.5670174360275269,
				-0.6947164535522461
			]
		},
		{
			"mesh":5,
			"name":"bezeg_veja.006",
			"rotation":[
				0.23342080414295197,
				-0.5038719177246094,
				-0.09327461570501328,
				0.8263943791389465
			],
			"translation":[
				-0.11125589907169342,
				1.3599371910095215,
				0.5578352808952332
			]
		},
		{
			"mesh":6,
			"name":"bezeg_veja.008",
			"rotation":[
				-0.1157703697681427,
				0.05285488814115524,
				-0.051157984882593155,
				0.9905486702919006
			],
			"translation":[
				0.3180980384349823,
				1.7843668460845947,
				-0.5710330605506897
			]
		},
		{
			"mesh":7,
			"name":"bezeg_veja.009",
			"rotation":[
				-0.04364068806171417,
				0.1883614957332611,
				0.2214481085538864,
				0.9558119177818298
			],
			"translation":[
				-0.25423887372016907,
				0.6373538970947266,
				-0.14757239818572998
			]
		},
		{
			"mesh":8,
			"name":"bezeg_veja.010",
			"rotation":[
				0.11727353185415268,
				0.15336747467517853,
				0.12587296962738037,
				0.9730783104896545
			],
			"translation":[
				-0.8125090599060059,
				1.080772876739502,
				-0.022168289870023727
			]
		},
		{
			"mesh":9,
			"name":"bezeg_veja.011",
			"rotation":[
				0.20028500258922577,
				0.9313419461250305,
				-0.29645583033561707,
				0.06783857941627502
			],
			"translation":[
				0.47020766139030457,
				0.8304226398468018,
				-0.5877377986907959
			]
		},
		{
			"mesh":10,
			"name":"bezeg_veja.012",
			"rotation":[
				0,
				0.1933509260416031,
				0,
				0.9811297655105591
			],
			"translation":[
				-0.6037999987602234,
				1.5618337392807007,
				0.038039982318878174
			]
		},
		{
			"mesh":11,
			"name":"bezeg_veja.015",
			"rotation":[
				0.12251872569322586,
				0.30886009335517883,
				0.04002431780099869,
				0.9423336386680603
			],
			"translation":[
				-0.0012400150299072266,
				1.8322373628616333,
				0.15357279777526855
			]
		},
		{
			"mesh":12,
			"name":"bezeg_veja.007",
			"rotation":[
				0.050544947385787964,
				0.348222017288208,
				0.23580428957939148,
				0.9058603644371033
			],
			"translation":[
				-0.4315263628959656,
				1.7457174062728882,
				0.11977517604827881
			]
		},
		{
			"mesh":13,
			"name":"Cylinder",
			"scale":[
				0.12699508666992188,
				1,
				0.12699508666992188
			],
			"translation":[
				-0.005611354485154152,
				0.9040209650993347,
				-0.259273886680603
			]
		},
		{
			"mesh":14,
			"name":"Cylinder.001",
			"rotation":[
				-0.023771224543452263,
				-0.13912087678909302,
				-0.1354677826166153,
				0.9806777238845825
			],
			"scale":[
				0.0765167623758316,
				0.6172180771827698,
				0.0765167623758316
			],
			"translation":[
				0.1797264665365219,
				0.5777167081832886,
				0.1122906357049942
			]
		},
		{
			"mesh":15,
			"name":"Cylinder.002",
			"rotation":[
				0,
				-0.8920337557792664,
				0,
				0.45196881890296936
			],
			"scale":[
				0.07651675492525101,
				0.6172180771827698,
				0.07651675492525101
			],
			"translation":[
				-0.1661870777606964,
				0.6334680318832397,
				-0.22725987434387207
			]
		},
		{
			"mesh":16,
			"name":"bezeg_veja.017",
			"rotation":[
				-0.16803117096424103,
				0.24014921486377716,
				0.0253894180059433,
				0.9557453989982605
			],
			"translation":[
				-0.12438423931598663,
				0.897487998008728,
				-0.6289831399917603
			]
		},
		{
			"mesh":17,
			"name":"Cylinder.003",
			"rotation":[
				-0.06524959206581116,
				0.9901983141899109,
				0.025639554485678673,
				0.12079940736293793
			],
			"scale":[
				0.12699508666992188,
				1,
				0.12699508666992188
			],
			"translation":[
				-0.2579624354839325,
				0.9597065448760986,
				0.09689274430274963
			]
		}
	],
	"materials":[
		{
			"alphaMode":"BLEND",
			"doubleSided":true,
			"name":"bezeg_veja",
			"pbrMetallicRoughness":{
				"baseColorTexture":{
					"index":0
				},
				"metallicFactor":0
			}
		},
		{
			"alphaMode":"BLEND",
			"doubleSided":true,
			"name":"bezeg_cvet",
			"pbrMetallicRoughness":{
				"baseColorTexture":{
					"index":1
				},
				"metallicFactor":0,
				"roughnessFactor":0.5
			}
		},
		{
			"doubleSided":true,
			"name":"Material",
			"pbrMetallicRoughness":{
				"baseColorFactor":[
					0.055519696325063705,
					0.05330545827746391,
					0.04172702133655548,
					1
				],
				"metallicFactor":0
			}
		}
	],
	"meshes":[
		{
			"name":"bezeg_veja.003",
			"primitives":[
				{
					"attributes":{
						"POSITION":0,
						"NORMAL":1,
						"TEXCOORD_0":2
					},
					"indices":3,
					"material":0
				},
				{
					"attributes":{
						"POSITION":4,
						"NORMAL":5,
						"TEXCOORD_0":6
					},
					"indices":7,
					"material":1
				}
			]
		},
		{
			"name":"bezeg_veja.004",
			"primitives":[
				{
					"attributes":{
						"POSITION":8,
						"NORMAL":9,
						"TEXCOORD_0":10
					},
					"indices":3,
					"material":0
				},
				{
					"attributes":{
						"POSITION":11,
						"NORMAL":12,
						"TEXCOORD_0":13
					},
					"indices":7,
					"material":1
				}
			]
		},
		{
			"name":"bezeg_veja.005",
			"primitives":[
				{
					"attributes":{
						"POSITION":14,
						"NORMAL":15,
						"TEXCOORD_0":16
					},
					"indices":3,
					"material":0
				},
				{
					"attributes":{
						"POSITION":17,
						"NORMAL":18,
						"TEXCOORD_0":19
					},
					"indices":7,
					"material":1
				}
			]
		},
		{
			"name":"bezeg_veja.006",
			"primitives":[
				{
					"attributes":{
						"POSITION":20,
						"NORMAL":21,
						"TEXCOORD_0":22
					},
					"indices":3,
					"material":0
				},
				{
					"attributes":{
						"POSITION":23,
						"NORMAL":24,
						"TEXCOORD_0":25
					},
					"indices":7,
					"material":1
				}
			]
		},
		{
			"name":"bezeg_veja.007",
			"primitives":[
				{
					"attributes":{
						"POSITION":26,
						"NORMAL":27,
						"TEXCOORD_0":28
					},
					"indices":3,
					"material":0
				},
				{
					"attributes":{
						"POSITION":29,
						"NORMAL":30,
						"TEXCOORD_0":31
					},
					"indices":7,
					"material":1
				}
			]
		},
		{
			"name":"bezeg_veja.008",
			"primitives":[
				{
					"attributes":{
						"POSITION":32,
						"NORMAL":33,
						"TEXCOORD_0":34
					},
					"indices":3,
					"material":0
				},
				{
					"attributes":{
						"POSITION":35,
						"NORMAL":36,
						"TEXCOORD_0":37
					},
					"indices":7,
					"material":1
				}
			]
		},
		{
			"name":"bezeg_veja.010",
			"primitives":[
				{
					"attributes":{
						"POSITION":38,
						"NORMAL":39,
						"TEXCOORD_0":40
					},
					"indices":3,
					"material":0
				},
				{
					"attributes":{
						"POSITION":41,
						"NORMAL":42,
						"TEXCOORD_0":43
					},
					"indices":7,
					"material":1
				}
			]
		},
		{
			"name":"bezeg_veja.011",
			"primitives":[
				{
					"attributes":{
						"POSITION":44,
						"NORMAL":45,
						"TEXCOORD_0":46
					},
					"indices":3,
					"material":0
				},
				{
					"attributes":{
						"POSITION":47,
						"NORMAL":48,
						"TEXCOORD_0":49
					},
					"indices":7,
					"material":1
				}
			]
		},
		{
			"name":"bezeg_veja.012",
			"primitives":[
				{
					"attributes":{
						"POSITION":50,
						"NORMAL":51,
						"TEXCOORD_0":52
					},
					"indices":3,
					"material":0
				},
				{
					"attributes":{
						"POSITION":53,
						"NORMAL":54,
						"TEXCOORD_0":55
					},
					"indices":7,
					"material":1
				}
			]
		},
		{
			"name":"bezeg_veja.013",
			"primitives":[
				{
					"attributes":{
						"POSITION":56,
						"NORMAL":57,
						"TEXCOORD_0":58
					},
					"indices":3,
					"material":0
				},
				{
					"attributes":{
						"POSITION":59,
						"NORMAL":60,
						"TEXCOORD_0":61
					},
					"indices":7,
					"material":1
				}
			]
		},
		{
			"name":"bezeg_veja.014",
			"primitives":[
				{
					"attributes":{
						"POSITION":62,
						"NORMAL":63,
						"TEXCOORD_0":64
					},
					"indices":3,
					"material":0
				},
				{
					"attributes":{
						"POSITION":65,
						"NORMAL":66,
						"TEXCOORD_0":67
					},
					"indices":7,
					"material":1
				}
			]
		},
		{
			"name":"bezeg_veja.017",
			"primitives":[
				{
					"attributes":{
						"POSITION":68,
						"NORMAL":69,
						"TEXCOORD_0":70
					},
					"indices":3,
					"material":0
				},
				{
					"attributes":{
						"POSITION":71,
						"NORMAL":72,
						"TEXCOORD_0":73
					},
					"indices":7,
					"material":1
				}
			]
		},
		{
			"name":"bezeg_veja.019",
			"primitives":[
				{
					"attributes":{
						"POSITION":74,
						"NORMAL":75,
						"TEXCOORD_0":76
					},
					"indices":3,
					"material":0
				},
				{
					"attributes":{
						"POSITION":77,
						"NORMAL":78,
						"TEXCOORD_0":79
					},
					"indices":7,
					"material":1
				}
			]
		},
		{
			"name":"Cylinder",
			"primitives":[
				{
					"attributes":{
						"POSITION":80,
						"NORMAL":81,
						"TEXCOORD_0":82
					},
					"indices":83,
					"material":2
				}
			]
		},
		{
			"name":"Cylinder.001",
			"primitives":[
				{
					"attributes":{
						"POSITION":84,
						"NORMAL":85,
						"TEXCOORD_0":86
					},
					"indices":87,
					"material":2
				}
			]
		},
		{
			"name":"Cylinder.002",
			"primitives":[
				{
					"attributes":{
						"POSITION":88,
						"NORMAL":89,
						"TEXCOORD_0":90
					},
					"indices":87,
					"material":2
				}
			]
		},
		{
			"name":"bezeg_veja.001",
			"primitives":[
				{
					"attributes":{
						"POSITION":91,
						"NORMAL":92,
						"TEXCOORD_0":93
					},
					"indices":3,
					"material":0
				},
				{
					"attributes":{
						"POSITION":94,
						"NORMAL":95,
						"TEXCOORD_0":96
					},
					"indices":7,
					"material":1
				}
			]
		},
		{
			"name":"Cylinder.003",
			"primitives":[
				{
					"attributes":{
						"POSITION":97,
						"NORMAL":98,
						"TEXCOORD_0":99
					},
					"indices":83,
					"material":2
				}
			]
		}
	],
	"textures":[
		{
			"sampler":0,
			"source":0
		},
		{
			"sampler":0,
			"source":1
		}
	],
	"images":[
		{
			"mimeType":"image/png",
			"name":"bezeg_veja_foto",
			"uri":"bezeg_veja_foto.png"
		},
		{
			"mimeType":"image/png",
			"name":"bezeg_cvet",
			"uri":"bezeg_cvet.png"
		}
	],
	"accessors":[
		{
			"bufferView":0,
			"componentType":5126,
			"count":1216,
			"max":[
				1.0864332914352417,
				0.41267281770706177,
				1.0433828830718994
			],
			"min":[
				-1.040842890739441,
				-0.4865429401397705,
				-1.0708547830581665
			],
			"type":"VEC3"
		},
		{
			"bufferView":1,
			"componentType":5126,
			"count":1216,
			"type":"VEC3"
		},
		{
			"bufferView":2,
			"componentType":5126,
			"count":1216,
			"type":"VEC2"
		},
		{
			"bufferView":3,
			"componentType":5123,
			"count":1824,
			"type":"SCALAR"
		},
		{
			"bufferView":4,
			"componentType":5126,
			"count":37440,
			"max":[
				0.8123819231987,
				0.4405480921268463,
				0.743449330329895
			],
			"min":[
				-0.7790302634239197,
				0.005084365606307983,
				-0.8112671375274658
			],
			"type":"VEC3"
		},
		{
			"bufferView":5,
			"componentType":5126,
			"count":37440,
			"type":"VEC3"
		},
		{
			"bufferView":6,
			"componentType":5126,
			"count":37440,
			"type":"VEC2"
		},
		{
			"bufferView":7,
			"componentType":5123,
			"count":56160,
			"type":"SCALAR"
		},
		{
			"bufferView":8,
			"componentType":5126,
			"count":1216,
			"max":[
				1.0864332914352417,
				0.41267281770706177,
				1.0433828830718994
			],
			"min":[
				-1.040842890739441,
				-0.4865429401397705,
				-1.0708547830581665
			],
			"type":"VEC3"
		},
		{
			"bufferView":9,
			"componentType":5126,
			"count":1216,
			"type":"VEC3"
		},
		{
			"bufferView":10,
			"componentType":5126,
			"count":1216,
			"type":"VEC2"
		},
		{
			"bufferView":11,
			"componentType":5126,
			"count":37440,
			"max":[
				0.8123819231987,
				0.4405480921268463,
				0.743449330329895
			],
			"min":[
				-0.7790302634239197,
				0.005084365606307983,
				-0.8112671375274658
			],
			"type":"VEC3"
		},
		{
			"bufferView":12,
			"componentType":5126,
			"count":37440,
			"type":"VEC3"
		},
		{
			"bufferView":13,
			"componentType":5126,
			"count":37440,
			"type":"VEC2"
		},
		{
			"bufferView":14,
			"componentType":5126,
			"count":1216,
			"max":[
				1.0864332914352417,
				0.41267281770706177,
				1.0433828830718994
			],
			"min":[
				-1.040842890739441,
				-0.4865429401397705,
				-1.0708547830581665
			],
			"type":"VEC3"
		},
		{
			"bufferView":15,
			"componentType":5126,
			"count":1216,
			"type":"VEC3"
		},
		{
			"bufferView":16,
			"componentType":5126,
			"count":1216,
			"type":"VEC2"
		},
		{
			"bufferView":17,
			"componentType":5126,
			"count":37440,
			"max":[
				0.8123819231987,
				0.4405480921268463,
				0.743449330329895
			],
			"min":[
				-0.7790302634239197,
				0.005084365606307983,
				-0.8112671375274658
			],
			"type":"VEC3"
		},
		{
			"bufferView":18,
			"componentType":5126,
			"count":37440,
			"type":"VEC3"
		},
		{
			"bufferView":19,
			"componentType":5126,
			"count":37440,
			"type":"VEC2"
		},
		{
			"bufferView":20,
			"componentType":5126,
			"count":1216,
			"max":[
				1.0864332914352417,
				0.41267281770706177,
				1.0433828830718994
			],
			"min":[
				-1.040842890739441,
				-0.4865429401397705,
				-1.0708547830581665
			],
			"type":"VEC3"
		},
		{
			"bufferView":21,
			"componentType":5126,
			"count":1216,
			"type":"VEC3"
		},
		{
			"bufferView":22,
			"componentType":5126,
			"count":1216,
			"type":"VEC2"
		},
		{
			"bufferView":23,
			"componentType":5126,
			"count":37440,
			"max":[
				0.8123819231987,
				0.4405480921268463,
				0.743449330329895
			],
			"min":[
				-0.7790302634239197,
				0.005084365606307983,
				-0.8112671375274658
			],
			"type":"VEC3"
		},
		{
			"bufferView":24,
			"componentType":5126,
			"count":37440,
			"type":"VEC3"
		},
		{
			"bufferView":25,
			"componentType":5126,
			"count":37440,
			"type":"VEC2"
		},
		{
			"bufferView":26,
			"componentType":5126,
			"count":1216,
			"max":[
				1.0864332914352417,
				0.41267281770706177,
				1.0433828830718994
			],
			"min":[
				-1.040842890739441,
				-0.4865429401397705,
				-1.0708547830581665
			],
			"type":"VEC3"
		},
		{
			"bufferView":27,
			"componentType":5126,
			"count":1216,
			"type":"VEC3"
		},
		{
			"bufferView":28,
			"componentType":5126,
			"count":1216,
			"type":"VEC2"
		},
		{
			"bufferView":29,
			"componentType":5126,
			"count":37440,
			"max":[
				0.8123819231987,
				0.4405480921268463,
				0.743449330329895
			],
			"min":[
				-0.7790302634239197,
				0.005084365606307983,
				-0.8112671375274658
			],
			"type":"VEC3"
		},
		{
			"bufferView":30,
			"componentType":5126,
			"count":37440,
			"type":"VEC3"
		},
		{
			"bufferView":31,
			"componentType":5126,
			"count":37440,
			"type":"VEC2"
		},
		{
			"bufferView":32,
			"componentType":5126,
			"count":1216,
			"max":[
				1.0864332914352417,
				0.41267281770706177,
				1.0433828830718994
			],
			"min":[
				-1.040842890739441,
				-0.4865429401397705,
				-1.0708547830581665
			],
			"type":"VEC3"
		},
		{
			"bufferView":33,
			"componentType":5126,
			"count":1216,
			"type":"VEC3"
		},
		{
			"bufferView":34,
			"componentType":5126,
			"count":1216,
			"type":"VEC2"
		},
		{
			"bufferView":35,
			"componentType":5126,
			"count":37440,
			"max":[
				0.8123819231987,
				0.4405480921268463,
				0.743449330329895
			],
			"min":[
				-0.7790302634239197,
				0.005084365606307983,
				-0.8112671375274658
			],
			"type":"VEC3"
		},
		{
			"bufferView":36,
			"componentType":5126,
			"count":37440,
			"type":"VEC3"
		},
		{
			"bufferView":37,
			"componentType":5126,
			"count":37440,
			"type":"VEC2"
		},
		{
			"bufferView":38,
			"componentType":5126,
			"count":1216,
			"max":[
				1.0864332914352417,
				0.41267281770706177,
				1.0433828830718994
			],
			"min":[
				-1.040842890739441,
				-0.4865429401397705,
				-1.0708547830581665
			],
			"type":"VEC3"
		},
		{
			"bufferView":39,
			"componentType":5126,
			"count":1216,
			"type":"VEC3"
		},
		{
			"bufferView":40,
			"componentType":5126,
			"count":1216,
			"type":"VEC2"
		},
		{
			"bufferView":41,
			"componentType":5126,
			"count":37440,
			"max":[
				0.8123819231987,
				0.4405480921268463,
				0.743449330329895
			],
			"min":[
				-0.7790302634239197,
				0.005084365606307983,
				-0.8112671375274658
			],
			"type":"VEC3"
		},
		{
			"bufferView":42,
			"componentType":5126,
			"count":37440,
			"type":"VEC3"
		},
		{
			"bufferView":43,
			"componentType":5126,
			"count":37440,
			"type":"VEC2"
		},
		{
			"bufferView":44,
			"componentType":5126,
			"count":1216,
			"max":[
				1.0864332914352417,
				0.41267281770706177,
				1.0433828830718994
			],
			"min":[
				-1.040842890739441,
				-0.4865429401397705,
				-1.0708547830581665
			],
			"type":"VEC3"
		},
		{
			"bufferView":45,
			"componentType":5126,
			"count":1216,
			"type":"VEC3"
		},
		{
			"bufferView":46,
			"componentType":5126,
			"count":1216,
			"type":"VEC2"
		},
		{
			"bufferView":47,
			"componentType":5126,
			"count":37440,
			"max":[
				0.8123819231987,
				0.4405480921268463,
				0.743449330329895
			],
			"min":[
				-0.7790302634239197,
				0.005084365606307983,
				-0.8112671375274658
			],
			"type":"VEC3"
		},
		{
			"bufferView":48,
			"componentType":5126,
			"count":37440,
			"type":"VEC3"
		},
		{
			"bufferView":49,
			"componentType":5126,
			"count":37440,
			"type":"VEC2"
		},
		{
			"bufferView":50,
			"componentType":5126,
			"count":1216,
			"max":[
				1.0864332914352417,
				0.41267281770706177,
				1.0433828830718994
			],
			"min":[
				-1.040842890739441,
				-0.4865429401397705,
				-1.0708547830581665
			],
			"type":"VEC3"
		},
		{
			"bufferView":51,
			"componentType":5126,
			"count":1216,
			"type":"VEC3"
		},
		{
			"bufferView":52,
			"componentType":5126,
			"count":1216,
			"type":"VEC2"
		},
		{
			"bufferView":53,
			"componentType":5126,
			"count":37440,
			"max":[
				0.8123819231987,
				0.4405480921268463,
				0.743449330329895
			],
			"min":[
				-0.7790302634239197,
				0.005084365606307983,
				-0.8112671375274658
			],
			"type":"VEC3"
		},
		{
			"bufferView":54,
			"componentType":5126,
			"count":37440,
			"type":"VEC3"
		},
		{
			"bufferView":55,
			"componentType":5126,
			"count":37440,
			"type":"VEC2"
		},
		{
			"bufferView":56,
			"componentType":5126,
			"count":1216,
			"max":[
				1.0864332914352417,
				0.41267281770706177,
				1.0433828830718994
			],
			"min":[
				-1.040842890739441,
				-0.4865429401397705,
				-1.0708547830581665
			],
			"type":"VEC3"
		},
		{
			"bufferView":57,
			"componentType":5126,
			"count":1216,
			"type":"VEC3"
		},
		{
			"bufferView":58,
			"componentType":5126,
			"count":1216,
			"type":"VEC2"
		},
		{
			"bufferView":59,
			"componentType":5126,
			"count":37440,
			"max":[
				0.8123819231987,
				0.4405480921268463,
				0.743449330329895
			],
			"min":[
				-0.7790302634239197,
				0.005084365606307983,
				-0.8112671375274658
			],
			"type":"VEC3"
		},
		{
			"bufferView":60,
			"componentType":5126,
			"count":37440,
			"type":"VEC3"
		},
		{
			"bufferView":61,
			"componentType":5126,
			"count":37440,
			"type":"VEC2"
		},
		{
			"bufferView":62,
			"componentType":5126,
			"count":1216,
			"max":[
				1.0864332914352417,
				0.41267281770706177,
				1.0433828830718994
			],
			"min":[
				-1.040842890739441,
				-0.4865429401397705,
				-1.0708547830581665
			],
			"type":"VEC3"
		},
		{
			"bufferView":63,
			"componentType":5126,
			"count":1216,
			"type":"VEC3"
		},
		{
			"bufferView":64,
			"componentType":5126,
			"count":1216,
			"type":"VEC2"
		},
		{
			"bufferView":65,
			"componentType":5126,
			"count":37440,
			"max":[
				0.8123819231987,
				0.4405480921268463,
				0.743449330329895
			],
			"min":[
				-0.7790302634239197,
				0.005084365606307983,
				-0.8112671375274658
			],
			"type":"VEC3"
		},
		{
			"bufferView":66,
			"componentType":5126,
			"count":37440,
			"type":"VEC3"
		},
		{
			"bufferView":67,
			"componentType":5126,
			"count":37440,
			"type":"VEC2"
		},
		{
			"bufferView":68,
			"componentType":5126,
			"count":1216,
			"max":[
				1.0864332914352417,
				0.41267281770706177,
				1.0433828830718994
			],
			"min":[
				-1.040842890739441,
				-0.4865429401397705,
				-1.0708547830581665
			],
			"type":"VEC3"
		},
		{
			"bufferView":69,
			"componentType":5126,
			"count":1216,
			"type":"VEC3"
		},
		{
			"bufferView":70,
			"componentType":5126,
			"count":1216,
			"type":"VEC2"
		},
		{
			"bufferView":71,
			"componentType":5126,
			"count":37440,
			"max":[
				0.8123819231987,
				0.4405480921268463,
				0.743449330329895
			],
			"min":[
				-0.7790302634239197,
				0.005084365606307983,
				-0.8112671375274658
			],
			"type":"VEC3"
		},
		{
			"bufferView":72,
			"componentType":5126,
			"count":37440,
			"type":"VEC3"
		},
		{
			"bufferView":73,
			"componentType":5126,
			"count":37440,
			"type":"VEC2"
		},
		{
			"bufferView":74,
			"componentType":5126,
			"count":1216,
			"max":[
				1.0864332914352417,
				0.41267281770706177,
				1.0433828830718994
			],
			"min":[
				-1.040842890739441,
				-0.4865429401397705,
				-1.0708547830581665
			],
			"type":"VEC3"
		},
		{
			"bufferView":75,
			"componentType":5126,
			"count":1216,
			"type":"VEC3"
		},
		{
			"bufferView":76,
			"componentType":5126,
			"count":1216,
			"type":"VEC2"
		},
		{
			"bufferView":77,
			"componentType":5126,
			"count":37440,
			"max":[
				0.8123819231987,
				0.4405480921268463,
				0.743449330329895
			],
			"min":[
				-0.7790302634239197,
				0.005084365606307983,
				-0.8112671375274658
			],
			"type":"VEC3"
		},
		{
			"bufferView":78,
			"componentType":5126,
			"count":37440,
			"type":"VEC3"
		},
		{
			"bufferView":79,
			"componentType":5126,
			"count":37440,
			"type":"VEC2"
		},
		{
			"bufferView":80,
			"componentType":5126,
			"count":40,
			"max":[
				0.3428780734539032,
				0.47333189845085144,
				0.8993051052093506
			],
			"min":[
				-0.29201725125312805,
				-0.9623476266860962,
				-0.4257623255252838
			],
			"type":"VEC3"
		},
		{
			"bufferView":81,
			"componentType":5126,
			"count":40,
			"type":"VEC3"
		},
		{
			"bufferView":82,
			"componentType":5126,
			"count":40,
			"type":"VEC2"
		},
		{
			"bufferView":83,
			"componentType":5123,
			"count":132,
			"type":"SCALAR"
		},
		{
			"bufferView":84,
			"componentType":5126,
			"count":33,
			"max":[
				0.6974310278892517,
				1.819605827331543,
				1.2169573307037354
			],
			"min":[
				-0.6974310278892517,
				-1.0075889825820923,
				-2.4581496715545654
			],
			"type":"VEC3"
		},
		{
			"bufferView":85,
			"componentType":5126,
			"count":33,
			"type":"VEC3"
		},
		{
			"bufferView":86,
			"componentType":5126,
			"count":33,
			"type":"VEC2"
		},
		{
			"bufferView":87,
			"componentType":5123,
			"count":96,
			"type":"SCALAR"
		},
		{
			"bufferView":88,
			"componentType":5126,
			"count":33,
			"max":[
				0.6974310278892517,
				1.819605827331543,
				1.2169573307037354
			],
			"min":[
				-0.6974310278892517,
				-1.0075889825820923,
				-2.4581496715545654
			],
			"type":"VEC3"
		},
		{
			"bufferView":89,
			"componentType":5126,
			"count":33,
			"type":"VEC3"
		},
		{
			"bufferView":90,
			"componentType":5126,
			"count":33,
			"type":"VEC2"
		},
		{
			"bufferView":91,
			"componentType":5126,
			"count":1216,
			"max":[
				1.0864332914352417,
				0.41267281770706177,
				1.0433828830718994
			],
			"min":[
				-1.040842890739441,
				-0.4865429401397705,
				-1.0708547830581665
			],
			"type":"VEC3"
		},
		{
			"bufferView":92,
			"componentType":5126,
			"count":1216,
			"type":"VEC3"
		},
		{
			"bufferView":93,
			"componentType":5126,
			"count":1216,
			"type":"VEC2"
		},
		{
			"bufferView":94,
			"componentType":5126,
			"count":37440,
			"max":[
				0.8123819231987,
				0.4405480921268463,
				0.743449330329895
			],
			"min":[
				-0.7790302634239197,
				0.005084365606307983,
				-0.8112671375274658
			],
			"type":"VEC3"
		},
		{
			"bufferView":95,
			"componentType":5126,
			"count":37440,
			"type":"VEC3"
		},
		{
			"bufferView":96,
			"componentType":5126,
			"count":37440,
			"type":"VEC2"
		},
		{
			"bufferView":97,
			"componentType":5126,
			"count":40,
			"max":[
				0.3428780734539032,
				0.47333189845085144,
				0.8993051052093506
			],
			"min":[
				-0.29201725125312805,
				-0.9623476266860962,
				-0.4257623255252838
			],
			"type":"VEC3"
		},
		{
			"bufferView":98,
			"componentType":5126,
			"count":40,
			"type":"VEC3"
		},
		{
			"bufferView":99,
			"componentType":5126,
			"count":40,
			"type":"VEC2"
		}
	],
	"bufferViews":[
		{
			"buffer":0,
			"byteLength":14592,
			"byteOffset":0,
			"target":34962
		},
		{
			"buffer":0,
			"byteLength":14592,
			"byteOffset":14592,
			"target":34962
		},
		{
			"buffer":0,
			"byteLength":9728,
			"byteOffset":29184,
			"target":34962
		},
		{
			"buffer":0,
			"byteLength":3648,
			"byteOffset":38912,
			"target":34963
		},
		{
			"buffer":0,
			"byteLength":449280,
			"byteOffset":42560,
			"target":34962
		},
		{
			"buffer":0,
			"byteLength":449280,
			"byteOffset":491840,
			"target":34962
		},
		{
			"buffer":0,
			"byteLength":299520,
			"byteOffset":941120,
			"target":34962
		},
		{
			"buffer":0,
			"byteLength":112320,
			"byteOffset":1240640,
			"target":34963
		},
		{
			"buffer":0,
			"byteLength":14592,
			"byteOffset":1352960,
			"target":34962
		},
		{
			"buffer":0,
			"byteLength":14592,
			"byteOffset":1367552,
			"target":34962
		},
		{
			"buffer":0,
			"byteLength":9728,
			"byteOffset":1382144,
			"target":34962
		},
		{
			"buffer":0,
			"byteLength":449280,
			"byteOffset":1391872,
			"target":34962
		},
		{
			"buffer":0,
			"byteLength":449280,
			"byteOffset":1841152,
			"target":34962
		},
		{
			"buffer":0,
			"byteLength":299520,
			"byteOffset":2290432,
			"target":34962
		},
		{
			"buffer":0,
			"byteLength":14592,
			"byteOffset":2589952,
			"target":34962
		},
		{
			"buffer":0,
			"byteLength":14592,
			"byteOffset":2604544,
			"target":34962
		},
		{
			"buffer":0,
			"byteLength":9728,
			"byteOffset":2619136,
			"target":34962
		},
		{
			"buffer":0,
			"byteLength":449280,
			"byteOffset":2628864,
			"target":34962
		},
		{
			"buffer":0,
			"byteLength":449280,
			"byteOffset":3078144,
			"target":34962
		},
		{
			"buffer":0,
			"byteLength":299520,
			"byteOffset":3527424,
			"target":34962
		},
		{
			"buffer":0,
			"byteLength":14592,
			"byteOffset":3826944,
			"target":34962
		},
		{
			"buffer":0,
			"byteLength":14592,
			"byteOffset":3841536,
			"target":34962
		},
		{
			"buffer":0,
			"byteLength":9728,
			"byteOffset":3856128,
			"target":34962
		},
		{
			"buffer":0,
			"byteLength":449280,
			"byteOffset":3865856,
			"target":34962
		},
		{
			"buffer":0,
			"byteLength":449280,
			"byteOffset":4315136,
			"target":34962
		},
		{
			"buffer":0,
			"byteLength":299520,
			"byteOffset":4764416,
			"target":34962
		},
		{
			"buffer":0,
			"byteLength":14592,
			"byteOffset":5063936,
			"target":34962
		},
		{
			"buffer":0,
			"byteLength":14592,
			"byteOffset":5078528,
			"target":34962
		},
		{
			"buffer":0,
			"byteLength":9728,
			"byteOffset":5093120,
			"target":34962
		},
		{
			"buffer":0,
			"byteLength":449280,
			"byteOffset":5102848,
			"target":34962
		},
		{
			"buffer":0,
			"byteLength":449280,
			"byteOffset":5552128,
			"target":34962
		},
		{
			"buffer":0,
			"byteLength":299520,
			"byteOffset":6001408,
			"target":34962
		},
		{
			"buffer":0,
			"byteLength":14592,
			"byteOffset":6300928,
			"target":34962
		},
		{
			"buffer":0,
			"byteLength":14592,
			"byteOffset":6315520,
			"target":34962
		},
		{
			"buffer":0,
			"byteLength":9728,
			"byteOffset":6330112,
			"target":34962
		},
		{
			"buffer":0,
			"byteLength":449280,
			"byteOffset":6339840,
			"target":34962
		},
		{
			"buffer":0,
			"byteLength":449280,
			"byteOffset":6789120,
			"target":34962
		},
		{
			"buffer":0,
			"byteLength":299520,
			"byteOffset":7238400,
			"target":34962
		},
		{
			"buffer":0,
			"byteLength":14592,
			"byteOffset":7537920,
			"target":34962
		},
		{
			"buffer":0,
			"byteLength":14592,
			"byteOffset":7552512,
			"target":34962
		},
		{
			"buffer":0,
			"byteLength":9728,
			"byteOffset":7567104,
			"target":34962
		},
		{
			"buffer":0,
			"byteLength":449280,
			"byteOffset":7576832,
			"target":34962
		},
		{
			"buffer":0,
			"byteLength":449280,
			"byteOffset":8026112,
			"target":34962
		},
		{
			"buffer":0,
			"byteLength":299520,
			"byteOffset":8475392,
			"target":34962
		},
		{
			"buffer":0,
			"byteLength":14592,
			"byteOffset":8774912,
			"target":34962
		},
		{
			"buffer":0,
			"byteLength":14592,
			"byteOffset":8789504,
			"target":34962
		},
		{
			"buffer":0,
			"byteLength":9728,
			"byteOffset":8804096,
			"target":34962
		},
		{
			"buffer":0,
			"byteLength":449280,
			"byteOffset":8813824,
			"target":34962
		},
		{
			"buffer":0,
			"byteLength":449280,
			"byteOffset":9263104,
			"target":34962
		},
		{
			"buffer":0,
			"byteLength":299520,
			"byteOffset":9712384,
			"target":34962
		},
		{
			"buffer":0,
			"byteLength":14592,
			"byteOffset":10011904,
			"target":34962
		},
		{
			"buffer":0,
			"byteLength":14592,
			"byteOffset":10026496,
			"target":34962
		},
		{
			"buffer":0,
			"byteLength":9728,
			"byteOffset":10041088,
			"target":34962
		},
		{
			"buffer":0,
			"byteLength":449280,
			"byteOffset":10050816,
			"target":34962
		},
		{
			"buffer":0,
			"byteLength":449280,
			"byteOffset":10500096,
			"target":34962
		},
		{
			"buffer":0,
			"byteLength":299520,
			"byteOffset":10949376,
			"target":34962
		},
		{
			"buffer":0,
			"byteLength":14592,
			"byteOffset":11248896,
			"target":34962
		},
		{
			"buffer":0,
			"byteLength":14592,
			"byteOffset":11263488,
			"target":34962
		},
		{
			"buffer":0,
			"byteLength":9728,
			"byteOffset":11278080,
			"target":34962
		},
		{
			"buffer":0,
			"byteLength":449280,
			"byteOffset":11287808,
			"target":34962
		},
		{
			"buffer":0,
			"byteLength":449280,
			"byteOffset":11737088,
			"target":34962
		},
		{
			"buffer":0,
			"byteLength":299520,
			"byteOffset":12186368,
			"target":34962
		},
		{
			"buffer":0,
			"byteLength":14592,
			"byteOffset":12485888,
			"target":34962
		},
		{
			"buffer":0,
			"byteLength":14592,
			"byteOffset":12500480,
			"target":34962
		},
		{
			"buffer":0,
			"byteLength":9728,
			"byteOffset":12515072,
			"target":34962
		},
		{
			"buffer":0,
			"byteLength":449280,
			"byteOffset":12524800,
			"target":34962
		},
		{
			"buffer":0,
			"byteLength":449280,
			"byteOffset":12974080,
			"target":34962
		},
		{
			"buffer":0,
			"byteLength":299520,
			"byteOffset":13423360,
			"target":34962
		},
		{
			"buffer":0,
			"byteLength":14592,
			"byteOffset":13722880,
			"target":34962
		},
		{
			"buffer":0,
			"byteLength":14592,
			"byteOffset":13737472,
			"target":34962
		},
		{
			"buffer":0,
			"byteLength":9728,
			"byteOffset":13752064,
			"target":34962
		},
		{
			"buffer":0,
			"byteLength":449280,
			"byteOffset":13761792,
			"target":34962
		},
		{
			"buffer":0,
			"byteLength":449280,
			"byteOffset":14211072,
			"target":34962
		},
		{
			"buffer":0,
			"byteLength":299520,
			"byteOffset":14660352,
			"target":34962
		},
		{
			"buffer":0,
			"byteLength":14592,
			"byteOffset":14959872,
			"target":34962
		},
		{
			"buffer":0,
			"byteLength":14592,
			"byteOffset":14974464,
			"target":34962
		},
		{
			"buffer":0,
			"byteLength":9728,
			"byteOffset":14989056,
			"target":34962
		},
		{
			"buffer":0,
			"byteLength":449280,
			"byteOffset":14998784,
			"target":34962
		},
		{
			"buffer":0,
			"byteLength":449280,
			"byteOffset":15448064,
			"target":34962
		},
		{
			"buffer":0,
			"byteLength":299520,
			"byteOffset":15897344,
			"target":34962
		},
		{
			"buffer":0,
			"byteLength":480,
			"byteOffset":16196864,
			"target":34962
		},
		{
			"buffer":0,
			"byteLength":480,
			"byteOffset":16197344,
			"target":34962
		},
		{
			"buffer":0,
			"byteLength":320,
			"byteOffset":16197824,
			"target":34962
		},
		{
			"buffer":0,
			"byteLength":264,
			"byteOffset":16198144,
			"target":34963
		},
		{
			"buffer":0,
			"byteLength":396,
			"byteOffset":16198408,
			"target":34962
		},
		{
			"buffer":0,
			"byteLength":396,
			"byteOffset":16198804,
			"target":34962
		},
		{
			"buffer":0,
			"byteLength":264,
			"byteOffset":16199200,
			"target":34962
		},
		{
			"buffer":0,
			"byteLength":192,
			"byteOffset":16199464,
			"target":34963
		},
		{
			"buffer":0,
			"byteLength":396,
			"byteOffset":16199656,
			"target":34962
		},
		{
			"buffer":0,
			"byteLength":396,
			"byteOffset":16200052,
			"target":34962
		},
		{
			"buffer":0,
			"byteLength":264,
			"byteOffset":16200448,
			"target":34962
		},
		{
			"buffer":0,
			"byteLength":14592,
			"byteOffset":16200712,
			"target":34962
		},
		{
			"buffer":0,
			"byteLength":14592,
			"byteOffset":16215304,
			"target":34962
		},
		{
			"buffer":0,
			"byteLength":9728,
			"byteOffset":16229896,
			"target":34962
		},
		{
			"buffer":0,
			"byteLength":449280,
			"byteOffset":16239624,
			"target":34962
		},
		{
			"buffer":0,
			"byteLength":449280,
			"byteOffset":16688904,
			"target":34962
		},
		{
			"buffer":0,
			"byteLength":299520,
			"byteOffset":17138184,
			"target":34962
		},
		{
			"buffer":0,
			"byteLength":480,
			"byteOffset":17437704,
			"target":34962
		},
		{
			"buffer":0,
			"byteLength":480,
			"byteOffset":17438184,
			"target":34962
		},
		{
			"buffer":0,
			"byteLength":320,
			"byteOffset":17438664,
			"target":34962
		}
	],
	"samplers":[
		{
			"magFilter":9729,
			"minFilter":9987,
			"wrapS":33071,
			"wrapT":33071
		}
	],
	"buffers":[
		{
			"byteLength":17438984,
			"uri":"bezeg_veja_png.bin"
		}
	]
}
