{
	"asset":{
		"generator":"Khronos glTF Blender I/O v4.3.47",
		"version":"2.0"
	},
	"scene":0,
	"scenes":[
		{
			"name":"Scene",
			"nodes":[
				0,
				1,
				2,
				3,
				4,
				5,
				6,
				7,
				8,
				9,
				10,
				11,
				12,
				13,
				14,
				15,
				16,
				17,
				18,
				19,
				20,
				21,
				22,
				23,
				24,
				25,
				26,
				27,
				28,
				29,
				30,
				31,
				32,
				33,
				34,
				35,
				36,
				37,
				38,
				39,
				40,
				41,
				42,
				43,
				44,
				45,
				46,
				47,
				48,
				49,
				50,
				51,
				52,
				53,
				54,
				55,
				56,
				57,
				58,
				59,
				60,
				61,
				62,
				63,
				64
			]
		}
	],
	"nodes":[
		{
			"mesh":0,
			"name":"Cube.001",
			"rotation":[
				0.3032795488834381,
				0.6387656927108765,
				-0.6387656331062317,
				0.3032795488834381
			],
			"scale":[
				1.7930713891983032,
				1.7930713891983032,
				1.7930713891983032
			],
			"translation":[
				0.046860698610544205,
				0,
				-1.3981045484542847
			]
		},
		{
			"mesh":0,
			"name":"Cube.003",
			"rotation":[
				0.5111942887306213,
				0.4885493814945221,
				-0.48854929208755493,
				0.5111943483352661
			],
			"scale":[
				1.6548657417297363,
				1.6548658609390259,
				1.6548657417297363
			],
			"translation":[
				-0.007199514657258987,
				0,
				-1.2609747648239136
			]
		},
		{
			"mesh":0,
			"name":"Cube.004",
			"rotation":[
				0.7054572701454163,
				-0.04827223718166351,
				0.04827229306101799,
				0.7054571509361267
			],
			"scale":[
				1.844254970550537,
				1.8442553281784058,
				1.8442550897598267
			],
			"translation":[
				-0.1822309046983719,
				0,
				-0.09331328421831131
			]
		},
		{
			"mesh":0,
			"name":"Cube.005",
			"rotation":[
				0.30739927291870117,
				0.636793315410614,
				-0.636793315410614,
				0.3073992431163788
			],
			"scale":[
				1.7009042501449585,
				1.7009046077728271,
				1.700904369354248
			],
			"translation":[
				0.8098269104957581,
				0,
				0.24957525730133057
			]
		},
		{
			"mesh":0,
			"name":"Cube.006",
			"rotation":[
				0.5732702016830444,
				-0.4139581620693207,
				0.4139581024646759,
				0.5732702612876892
			],
			"scale":[
				1.8255064487457275,
				1.8255066871643066,
				1.825506567955017
			],
			"translation":[
				-0.6716253757476807,
				0,
				0.04679986461997032
			]
		},
		{
			"mesh":0,
			"name":"Cube.007",
			"rotation":[
				0.19792024791240692,
				0.6788428425788879,
				-0.6788428425788879,
				0.19792021811008453
			],
			"scale":[
				1.8546749353408813,
				1.8546751737594604,
				1.854675054550171
			],
			"translation":[
				-0.16146178543567657,
				0,
				0.4083843529224396
			]
		},
		{
			"mesh":0,
			"name":"Cube.009",
			"rotation":[
				0.20396900177001953,
				0.677049994468689,
				-0.677049994468689,
				0.20396895706653595
			],
			"scale":[
				1.7189605236053467,
				1.7189605236053467,
				1.7189604043960571
			],
			"translation":[
				0.4831327795982361,
				0,
				-0.5177419185638428
			]
		},
		{
			"mesh":0,
			"name":"Cube.010",
			"rotation":[
				0.44769927859306335,
				-0.5473256707191467,
				0.5473257303237915,
				0.4476991891860962
			],
			"scale":[
				1.7250069379806519,
				1.725007176399231,
				1.7250069379806519
			],
			"translation":[
				0.3868791460990906,
				0,
				-0.6823223829269409
			]
		},
		{
			"mesh":0,
			"name":"Cube.011",
			"rotation":[
				0.20094360411167145,
				-0.6779541373252869,
				0.6779540181159973,
				0.20094363391399384
			],
			"scale":[
				1.8107165098190308,
				1.8107166290283203,
				1.8107165098190308
			],
			"translation":[
				0.8311428427696228,
				0,
				-0.6077057123184204
			]
		},
		{
			"mesh":0,
			"name":"Cube.012",
			"rotation":[
				0.5756672620773315,
				0.4106181263923645,
				-0.41061800718307495,
				0.5756673216819763
			],
			"scale":[
				1.8546353578567505,
				1.85463547706604,
				1.85463547706604
			],
			"translation":[
				0.7864850759506226,
				0,
				-0.28578388690948486
			]
		},
		{
			"mesh":0,
			"name":"Cube.013",
			"rotation":[
				0.4840628206729889,
				0.5154447555541992,
				-0.5154447555541992,
				0.48406270146369934
			],
			"scale":[
				1.662065863609314,
				1.662065863609314,
				1.6620657444000244
			],
			"translation":[
				0.6292904019355774,
				0,
				-0.3729665279388428
			]
		},
		{
			"mesh":0,
			"name":"Cube.014",
			"rotation":[
				0.6214348077774048,
				-0.3373705744743347,
				0.3373706638813019,
				0.6214346289634705
			],
			"scale":[
				1.7694745063781738,
				1.7694745063781738,
				1.7694745063781738
			],
			"translation":[
				1.012878656387329,
				0,
				-0.3860863447189331
			]
		},
		{
			"mesh":0,
			"name":"Cube.015",
			"rotation":[
				0.31552988290786743,
				-0.6328040361404419,
				0.6328039169311523,
				0.3155299723148346
			],
			"scale":[
				1.7942432165145874,
				1.794243574142456,
				1.794243335723877
			],
			"translation":[
				0.9100261330604553,
				0,
				-0.2511988580226898
			]
		},
		{
			"mesh":0,
			"name":"Cube.017",
			"rotation":[
				0.11806026846170425,
				0.6971813440322876,
				-0.697181224822998,
				0.11806026101112366
			],
			"scale":[
				1.6387207508087158,
				1.6387208700180054,
				1.6387206315994263
			],
			"translation":[
				0.2830773890018463,
				0,
				-0.44447386264801025
			]
		},
		{
			"mesh":0,
			"name":"Cube.018",
			"rotation":[
				0.7070488929748535,
				0.009051219560205936,
				-0.009051197208464146,
				0.7070488333702087
			],
			"scale":[
				1.7879585027694702,
				1.7879586219787598,
				1.7879586219787598
			],
			"translation":[
				0.20569224655628204,
				0,
				-0.2534273564815521
			]
		},
		{
			"mesh":0,
			"name":"Cube.019",
			"rotation":[
				0.35501721501350403,
				0.6115249991416931,
				-0.6115249991416931,
				0.35501721501350403
			],
			"scale":[
				1.8316230773925781,
				1.8316230773925781,
				1.8316229581832886
			],
			"translation":[
				-1.020882487297058,
				0,
				-0.2958018481731415
			]
		},
		{
			"mesh":0,
			"name":"Cube.020",
			"rotation":[
				0.10391706973314285,
				0.6994293332099915,
				-0.6994292140007019,
				0.10391703993082047
			],
			"scale":[
				1.6861021518707275,
				1.6861021518707275,
				1.686102032661438
			],
			"translation":[
				0.32050979137420654,
				0,
				-1.3344379663467407
			]
		},
		{
			"mesh":0,
			"name":"Cube.021",
			"rotation":[
				0.2755504250526428,
				0.6512080430984497,
				-0.6512081623077393,
				0.27555036544799805
			],
			"scale":[
				1.7322921752929688,
				1.7322924137115479,
				1.7322922945022583
			],
			"translation":[
				0.24079068005084991,
				0,
				-0.8894280195236206
			]
		},
		{
			"mesh":0,
			"name":"Cube.022",
			"rotation":[
				0.3598364293575287,
				0.608701765537262,
				-0.6087017059326172,
				0.3598363995552063
			],
			"scale":[
				1.7604581117630005,
				1.7604583501815796,
				1.7604581117630005
			],
			"translation":[
				0.39549434185028076,
				0,
				-1.0273497104644775
			]
		},
		{
			"mesh":0,
			"name":"Cube.023",
			"rotation":[
				0.6986947059631348,
				0.10874611884355545,
				-0.10874609649181366,
				0.6986947059631348
			],
			"scale":[
				1.7853736877441406,
				1.7853738069534302,
				1.7853736877441406
			],
			"translation":[
				0.5849214196205139,
				0,
				-0.9939395189285278
			]
		},
		{
			"mesh":0,
			"name":"Cube.024",
			"rotation":[
				0.6013329029083252,
				0.37201976776123047,
				-0.3720197379589081,
				0.60133296251297
			],
			"scale":[
				1.7327910661697388,
				1.7327911853790283,
				1.7327910661697388
			],
			"translation":[
				0.4983994960784912,
				0,
				-0.8027559518814087
			]
		},
		{
			"mesh":0,
			"name":"Cube.026",
			"rotation":[
				0.7070125341415405,
				-0.011543326079845428,
				0.011543349362909794,
				0.7070125937461853
			],
			"scale":[
				1.719969630241394,
				1.7199697494506836,
				1.7199697494506836
			],
			"translation":[
				-0.21432404220104218,
				0,
				-0.7281719446182251
			]
		},
		{
			"mesh":0,
			"name":"Cube.027",
			"rotation":[
				0.5229519009590149,
				-0.4759425222873688,
				0.47594255208969116,
				0.5229519605636597
			],
			"scale":[
				1.7022157907485962,
				1.7022157907485962,
				1.7022156715393066
			],
			"translation":[
				0.10957962274551392,
				0,
				-0.712409496307373
			]
		},
		{
			"mesh":0,
			"name":"Cube.028",
			"rotation":[
				0.22474120557308197,
				0.6704412698745728,
				-0.670441210269928,
				0.22474117577075958
			],
			"scale":[
				1.7206586599349976,
				1.7206588983535767,
				1.7206586599349976
			],
			"translation":[
				-0.3768887221813202,
				0,
				-0.7184523344039917
			]
		},
		{
			"mesh":0,
			"name":"Cube.029",
			"rotation":[
				0.6488001346588135,
				-0.28117331862449646,
				0.28117334842681885,
				0.6488000750541687
			],
			"scale":[
				1.6451247930526733,
				1.645124912261963,
				1.6451246738433838
			],
			"translation":[
				-0.2122952789068222,
				0,
				-0.48837581276893616
			]
		},
		{
			"mesh":0,
			"name":"Cube.030",
			"rotation":[
				0.3751239478588104,
				-0.5994013547897339,
				0.5994013547897339,
				0.3751240074634552
			],
			"scale":[
				1.6758146286010742,
				1.6758148670196533,
				1.6758146286010742
			],
			"translation":[
				-0.42523878812789917,
				0,
				-0.25311338901519775
			]
		},
		{
			"mesh":0,
			"name":"Cube.032",
			"rotation":[
				0.4237767159938812,
				0.56605064868927,
				-0.5660507678985596,
				0.42377665638923645
			],
			"scale":[
				1.7562860250473022,
				1.7562861442565918,
				1.7562859058380127
			],
			"translation":[
				-0.6834893226623535,
				0,
				-0.5649778842926025
			]
		},
		{
			"mesh":0,
			"name":"Cube.033",
			"rotation":[
				0.6130478382110596,
				0.35238102078437805,
				-0.35238102078437805,
				0.6130477786064148
			],
			"scale":[
				1.8577593564987183,
				1.8577595949172974,
				1.8577593564987183
			],
			"translation":[
				-0.562574028968811,
				0,
				-0.2577730119228363
			]
		},
		{
			"mesh":0,
			"name":"Cube.034",
			"rotation":[
				0.2487858235836029,
				-0.6618955135345459,
				0.6618954539299011,
				0.24878577888011932
			],
			"scale":[
				1.662348747253418,
				1.662348747253418,
				1.6623486280441284
			],
			"translation":[
				-0.862489640712738,
				0,
				-1.1722904443740845
			]
		},
		{
			"mesh":0,
			"name":"Cube.035",
			"rotation":[
				0.7065615653991699,
				-0.02776172198355198,
				0.02776174247264862,
				0.7065616846084595
			],
			"scale":[
				1.7063920497894287,
				1.7063921689987183,
				1.7063920497894287
			],
			"translation":[
				-0.6848157048225403,
				0,
				-1.0464109182357788
			]
		},
		{
			"mesh":0,
			"name":"Cube.036",
			"rotation":[
				0.2525007724761963,
				-0.6604872941970825,
				0.6604871153831482,
				0.2525007724761963
			],
			"scale":[
				1.7110168933868408,
				1.7110170125961304,
				1.71101713180542
			],
			"translation":[
				-0.7965189814567566,
				0,
				-0.8037588596343994
			]
		},
		{
			"mesh":0,
			"name":"Cube.037",
			"rotation":[
				0.7067029476165771,
				0.023893393576145172,
				-0.02389337122440338,
				0.7067030072212219
			],
			"scale":[
				1.8183661699295044,
				1.818366289138794,
				1.8183661699295044
			],
			"translation":[
				-0.8910512328147888,
				0,
				-0.9279524087905884
			]
		},
		{
			"mesh":0,
			"name":"Cube.038",
			"rotation":[
				0.5054911375045776,
				-0.49444788694381714,
				0.4944479465484619,
				0.5054910778999329
			],
			"scale":[
				1.738679051399231,
				1.7386791706085205,
				1.738679051399231
			],
			"translation":[
				-0.22785212099552155,
				0,
				0.38003167510032654
			]
		},
		{
			"mesh":0,
			"name":"Cube.039",
			"rotation":[
				0.6692893505096436,
				-0.2281484454870224,
				0.2281484603881836,
				0.6692894101142883
			],
			"scale":[
				1.7094531059265137,
				1.7094533443450928,
				1.7094532251358032
			],
			"translation":[
				-0.09781196713447571,
				0,
				0.7714262008666992
			]
		},
		{
			"mesh":0,
			"name":"Cube.040",
			"rotation":[
				0.7057121992111206,
				-0.044387318193912506,
				0.044387344270944595,
				0.7057122588157654
			],
			"scale":[
				1.7289735078811646,
				1.7289735078811646,
				1.728973150253296
			],
			"translation":[
				-0.9053204655647278,
				0,
				0.39497873187065125
			]
		},
		{
			"mesh":0,
			"name":"Cube.042",
			"rotation":[
				0.48267343640327454,
				-0.5167460441589355,
				0.5167458653450012,
				0.4826735258102417
			],
			"scale":[
				1.8074325323104858,
				1.807432770729065,
				1.8074322938919067
			],
			"translation":[
				-0.7883591055870056,
				0,
				0.7759664058685303
			]
		},
		{
			"mesh":0,
			"name":"Cube.043",
			"rotation":[
				0.6207557320594788,
				0.3386184573173523,
				-0.3386184573173523,
				0.6207554936408997
			],
			"scale":[
				1.776574969291687,
				1.7765750885009766,
				1.776574969291687
			],
			"translation":[
				-0.9006164073944092,
				0,
				0.6494277715682983
			]
		},
		{
			"mesh":0,
			"name":"Cube.044",
			"rotation":[
				0.5982397198677063,
				0.3769737482070923,
				-0.3769737482070923,
				0.5982397794723511
			],
			"scale":[
				1.691772699356079,
				1.6917728185653687,
				1.6917728185653687
			],
			"translation":[
				-0.7004479765892029,
				0,
				0.6070678234100342
			]
		},
		{
			"mesh":0,
			"name":"Cube.045",
			"rotation":[
				0.3060201406478882,
				0.6374571919441223,
				-0.6374571919441223,
				0.3060201108455658
			],
			"scale":[
				1.820615291595459,
				1.820615291595459,
				1.8206151723861694
			],
			"translation":[
				-0.5504159331321716,
				0,
				0.745202898979187
			]
		},
		{
			"mesh":0,
			"name":"Cube.046",
			"rotation":[
				0.6460718512535095,
				0.2873867154121399,
				-0.2873867154121399,
				0.6460719108581543
			],
			"scale":[
				1.8763686418533325,
				1.8763686418533325,
				1.876368522644043
			],
			"translation":[
				-0.9382950663566589,
				0,
				0.15807774662971497
			]
		},
		{
			"mesh":0,
			"name":"Cube.047",
			"rotation":[
				0.5955393314361572,
				-0.3812255263328552,
				0.3812255859375,
				0.5955392718315125
			],
			"scale":[
				1.7230392694473267,
				1.7230393886566162,
				1.723039150238037
			],
			"translation":[
				-0.43039828538894653,
				0,
				0.12887758016586304
			]
		},
		{
			"mesh":0,
			"name":"Cube.048",
			"rotation":[
				0.7049931287765503,
				-0.05463304743170738,
				0.05463307723402977,
				0.7049930691719055
			],
			"scale":[
				1.8509316444396973,
				1.8509316444396973,
				1.8509314060211182
			],
			"translation":[
				0.3166956901550293,
				0,
				0.4995778799057007
			]
		},
		{
			"mesh":0,
			"name":"Cube.049",
			"rotation":[
				0.2559289038181305,
				0.6591665744781494,
				-0.6591663956642151,
				0.2559289336204529
			],
			"scale":[
				1.6548855304718018,
				1.6548856496810913,
				1.6548855304718018
			],
			"translation":[
				0.4279897212982178,
				0,
				0.2995741367340088
			]
		},
		{
			"mesh":0,
			"name":"Cube.050",
			"rotation":[
				0.6389078497886658,
				-0.3029799163341522,
				0.3029799163341522,
				0.6389077305793762
			],
			"scale":[
				1.6649938821792603,
				1.6649941205978394,
				1.6649940013885498
			],
			"translation":[
				0.4923284351825714,
				0,
				0.4490698277950287
			]
		},
		{
			"mesh":0,
			"name":"Cube.051",
			"rotation":[
				0.61207515001297,
				-0.35406801104545593,
				0.3540681302547455,
				0.6120749711990356
			],
			"scale":[
				1.7476862668991089,
				1.7476862668991089,
				1.7476862668991089
			],
			"translation":[
				0.6391043066978455,
				0,
				0.5624858140945435
			]
		},
		{
			"mesh":0,
			"name":"Cube.052",
			"rotation":[
				0.48128125071525574,
				-0.5180428624153137,
				0.5180428624153137,
				0.48128125071525574
			],
			"scale":[
				1.7790724039077759,
				1.7790725231170654,
				1.7790722846984863
			],
			"translation":[
				0.5597156286239624,
				0,
				0.45342662930488586
			]
		},
		{
			"mesh":0,
			"name":"Cube.053",
			"rotation":[
				0.6397765278816223,
				-0.3011411130428314,
				0.3011411130428314,
				0.6397765874862671
			],
			"scale":[
				1.6703026294708252,
				1.6703027486801147,
				1.6703027486801147
			],
			"translation":[
				0.21370378136634827,
				0,
				0.3156896233558655
			]
		},
		{
			"mesh":0,
			"name":"Cube.054",
			"rotation":[
				0.6600877642631531,
				-0.2535431683063507,
				0.2535431981086731,
				0.6600877642631531
			],
			"scale":[
				1.8223868608474731,
				1.8223868608474731,
				1.8223868608474731
			],
			"translation":[
				0.0975688025355339,
				0,
				0.7194621562957764
			]
		},
		{
			"mesh":0,
			"name":"Cube.055",
			"rotation":[
				0.6735318303108215,
				0.21530181169509888,
				-0.21530179679393768,
				0.6735319495201111
			],
			"scale":[
				1.66986882686615,
				1.669869065284729,
				1.6698689460754395
			],
			"translation":[
				0.025946544483304024,
				0,
				0.602802038192749
			]
		},
		{
			"mesh":0,
			"name":"Cube.056",
			"rotation":[
				0.6271982789039612,
				0.3265307545661926,
				-0.32653072476387024,
				0.6271982789039612
			],
			"scale":[
				1.8167450428009033,
				1.8167450428009033,
				1.8167449235916138
			],
			"translation":[
				0.2200600653886795,
				0,
				0.1115058958530426
			]
		},
		{
			"mesh":0,
			"name":"Cube.057",
			"rotation":[
				0.583273708820343,
				-0.3997395634651184,
				0.3997396230697632,
				0.5832737684249878
			],
			"scale":[
				1.879146933555603,
				1.879146933555603,
				1.8791470527648926
			],
			"translation":[
				0.6580551862716675,
				0,
				-0.03270965814590454
			]
		},
		{
			"mesh":0,
			"name":"Cube.058",
			"rotation":[
				0.7064244747161865,
				0.031054960563778877,
				-0.03105492889881134,
				0.7064245343208313
			],
			"scale":[
				1.8447221517562866,
				1.8447222709655762,
				1.8447222709655762
			],
			"translation":[
				0.3535746932029724,
				0,
				-0.03558383882045746
			]
		},
		{
			"mesh":0,
			"name":"Cube.059",
			"rotation":[
				0.2976514399051666,
				0.6414076089859009,
				-0.6414074897766113,
				0.2976514399051666
			],
			"scale":[
				1.8242048025131226,
				1.824204921722412,
				1.824204921722412
			],
			"translation":[
				0.9221370220184326,
				0,
				0.013195956125855446
			]
		},
		{
			"mesh":0,
			"name":"Cube.060",
			"rotation":[
				0.5426850914955139,
				0.45331326127052307,
				-0.45331326127052307,
				0.5426850914955139
			],
			"scale":[
				1.864385724067688,
				1.8643858432769775,
				1.864385724067688
			],
			"translation":[
				-0.3199021518230438,
				0,
				0.0379922091960907
			]
		},
		{
			"mesh":0,
			"name":"Cube.061",
			"rotation":[
				0.20866234600543976,
				-0.6756182909011841,
				0.6756182312965393,
				0.20866234600543976
			],
			"scale":[
				1.6400504112243652,
				1.6400505304336548,
				1.6400505304336548
			],
			"translation":[
				-0.4451359808444977,
				0,
				0.30520370602607727
			]
		},
		{
			"mesh":0,
			"name":"Cube.062",
			"rotation":[
				0.190598264336586,
				-0.6809349656105042,
				0.6809348464012146,
				0.19059832394123077
			],
			"scale":[
				1.7807947397232056,
				1.7807950973510742,
				1.7807948589324951
			],
			"translation":[
				0.009018495678901672,
				0,
				0.13374203443527222
			]
		},
		{
			"mesh":0,
			"name":"Cube.063",
			"rotation":[
				0.6441423296928406,
				0.2916857898235321,
				-0.29168567061424255,
				0.6441424489021301
			],
			"scale":[
				1.7759368419647217,
				1.7759370803833008,
				1.7759369611740112
			],
			"translation":[
				-0.2864415645599365,
				0,
				-1.242946982383728
			]
		},
		{
			"mesh":0,
			"name":"Cube.064",
			"rotation":[
				0.13107861578464508,
				-0.6948513984680176,
				0.694851279258728,
				0.13107864558696747
			],
			"scale":[
				1.7326236963272095,
				1.7326236963272095,
				1.73262357711792
			],
			"translation":[
				-0.3818662762641907,
				0,
				-1.3454746007919312
			]
		},
		{
			"mesh":0,
			"name":"Cube.065",
			"rotation":[
				0.6816814541816711,
				-0.18791049718856812,
				0.18791049718856812,
				0.6816816329956055
			],
			"scale":[
				1.7870362997055054,
				1.787036418914795,
				1.7870362997055054
			],
			"translation":[
				-0.15838603675365448,
				0,
				-1.4434120655059814
			]
		},
		{
			"mesh":0,
			"name":"Cube.066",
			"rotation":[
				0.7068935036659241,
				0.017361771315336227,
				-0.017361747100949287,
				0.7068937420845032
			],
			"scale":[
				1.8633219003677368,
				1.8633220195770264,
				1.8633220195770264
			],
			"translation":[
				-0.018566753715276718,
				0,
				-0.897455096244812
			]
		},
		{
			"mesh":0,
			"name":"Cube.067",
			"rotation":[
				0.42311158776283264,
				0.5665479898452759,
				-0.5665479898452759,
				0.42311152815818787
			],
			"scale":[
				1.8253264427185059,
				1.8253265619277954,
				1.8253264427185059
			],
			"translation":[
				-0.11948324739933014,
				0,
				-1.0960978269577026
			]
		},
		{
			"mesh":0,
			"name":"Cube.068",
			"rotation":[
				0.5856653451919556,
				-0.39622732996940613,
				0.39622732996940613,
				0.5856653451919556
			],
			"scale":[
				1.7266607284545898,
				1.726660966873169,
				1.7266608476638794
			],
			"translation":[
				0.826531708240509,
				0,
				-1.1271483898162842
			]
		},
		{
			"mesh":0,
			"name":"Cube.069",
			"rotation":[
				0.46220940351486206,
				-0.5351284742355347,
				0.5351283550262451,
				0.4622095227241516
			],
			"scale":[
				1.8535465002059937,
				1.8535466194152832,
				1.853546380996704
			],
			"translation":[
				0.7492220401763916,
				0,
				-0.7208822965621948
			]
		},
		{
			"mesh":0,
			"name":"Cube.071",
			"rotation":[
				0.10092874616384506,
				-0.6998667120933533,
				0.6998666524887085,
				0.10092875361442566
			],
			"scale":[
				1.640258550643921,
				1.640258550643921,
				1.6402584314346313
			],
			"translation":[
				1.055851697921753,
				0,
				-0.9928196668624878
			]
		},
		{
			"mesh":0,
			"name":"Cube.073",
			"rotation":[
				0.6434122323989868,
				-0.2932928502559662,
				0.2932928502559662,
				0.6434122323989868
			],
			"scale":[
				1.8476718664169312,
				1.8476719856262207,
				1.8476719856262207
			],
			"translation":[
				0.8597883582115173,
				0,
				-0.8163540363311768
			]
		}
	],
	"materials":[
		{
			"alphaMode":"BLEND",
			"doubleSided":true,
			"name":"cemaz_list",
			"pbrMetallicRoughness":{
				"baseColorTexture":{
					"index":0
				},
				"metallicFactor":0
			}
		},
		{
			"doubleSided":true,
			"name":"Material.001",
			"pbrMetallicRoughness":{
				"baseColorFactor":[
					0.9819421768188477,
					1,
					0.942684531211853,
					1
				],
				"metallicFactor":0,
				"roughnessFactor":0.5
			}
		},
		{
			"doubleSided":true,
			"name":"Material.002",
			"pbrMetallicRoughness":{
				"baseColorFactor":[
					0.2599135935306549,
					0.4898499846458435,
					0.01308590080589056,
					1
				],
				"metallicFactor":0,
				"roughnessFactor":0.5
			}
		},
		{
			"alphaMode":"BLEND",
			"doubleSided":true,
			"name":"cemaz_cvet",
			"pbrMetallicRoughness":{
				"baseColorTexture":{
					"index":1
				},
				"metallicFactor":0,
				"roughnessFactor":0.5
			}
		}
	],
	"meshes":[
		{
			"name":"Cube.002",
			"primitives":[
				{
					"attributes":{
						"POSITION":0,
						"NORMAL":1,
						"TEXCOORD_0":2,
						"TEXCOORD_1":3,
						"TEXCOORD_2":4,
						"COLOR_0":5,
						"COLOR_1":6
					},
					"indices":7,
					"material":0
				},
				{
					"attributes":{
						"POSITION":8,
						"NORMAL":9,
						"TEXCOORD_0":10,
						"TEXCOORD_1":11,
						"TEXCOORD_2":12,
						"COLOR_0":13,
						"COLOR_1":14
					},
					"indices":15,
					"material":1
				},
				{
					"attributes":{
						"POSITION":16,
						"NORMAL":17,
						"TEXCOORD_0":18,
						"TEXCOORD_1":19,
						"TEXCOORD_2":20,
						"COLOR_0":21,
						"COLOR_1":22
					},
					"indices":23,
					"material":2
				},
				{
					"attributes":{
						"POSITION":24,
						"NORMAL":25,
						"TEXCOORD_0":26,
						"TEXCOORD_1":27,
						"TEXCOORD_2":28,
						"COLOR_0":29,
						"COLOR_1":30
					},
					"indices":31,
					"material":3
				}
			]
		}
	],
	"textures":[
		{
			"sampler":0,
			"source":0
		},
		{
			"sampler":1,
			"source":1
		}
	],
	"images":[
		{
			"mimeType":"image/png",
			"name":"cemaz_list.png",
			"uri":"cemaz_list_png.png"
		},
		{
			"mimeType":"image/png",
			"name":"cemaz_cvet.png",
			"uri":"cemaz_cvet_png.png"
		}
	],
	"accessors":[
		{
			"bufferView":0,
			"componentType":5126,
			"count":1113,
			"max":[
				0.1946907937526703,
				0.04868263006210327,
				-0.0012232214212417603
			],
			"min":[
				-0.19617429375648499,
				-0.18007108569145203,
				-0.17923951148986816
			],
			"type":"VEC3"
		},
		{
			"bufferView":1,
			"componentType":5126,
			"count":1113,
			"type":"VEC3"
		},
		{
			"bufferView":2,
			"componentType":5126,
			"count":1113,
			"type":"VEC2"
		},
		{
			"bufferView":3,
			"componentType":5126,
			"count":1113,
			"type":"VEC2"
		},
		{
			"bufferView":4,
			"componentType":5126,
			"count":1113,
			"type":"VEC2"
		},
		{
			"bufferView":5,
			"componentType":5121,
			"count":1113,
			"normalized":true,
			"type":"VEC4"
		},
		{
			"bufferView":6,
			"componentType":5123,
			"count":1113,
			"normalized":true,
			"type":"VEC4"
		},
		{
			"bufferView":7,
			"componentType":5123,
			"count":2004,
			"type":"SCALAR"
		},
		{
			"bufferView":8,
			"componentType":5126,
			"count":1800,
			"max":[
				0.030005622655153275,
				0.02945992723107338,
				-0.15706223249435425
			],
			"min":[
				-0.030662205070257187,
				-0.03449453040957451,
				-0.18415749073028564
			],
			"type":"VEC3"
		},
		{
			"bufferView":9,
			"componentType":5126,
			"count":1800,
			"type":"VEC3"
		},
		{
			"bufferView":10,
			"componentType":5126,
			"count":1800,
			"type":"VEC2"
		},
		{
			"bufferView":11,
			"componentType":5126,
			"count":1800,
			"type":"VEC2"
		},
		{
			"bufferView":12,
			"componentType":5126,
			"count":1800,
			"type":"VEC2"
		},
		{
			"bufferView":13,
			"componentType":5121,
			"count":1800,
			"normalized":true,
			"type":"VEC4"
		},
		{
			"bufferView":14,
			"componentType":5123,
			"count":1800,
			"normalized":true,
			"type":"VEC4"
		},
		{
			"bufferView":15,
			"componentType":5123,
			"count":7776,
			"type":"SCALAR"
		},
		{
			"bufferView":16,
			"componentType":5126,
			"count":1116,
			"max":[
				0.026395637542009354,
				0.025540143251419067,
				-0.15880364179611206
			],
			"min":[
				-0.026191741228103638,
				-0.03015819564461708,
				-0.18008631467819214
			],
			"type":"VEC3"
		},
		{
			"bufferView":17,
			"componentType":5126,
			"count":1116,
			"type":"VEC3"
		},
		{
			"bufferView":18,
			"componentType":5126,
			"count":1116,
			"type":"VEC2"
		},
		{
			"bufferView":19,
			"componentType":5126,
			"count":1116,
			"type":"VEC2"
		},
		{
			"bufferView":20,
			"componentType":5126,
			"count":1116,
			"type":"VEC2"
		},
		{
			"bufferView":21,
			"componentType":5121,
			"count":1116,
			"normalized":true,
			"type":"VEC4"
		},
		{
			"bufferView":22,
			"componentType":5123,
			"count":1116,
			"normalized":true,
			"type":"VEC4"
		},
		{
			"bufferView":23,
			"componentType":5123,
			"count":4320,
			"type":"SCALAR"
		},
		{
			"bufferView":24,
			"componentType":5126,
			"count":48,
			"max":[
				0.0378539003431797,
				0.031350910663604736,
				-0.14466160535812378
			],
			"min":[
				-0.03148738667368889,
				-0.035121094435453415,
				-0.18508905172348022
			],
			"type":"VEC3"
		},
		{
			"bufferView":25,
			"componentType":5126,
			"count":48,
			"type":"VEC3"
		},
		{
			"bufferView":26,
			"componentType":5126,
			"count":48,
			"type":"VEC2"
		},
		{
			"bufferView":27,
			"componentType":5126,
			"count":48,
			"type":"VEC2"
		},
		{
			"bufferView":28,
			"componentType":5126,
			"count":48,
			"type":"VEC2"
		},
		{
			"bufferView":29,
			"componentType":5121,
			"count":48,
			"normalized":true,
			"type":"VEC4"
		},
		{
			"bufferView":30,
			"componentType":5123,
			"count":48,
			"normalized":true,
			"type":"VEC4"
		},
		{
			"bufferView":31,
			"componentType":5123,
			"count":72,
			"type":"SCALAR"
		}
	],
	"bufferViews":[
		{
			"buffer":0,
			"byteLength":13356,
			"byteOffset":0,
			"target":34962
		},
		{
			"buffer":0,
			"byteLength":13356,
			"byteOffset":13356,
			"target":34962
		},
		{
			"buffer":0,
			"byteLength":8904,
			"byteOffset":26712,
			"target":34962
		},
		{
			"buffer":0,
			"byteLength":8904,
			"byteOffset":35616,
			"target":34962
		},
		{
			"buffer":0,
			"byteLength":8904,
			"byteOffset":44520,
			"target":34962
		},
		{
			"buffer":0,
			"byteLength":4452,
			"byteOffset":53424,
			"target":34962
		},
		{
			"buffer":0,
			"byteLength":8904,
			"byteOffset":57876,
			"target":34962
		},
		{
			"buffer":0,
			"byteLength":4008,
			"byteOffset":66780,
			"target":34963
		},
		{
			"buffer":0,
			"byteLength":21600,
			"byteOffset":70788,
			"target":34962
		},
		{
			"buffer":0,
			"byteLength":21600,
			"byteOffset":92388,
			"target":34962
		},
		{
			"buffer":0,
			"byteLength":14400,
			"byteOffset":113988,
			"target":34962
		},
		{
			"buffer":0,
			"byteLength":14400,
			"byteOffset":128388,
			"target":34962
		},
		{
			"buffer":0,
			"byteLength":14400,
			"byteOffset":142788,
			"target":34962
		},
		{
			"buffer":0,
			"byteLength":7200,
			"byteOffset":157188,
			"target":34962
		},
		{
			"buffer":0,
			"byteLength":14400,
			"byteOffset":164388,
			"target":34962
		},
		{
			"buffer":0,
			"byteLength":15552,
			"byteOffset":178788,
			"target":34963
		},
		{
			"buffer":0,
			"byteLength":13392,
			"byteOffset":194340,
			"target":34962
		},
		{
			"buffer":0,
			"byteLength":13392,
			"byteOffset":207732,
			"target":34962
		},
		{
			"buffer":0,
			"byteLength":8928,
			"byteOffset":221124,
			"target":34962
		},
		{
			"buffer":0,
			"byteLength":8928,
			"byteOffset":230052,
			"target":34962
		},
		{
			"buffer":0,
			"byteLength":8928,
			"byteOffset":238980,
			"target":34962
		},
		{
			"buffer":0,
			"byteLength":4464,
			"byteOffset":247908,
			"target":34962
		},
		{
			"buffer":0,
			"byteLength":8928,
			"byteOffset":252372,
			"target":34962
		},
		{
			"buffer":0,
			"byteLength":8640,
			"byteOffset":261300,
			"target":34963
		},
		{
			"buffer":0,
			"byteLength":576,
			"byteOffset":269940,
			"target":34962
		},
		{
			"buffer":0,
			"byteLength":576,
			"byteOffset":270516,
			"target":34962
		},
		{
			"buffer":0,
			"byteLength":384,
			"byteOffset":271092,
			"target":34962
		},
		{
			"buffer":0,
			"byteLength":384,
			"byteOffset":271476,
			"target":34962
		},
		{
			"buffer":0,
			"byteLength":384,
			"byteOffset":271860,
			"target":34962
		},
		{
			"buffer":0,
			"byteLength":192,
			"byteOffset":272244,
			"target":34962
		},
		{
			"buffer":0,
			"byteLength":384,
			"byteOffset":272436,
			"target":34962
		},
		{
			"buffer":0,
			"byteLength":144,
			"byteOffset":272820,
			"target":34963
		}
	],
	"samplers":[
		{
			"magFilter":9729,
			"minFilter":9987,
			"wrapS":33071,
			"wrapT":33071
		},
		{
			"magFilter":9729,
			"minFilter":9987
		}
	],
	"buffers":[
		{
			"byteLength":272964,
			"uri":"cemaz_trop.bin"
		}
	]
}
