{
	"asset":{
		"generator":"Khronos glTF Blender I/O v4.3.47",
		"version":"2.0"
	},
	"scene":0,
	"scenes":[
		{
			"name":"Scene",
			"nodes":[
				0,
				1,
				2,
				3,
				4,
				5,
				6,
				7,
				8,
				9,
				10,
				11,
				12,
				13,
				14,
				15,
				16,
				17,
				18,
				19,
				20,
				21,
				22,
				23,
				24,
				25,
				26,
				27,
				28,
				29,
				30,
				31,
				32,
				33,
				34,
				35,
				36,
				37,
				38,
				39,
				40,
				41,
				42,
				43,
				44,
				45,
				46,
				47,
				48,
				49,
				50,
				51,
				52,
				53,
				54,
				55,
				56,
				57,
				58,
				59,
				60,
				61,
				62,
				63,
				64,
				65,
				66,
				67,
				68,
				69,
				70,
				71,
				72,
				73,
				74,
				75,
				76,
				77,
				78,
				79,
				80,
				81,
				82,
				83,
				84,
				85,
				86
			]
		}
	],
	"nodes":[
		{
			"mesh":0,
			"name":"cemaz.001",
			"rotation":[
				0.6691523790359497,
				0.22854989767074585,
				-0.2285498082637787,
				0.6691524982452393
			],
			"scale":[
				0.15609970688819885,
				0.15609972178936005,
				0.15609970688819885
			],
			"translation":[
				0.40236759185791016,
				0,
				-0.9395024180412292
			]
		},
		{
			"mesh":0,
			"name":"cemaz.002",
			"rotation":[
				0.3908065855503082,
				-0.5892964005470276,
				0.5892964601516724,
				0.3908065855503082
			],
			"scale":[
				0.15609970688819885,
				0.15609973669052124,
				0.15609972178936005
			],
			"translation":[
				0.3623686134815216,
				0,
				-0.6168923377990723
			]
		},
		{
			"mesh":0,
			"name":"cemaz.003",
			"rotation":[
				0.09984079003334045,
				-0.7000226974487305,
				0.7000227570533752,
				0.09984074532985687
			],
			"scale":[
				0.15609970688819885,
				0.15609973669052124,
				0.15609972178936005
			],
			"translation":[
				-0.04464093595743179,
				0,
				-0.9138262271881104
			]
		},
		{
			"mesh":0,
			"name":"cemaz.004",
			"rotation":[
				0.2564903795719147,
				-0.6589481830596924,
				0.6589482426643372,
				0.2564903795719147
			],
			"scale":[
				0.15609970688819885,
				0.15609973669052124,
				0.15609972178936005
			],
			"translation":[
				-0.28003257513046265,
				0,
				-0.7680940628051758
			]
		},
		{
			"mesh":0,
			"name":"cemaz.005",
			"rotation":[
				0.052734144032001495,
				0.7051376104354858,
				-0.7051376700401306,
				0.05273418128490448
			],
			"scale":[
				0.15609973669052124,
				0.15609975159168243,
				0.15609972178936005
			],
			"translation":[
				-0.3371867835521698,
				0,
				-0.5588833689689636
			]
		},
		{
			"mesh":0,
			"name":"cemaz.006",
			"rotation":[
				0.601761519908905,
				-0.371326208114624,
				0.3713262975215912,
				0.6017614603042603
			],
			"scale":[
				0.15609972178936005,
				0.15609973669052124,
				0.15609972178936005
			],
			"translation":[
				-0.3904248774051666,
				0,
				-0.8549226522445679
			]
		},
		{
			"mesh":0,
			"name":"cemaz.007",
			"rotation":[
				0.15756358206272125,
				0.6893284916877747,
				-0.6893284320831299,
				0.15756365656852722
			],
			"scale":[
				0.15609973669052124,
				0.15609973669052124,
				0.15609972178936005
			],
			"translation":[
				-0.18561077117919922,
				0,
				-0.6298467516899109
			]
		},
		{
			"mesh":0,
			"name":"cemaz.008",
			"rotation":[
				0.3928358256816864,
				-0.5879456400871277,
				0.5879455208778381,
				0.392835795879364
			],
			"scale":[
				0.15609972178936005,
				0.15609972178936005,
				0.15609969198703766
			],
			"translation":[
				-0.0963193029165268,
				0,
				-1.1240452527999878
			]
		},
		{
			"mesh":0,
			"name":"cemaz.009",
			"rotation":[
				0.7068236470222473,
				-0.020008550956845284,
				0.020008591935038567,
				0.7068235874176025
			],
			"scale":[
				0.15609972178936005,
				0.15609973669052124,
				0.15609972178936005
			],
			"translation":[
				-0.22761067748069763,
				0,
				-0.950916051864624
			]
		},
		{
			"mesh":0,
			"name":"cemaz.010",
			"rotation":[
				0.19788134098052979,
				0.6788541674613953,
				-0.67885422706604,
				0.19788135588169098
			],
			"scale":[
				0.15609970688819885,
				0.15609973669052124,
				0.15609972178936005
			],
			"translation":[
				-0.050244126468896866,
				0,
				-0.6952317357063293
			]
		},
		{
			"mesh":0,
			"name":"cemaz.011",
			"rotation":[
				0.0068053798750042915,
				0.707073986530304,
				-0.7070740461349487,
				0.006805419456213713
			],
			"scale":[
				0.15609970688819885,
				0.15609972178936005,
				0.15609970688819885
			],
			"translation":[
				-0.455579549074173,
				0,
				-1.001497507095337
			]
		},
		{
			"mesh":0,
			"name":"cemaz.012",
			"rotation":[
				0.5270838737487793,
				0.47136250138282776,
				-0.47136250138282776,
				0.5270839929580688
			],
			"scale":[
				0.15609970688819885,
				0.15609973669052124,
				0.15609970688819885
			],
			"translation":[
				-0.4174720346927643,
				0,
				0.3446933627128601
			]
		},
		{
			"mesh":0,
			"name":"cemaz.013",
			"rotation":[
				0.15872612595558167,
				0.6890617609024048,
				-0.68906170129776,
				0.15872608125209808
			],
			"scale":[
				0.15609972178936005,
				0.15609972178936005,
				0.15609972178936005
			],
			"translation":[
				-0.03798965364694595,
				0,
				0.18301326036453247
			]
		},
		{
			"mesh":0,
			"name":"cemaz.014",
			"rotation":[
				0.7000956535339355,
				0.09932777285575867,
				-0.09932775795459747,
				0.7000958323478699
			],
			"scale":[
				0.15609970688819885,
				0.15609973669052124,
				0.15609970688819885
			],
			"translation":[
				-0.27041095495224,
				0,
				0.2745260000228882
			]
		},
		{
			"mesh":0,
			"name":"cemaz.015",
			"rotation":[
				0.37762323021888733,
				0.597830057144165,
				-0.5978301167488098,
				0.37762317061424255
			],
			"scale":[
				0.15609972178936005,
				0.15609972178936005,
				0.15609970688819885
			],
			"translation":[
				-0.3299455940723419,
				0,
				0.44910019636154175
			]
		},
		{
			"mesh":0,
			"name":"cemaz.016",
			"rotation":[
				0.3351406753063202,
				-0.6226401329040527,
				0.6226401329040527,
				0.33514073491096497
			],
			"scale":[
				0.15609970688819885,
				0.15609972178936005,
				0.15609970688819885
			],
			"translation":[
				-0.3791440427303314,
				0,
				0.18750275671482086
			]
		},
		{
			"mesh":0,
			"name":"cemaz.017",
			"rotation":[
				0.2743101418018341,
				-0.6517314314842224,
				0.6517316102981567,
				0.27431008219718933
			],
			"scale":[
				0.15609970688819885,
				0.15609976649284363,
				0.15609973669052124
			],
			"translation":[
				0.8180583715438843,
				0,
				0.4126046299934387
			]
		},
		{
			"mesh":0,
			"name":"cemaz.018",
			"rotation":[
				0.23712073266506195,
				0.6661635637283325,
				-0.666163444519043,
				0.23712076246738434
			],
			"scale":[
				0.15609970688819885,
				0.15609972178936005,
				0.15609970688819885
			],
			"translation":[
				0.8378736972808838,
				0,
				0.04942477494478226
			]
		},
		{
			"mesh":0,
			"name":"cemaz.019",
			"rotation":[
				0.677345335483551,
				-0.20298585295677185,
				0.20298588275909424,
				0.6773453950881958
			],
			"scale":[
				0.15609970688819885,
				0.15609970688819885,
				0.15609970688819885
			],
			"translation":[
				0.7193293571472168,
				0,
				0.15729668736457825
			]
		},
		{
			"mesh":0,
			"name":"cemaz.020",
			"rotation":[
				0.6087785959243774,
				0.3597063422203064,
				-0.359706312417984,
				0.6087785959243774
			],
			"scale":[
				0.15609973669052124,
				0.15609973669052124,
				0.15609970688819885
			],
			"translation":[
				0.9560337662696838,
				0,
				0.3754512071609497
			]
		},
		{
			"mesh":0,
			"name":"cemaz.021",
			"rotation":[
				0.2930639386177063,
				0.6435166001319885,
				-0.6435165405273438,
				0.2930639088153839
			],
			"scale":[
				0.15609972178936005,
				0.15609973669052124,
				0.15609972178936005
			],
			"translation":[
				0.4558289647102356,
				0,
				0.06938569247722626
			]
		},
		{
			"mesh":0,
			"name":"cemaz.022",
			"rotation":[
				0.532215416431427,
				0.46556076407432556,
				-0.4655606150627136,
				0.532215416431427
			],
			"scale":[
				0.15609973669052124,
				0.15609973669052124,
				0.15609972178936005
			],
			"translation":[
				0.5488148927688599,
				0,
				0.3554562032222748
			]
		},
		{
			"mesh":0,
			"name":"cemaz.023",
			"rotation":[
				0.09849558025598526,
				0.7002133131027222,
				-0.7002132534980774,
				0.09849552810192108
			],
			"scale":[
				0.15609967708587646,
				0.15609970688819885,
				0.15609969198703766
			],
			"translation":[
				0.9284184575080872,
				0,
				0.2156912088394165
			]
		},
		{
			"mesh":0,
			"name":"cemaz.024",
			"rotation":[
				0.490506112575531,
				-0.5093168616294861,
				0.5093169808387756,
				0.4905060827732086
			],
			"scale":[
				0.15609970688819885,
				0.15609976649284363,
				0.15609972178936005
			],
			"translation":[
				0.6916241645812988,
				0,
				0.2944178879261017
			]
		},
		{
			"mesh":0,
			"name":"cemaz.025",
			"rotation":[
				0.7034485340118408,
				0.0718340054154396,
				-0.07183399051427841,
				0.7034485936164856
			],
			"scale":[
				0.15609972178936005,
				0.15609973669052124,
				0.15609972178936005
			],
			"translation":[
				0.6645464897155762,
				0,
				0.4594409167766571
			]
		},
		{
			"mesh":0,
			"name":"cemaz.026",
			"rotation":[
				0.6842672228813171,
				-0.17826499044895172,
				0.17826499044895172,
				0.6842671632766724
			],
			"scale":[
				0.15609970688819885,
				0.15609973669052124,
				0.15609970688819885
			],
			"translation":[
				0.5544686913490295,
				0,
				0.2065000832080841
			]
		},
		{
			"mesh":0,
			"name":"cemaz.027",
			"rotation":[
				0.4898053705692291,
				-0.5099907517433167,
				0.5099908113479614,
				0.48980551958084106
			],
			"scale":[
				0.15609967708587646,
				0.15609970688819885,
				0.15609969198703766
			],
			"translation":[
				0.3089691698551178,
				0,
				0.3961973488330841
			]
		},
		{
			"mesh":0,
			"name":"cemaz.028",
			"rotation":[
				0.6863116025924683,
				-0.17022454738616943,
				0.17022459208965302,
				0.6863116025924683
			],
			"scale":[
				0.15609969198703766,
				0.15609970688819885,
				0.15609969198703766
			],
			"translation":[
				0.30887964367866516,
				0,
				0.03064463660120964
			]
		},
		{
			"mesh":0,
			"name":"cemaz.029",
			"rotation":[
				0.6404194831848145,
				-0.2997715175151825,
				0.29977160692214966,
				0.6404194235801697
			],
			"scale":[
				0.15609969198703766,
				0.15609970688819885,
				0.15609970688819885
			],
			"translation":[
				0.2290421724319458,
				0,
				0.13922153413295746
			]
		},
		{
			"mesh":0,
			"name":"cemaz.030",
			"rotation":[
				0.703403651714325,
				0.07227326929569244,
				-0.07227323204278946,
				0.7034035921096802
			],
			"scale":[
				0.15609969198703766,
				0.15609969198703766,
				0.15609970688819885
			],
			"translation":[
				0.4281117022037506,
				0,
				0.3546849489212036
			]
		},
		{
			"mesh":0,
			"name":"cemaz.031",
			"rotation":[
				0.13876421749591827,
				0.6933574080467224,
				-0.6933574080467224,
				0.1387641876935959
			],
			"scale":[
				0.15609970688819885,
				0.15609970688819885,
				0.15609970688819885
			],
			"translation":[
				0.04729940742254257,
				0,
				0.0492052286863327
			]
		},
		{
			"mesh":0,
			"name":"cemaz.032",
			"rotation":[
				0.39678606390953064,
				-0.5852869153022766,
				0.5852869749069214,
				0.396786093711853
			],
			"scale":[
				0.15609970688819885,
				0.15609972178936005,
				0.15609972178936005
			],
			"translation":[
				0.0845782607793808,
				0,
				0.9438878297805786
			]
		},
		{
			"mesh":0,
			"name":"cemaz.033",
			"rotation":[
				0.7070462703704834,
				0.009251938201487064,
				-0.009251914918422699,
				0.7070462107658386
			],
			"scale":[
				0.15609973669052124,
				0.15609975159168243,
				0.15609973669052124
			],
			"translation":[
				0.4682770371437073,
				0,
				0.7014976739883423
			]
		},
		{
			"mesh":0,
			"name":"cemaz.034",
			"rotation":[
				0.20019616186618805,
				-0.6781750917434692,
				0.678175151348114,
				0.20019617676734924
			],
			"scale":[
				0.15609970688819885,
				0.15609973669052124,
				0.15609972178936005
			],
			"translation":[
				0.23446965217590332,
				0,
				0.8328655958175659
			]
		},
		{
			"mesh":0,
			"name":"cemaz.035",
			"rotation":[
				0.47006329894065857,
				0.528242826461792,
				-0.5282427668571472,
				0.47006335854530334
			],
			"scale":[
				0.15609973669052124,
				0.15609973669052124,
				0.15609972178936005
			],
			"translation":[
				0.17598891258239746,
				0,
				1.0583847761154175
			]
		},
		{
			"mesh":0,
			"name":"cemaz.036",
			"rotation":[
				0.4000451862812042,
				0.5830641984939575,
				-0.5830641984939575,
				0.4000451862812042
			],
			"scale":[
				0.15609970688819885,
				0.15609973669052124,
				0.15609970688819885
			],
			"translation":[
				0.12268891930580139,
				0,
				0.7365819811820984
			]
		},
		{
			"mesh":0,
			"name":"cemaz.037",
			"rotation":[
				0.5930101871490479,
				-0.38514789938926697,
				0.38514795899391174,
				0.5930101871490479
			],
			"scale":[
				0.15609970688819885,
				0.15609972178936005,
				0.15609972178936005
			],
			"translation":[
				0.33669421076774597,
				0,
				0.9568772912025452
			]
		},
		{
			"mesh":0,
			"name":"cemaz.038",
			"rotation":[
				0.6102440357208252,
				0.35721448063850403,
				-0.35721445083618164,
				0.61024409532547
			],
			"scale":[
				0.15609970688819885,
				0.15609972178936005,
				0.15609970688819885
			],
			"translation":[
				0.40597087144851685,
				0,
				0.515140175819397
			]
		},
		{
			"mesh":0,
			"name":"cemaz.039",
			"rotation":[
				0.42143478989601135,
				0.5677964091300964,
				-0.5677964091300964,
				0.42143481969833374
			],
			"scale":[
				0.15609973669052124,
				0.15609973669052124,
				0.15609972178936005
			],
			"translation":[
				0.28353792428970337,
				0,
				0.6544309854507446
			]
		},
		{
			"mesh":0,
			"name":"cemaz.040",
			"rotation":[
				0.6443811655044556,
				-0.29115816950798035,
				0.2911582589149475,
				0.6443809866905212
			],
			"scale":[
				0.15609970688819885,
				0.15609973669052124,
				0.15609972178936005
			],
			"translation":[
				0.8537662625312805,
				0,
				0.7405246496200562
			]
		},
		{
			"mesh":0,
			"name":"cemaz.041",
			"rotation":[
				0.1705077439546585,
				-0.6862413287162781,
				0.6862412691116333,
				0.17050769925117493
			],
			"scale":[
				0.15609970688819885,
				0.15609970688819885,
				0.15609970688819885
			],
			"translation":[
				0.5583674907684326,
				0,
				0.5482178926467896
			]
		},
		{
			"mesh":0,
			"name":"cemaz.042",
			"rotation":[
				0.48782145977020264,
				0.5118889212608337,
				-0.5118888020515442,
				0.4878215789794922
			],
			"scale":[
				0.15609975159168243,
				0.15609975159168243,
				0.15609972178936005
			],
			"translation":[
				0.5761750936508179,
				0,
				0.850813090801239
			]
		},
		{
			"mesh":0,
			"name":"cemaz.043",
			"rotation":[
				0.26572445034980774,
				0.6552790403366089,
				-0.6552789807319641,
				0.26572442054748535
			],
			"scale":[
				0.15609970688819885,
				0.15609973669052124,
				0.15609972178936005
			],
			"translation":[
				-0.5451579689979553,
				0,
				0.18345418572425842
			]
		},
		{
			"mesh":0,
			"name":"cemaz.044",
			"rotation":[
				0.706893801689148,
				-0.017356716096401215,
				0.017356736585497856,
				0.7068937420845032
			],
			"scale":[
				0.15609972178936005,
				0.15609973669052124,
				0.15609972178936005
			],
			"translation":[
				-0.8214147686958313,
				0,
				0.2803763151168823
			]
		},
		{
			"mesh":0,
			"name":"cemaz.045",
			"rotation":[
				0.5456288456916809,
				-0.4497656226158142,
				0.44976574182510376,
				0.5456289052963257
			],
			"scale":[
				0.15609970688819885,
				0.15609973669052124,
				0.15609972178936005
			],
			"translation":[
				-0.8636309504508972,
				0,
				0.46101516485214233
			]
		},
		{
			"mesh":0,
			"name":"cemaz.046",
			"rotation":[
				0.4428325593471527,
				0.5512706637382507,
				-0.5512706637382507,
				0.4428325593471527
			],
			"scale":[
				0.15609970688819885,
				0.15609972178936005,
				0.15609970688819885
			],
			"translation":[
				-0.9679640531539917,
				0,
				0.19299578666687012
			]
		},
		{
			"mesh":0,
			"name":"cemaz.047",
			"rotation":[
				0.6756163835525513,
				-0.20866841077804565,
				0.20866842567920685,
				0.6756163835525513
			],
			"scale":[
				0.15609970688819885,
				0.15609973669052124,
				0.15609972178936005
			],
			"translation":[
				-0.6972130537033081,
				0,
				0.39826422929763794
			]
		},
		{
			"mesh":0,
			"name":"cemaz.048",
			"rotation":[
				0.13158929347991943,
				0.6947548389434814,
				-0.6947548985481262,
				0.13158927857875824
			],
			"scale":[
				0.15609973669052124,
				0.15609973669052124,
				0.15609972178936005
			],
			"translation":[
				-0.6214614510536194,
				0,
				0.012882968410849571
			]
		},
		{
			"mesh":0,
			"name":"cemaz.049",
			"rotation":[
				0.12906774878501892,
				-0.6952276229858398,
				0.6952277421951294,
				0.12906773388385773
			],
			"scale":[
				0.15609973669052124,
				0.15609976649284363,
				0.15609973669052124
			],
			"translation":[
				-0.7750288248062134,
				0,
				0.13196611404418945
			]
		},
		{
			"mesh":0,
			"name":"cemaz.050",
			"rotation":[
				0.7007961869239807,
				0.09425857663154602,
				-0.09425859153270721,
				0.7007962465286255
			],
			"scale":[
				0.15609969198703766,
				0.15609970688819885,
				0.15609970688819885
			],
			"translation":[
				-0.5425814390182495,
				0,
				0.8668357133865356
			]
		},
		{
			"mesh":0,
			"name":"cemaz.051",
			"rotation":[
				0.5581067204475403,
				-0.434185266494751,
				0.434185266494751,
				0.5581067800521851
			],
			"scale":[
				0.15609970688819885,
				0.15609972178936005,
				0.15609970688819885
			],
			"translation":[
				-0.9590403437614441,
				0,
				0.5510928630828857
			]
		},
		{
			"mesh":0,
			"name":"cemaz.052",
			"rotation":[
				0.03600188344717026,
				0.7061896920204163,
				-0.7061896920204163,
				0.0360017791390419
			],
			"scale":[
				0.15609972178936005,
				0.15609972178936005,
				0.15609972178936005
			],
			"translation":[
				-0.8254438638687134,
				0,
				0.7498536109924316
			]
		},
		{
			"mesh":0,
			"name":"cemaz.053",
			"rotation":[
				0.7064722776412964,
				-0.02994876354932785,
				0.029948681592941284,
				0.7064722776412964
			],
			"scale":[
				0.15609970688819885,
				0.15609970688819885,
				0.15609969198703766
			],
			"translation":[
				-0.5397597551345825,
				0,
				0.6914184093475342
			]
		},
		{
			"mesh":0,
			"name":"cemaz.054",
			"rotation":[
				0.5808390974998474,
				-0.40326905250549316,
				0.4032691419124603,
				0.5808390378952026
			],
			"scale":[
				0.15609970688819885,
				0.15609972178936005,
				0.15609972178936005
			],
			"translation":[
				-0.27597129344940186,
				0,
				0.8272520303726196
			]
		},
		{
			"mesh":0,
			"name":"cemaz.055",
			"rotation":[
				0.4088117480278015,
				-0.5769515037536621,
				0.5769514441490173,
				0.40881168842315674
			],
			"scale":[
				0.15609970688819885,
				0.15609970688819885,
				0.15609969198703766
			],
			"translation":[
				-0.34180349111557007,
				0,
				1.0216032266616821
			]
		},
		{
			"mesh":0,
			"name":"cemaz.056",
			"rotation":[
				0.6618009805679321,
				-0.24903719127178192,
				0.24903728067874908,
				0.6618008613586426
			],
			"scale":[
				0.15609970688819885,
				0.15609972178936005,
				0.15609972178936005
			],
			"translation":[
				-0.38443440198898315,
				0,
				0.7142808437347412
			]
		},
		{
			"mesh":0,
			"name":"cemaz.057",
			"rotation":[
				0.31331250071525574,
				0.633904755115509,
				-0.6339048147201538,
				0.31331250071525574
			],
			"scale":[
				0.15609969198703766,
				0.15609970688819885,
				0.15609969198703766
			],
			"translation":[
				-0.17864713072776794,
				0,
				0.9882367253303528
			]
		},
		{
			"mesh":0,
			"name":"cemaz.058",
			"rotation":[
				0.6802307963371277,
				0.19309599697589874,
				-0.19309590756893158,
				0.6802308559417725
			],
			"scale":[
				0.15609969198703766,
				0.15609970688819885,
				0.15609970688819885
			],
			"translation":[
				-0.09264563769102097,
				0,
				0.5157646536827087
			]
		},
		{
			"mesh":0,
			"name":"cemaz.059",
			"rotation":[
				0.49278315901756287,
				-0.5071141123771667,
				0.5071142315864563,
				0.4927831292152405
			],
			"scale":[
				0.15609970688819885,
				0.15609973669052124,
				0.15609972178936005
			],
			"translation":[
				-0.22063176333904266,
				0,
				0.6575343012809753
			]
		},
		{
			"mesh":0,
			"name":"cemaz.060",
			"rotation":[
				0.32915031909942627,
				-0.6258274912834167,
				0.6258275508880615,
				0.32915031909942627
			],
			"scale":[
				0.15609970688819885,
				0.15609972178936005,
				0.15609970688819885
			],
			"translation":[
				-0.03728749603033066,
				0,
				0.9559887647628784
			]
		},
		{
			"mesh":0,
			"name":"cemaz.061",
			"rotation":[
				0.1481107473373413,
				0.6914212107658386,
				-0.6914211511611938,
				0.14811080694198608
			],
			"scale":[
				0.15609976649284363,
				0.15609976649284363,
				0.15609973669052124
			],
			"translation":[
				-0.44045236706733704,
				0,
				0.5532170534133911
			]
		},
		{
			"mesh":0,
			"name":"cemaz.062",
			"rotation":[
				0.5259242653846741,
				-0.4726559817790985,
				0.4726559817790985,
				0.5259242653846741
			],
			"scale":[
				0.15609970688819885,
				0.15609973669052124,
				0.15609970688819885
			],
			"translation":[
				-0.42900902032852173,
				0,
				0.8850155472755432
			]
		},
		{
			"mesh":0,
			"name":"cemaz.063",
			"rotation":[
				0.7035311460494995,
				0.07101957499980927,
				-0.07101961225271225,
				0.7035313248634338
			],
			"scale":[
				0.15609969198703766,
				0.15609970688819885,
				0.15609969198703766
			],
			"translation":[
				-0.5424321293830872,
				0,
				-0.8337823748588562
			]
		},
		{
			"mesh":0,
			"name":"cemaz.064",
			"rotation":[
				0.1687302142381668,
				0.6866804957389832,
				-0.6866806149482727,
				0.16873013973236084
			],
			"scale":[
				0.15609969198703766,
				0.15609970688819885,
				0.15609969198703766
			],
			"translation":[
				-0.8280200958251953,
				0,
				-0.2303813099861145
			]
		},
		{
			"mesh":0,
			"name":"cemaz.065",
			"rotation":[
				0.6730984449386597,
				0.21665309369564056,
				-0.21665310859680176,
				0.6730984449386597
			],
			"scale":[
				0.15609970688819885,
				0.15609973669052124,
				0.15609970688819885
			],
			"translation":[
				-0.9296579360961914,
				0,
				-0.052125342190265656
			]
		},
		{
			"mesh":0,
			"name":"cemaz.066",
			"rotation":[
				0.38029980659484863,
				-0.596130907535553,
				0.5961308479309082,
				0.3802998960018158
			],
			"scale":[
				0.15609970688819885,
				0.15609972178936005,
				0.15609970688819885
			],
			"translation":[
				-0.9432098865509033,
				0,
				-0.32209745049476624
			]
		},
		{
			"mesh":0,
			"name":"cemaz.067",
			"rotation":[
				0.005174784455448389,
				-0.7070878148078918,
				0.7070878744125366,
				0.005174809601157904
			],
			"scale":[
				0.15609972178936005,
				0.15609973669052124,
				0.15609972178936005
			],
			"translation":[
				-0.7197064161300659,
				0,
				-0.10864181816577911
			]
		},
		{
			"mesh":0,
			"name":"cemaz.068",
			"rotation":[
				0.16591452062129974,
				-0.6873661875724792,
				0.6873663067817688,
				0.16591456532478333
			],
			"scale":[
				0.15609970688819885,
				0.15609973669052124,
				0.15609972178936005
			],
			"translation":[
				-0.600913941860199,
				0,
				-0.49080055952072144
			]
		},
		{
			"mesh":0,
			"name":"cemaz.069",
			"rotation":[
				0.1467103213071823,
				0.6917197108268738,
				-0.6917195916175842,
				0.14671030640602112
			],
			"scale":[
				0.15609973669052124,
				0.15609973669052124,
				0.15609972178936005
			],
			"translation":[
				-0.7499797344207764,
				0,
				-0.37673044204711914
			]
		},
		{
			"mesh":0,
			"name":"cemaz.070",
			"rotation":[
				0.5466005802154541,
				-0.4485844075679779,
				0.4485843777656555,
				0.5466004610061646
			],
			"scale":[
				0.15609970688819885,
				0.15609972178936005,
				0.15609972178936005
			],
			"translation":[
				-0.5447685122489929,
				0,
				-0.15232998132705688
			]
		},
		{
			"mesh":0,
			"name":"cemaz.071",
			"rotation":[
				0.2484775185585022,
				0.6620113253593445,
				-0.6620112657546997,
				0.24847747385501862
			],
			"scale":[
				0.15609970688819885,
				0.15609973669052124,
				0.15609972178936005
			],
			"translation":[
				-0.9827151894569397,
				0,
				-0.4693562090396881
			]
		},
		{
			"mesh":0,
			"name":"cemaz.072",
			"rotation":[
				0.38192835450172424,
				-0.5950888395309448,
				0.5950888395309448,
				0.38192835450172424
			],
			"scale":[
				0.15609970688819885,
				0.15609973669052124,
				0.15609970688819885
			],
			"translation":[
				-0.4187769293785095,
				0,
				-0.15506932139396667
			]
		},
		{
			"mesh":0,
			"name":"cemaz.073",
			"rotation":[
				0.7063345313072205,
				-0.033037785440683365,
				0.033037811517715454,
				0.7063345909118652
			],
			"scale":[
				0.15609970688819885,
				0.15609970688819885,
				0.15609972178936005
			],
			"translation":[
				-0.04960620403289795,
				0,
				-0.31487464904785156
			]
		},
		{
			"mesh":0,
			"name":"cemaz.074",
			"rotation":[
				0.21036465466022491,
				0.6750902533531189,
				-0.6750901341438293,
				0.21036463975906372
			],
			"scale":[
				0.15609972178936005,
				0.15609973669052124,
				0.15609970688819885
			],
			"translation":[
				-0.274722158908844,
				0,
				-0.22469013929367065
			]
		},
		{
			"mesh":0,
			"name":"cemaz.075",
			"rotation":[
				0.019841549918055534,
				0.7068283557891846,
				-0.7068284153938293,
				0.019841523841023445
			],
			"scale":[
				0.15609973669052124,
				0.15609976649284363,
				0.15609972178936005
			],
			"translation":[
				-0.3312199115753174,
				0,
				-0.05066809058189392
			]
		},
		{
			"mesh":0,
			"name":"cemaz.076",
			"rotation":[
				0.5342264771461487,
				0.4632517099380493,
				-0.4632515609264374,
				0.5342264771461487
			],
			"scale":[
				0.15609973669052124,
				0.15609973669052124,
				0.15609972178936005
			],
			"translation":[
				0.07818207144737244,
				0,
				-0.8879933953285217
			]
		},
		{
			"mesh":0,
			"name":"cemaz.077",
			"rotation":[
				0.1692388653755188,
				0.6865553259849548,
				-0.6865553259849548,
				0.1692388504743576
			],
			"scale":[
				0.15609973669052124,
				0.15609973669052124,
				0.15609972178936005
			],
			"translation":[
				0.1920015513896942,
				0,
				-0.6006143689155579
			]
		},
		{
			"mesh":0,
			"name":"cemaz.078",
			"rotation":[
				0.7015320062637329,
				0.08861619234085083,
				-0.08861616253852844,
				0.7015320658683777
			],
			"scale":[
				0.15609972178936005,
				0.15609973669052124,
				0.15609970688819885
			],
			"translation":[
				0.31620872020721436,
				0,
				-1.0282421112060547
			]
		},
		{
			"mesh":0,
			"name":"cemaz.079",
			"rotation":[
				0.3867160677909851,
				0.5919888019561768,
				-0.591988742351532,
				0.3867160975933075
			],
			"scale":[
				0.15609972178936005,
				0.15609972178936005,
				0.15609972178936005
			],
			"translation":[
				0.20176216959953308,
				0,
				-0.9231215715408325
			]
		},
		{
			"mesh":0,
			"name":"cemaz.080",
			"rotation":[
				0.3255854845046997,
				-0.6276894807815552,
				0.6276895999908447,
				0.3255855143070221
			],
			"scale":[
				0.15609970688819885,
				0.15609970688819885,
				0.15609970688819885
			],
			"translation":[
				0.28895696997642517,
				0,
				-0.6345751881599426
			]
		},
		{
			"mesh":0,
			"name":"cemaz.081",
			"rotation":[
				0.2045363187789917,
				-0.6768788695335388,
				0.6768786907196045,
				0.20453643798828125
			],
			"scale":[
				0.15609967708587646,
				0.15609970688819885,
				0.15609969198703766
			],
			"translation":[
				0.019735386595129967,
				0,
				-0.4457831084728241
			]
		},
		{
			"mesh":0,
			"name":"cemaz.082",
			"rotation":[
				0.3055928945541382,
				0.6376620531082153,
				-0.6376621723175049,
				0.3055928647518158
			],
			"scale":[
				0.15609970688819885,
				0.15609970688819885,
				0.15609969198703766
			],
			"translation":[
				0.05032869055867195,
				0,
				-0.14945217967033386
			]
		},
		{
			"mesh":0,
			"name":"cemaz.083",
			"rotation":[
				0.6523579359054565,
				-0.27281707525253296,
				0.27281707525253296,
				0.6523578763008118
			],
			"scale":[
				0.15609969198703766,
				0.15609972178936005,
				0.15609970688819885
			],
			"translation":[
				0.29061347246170044,
				0,
				-0.2858237028121948
			]
		},
		{
			"mesh":0,
			"name":"cemaz.084",
			"rotation":[
				0.6173710823059082,
				0.34475064277648926,
				-0.3447505235671997,
				0.617371141910553
			],
			"scale":[
				0.15609973669052124,
				0.15609973669052124,
				0.15609972178936005
			],
			"translation":[
				0.5539276599884033,
				0,
				-0.18872356414794922
			]
		},
		{
			"mesh":0,
			"name":"cemaz.085",
			"rotation":[
				0.30867284536361694,
				0.6361769437789917,
				-0.6361769437789917,
				0.30867278575897217
			],
			"scale":[
				0.15609970688819885,
				0.15609970688819885,
				0.15609970688819885
			],
			"translation":[
				0.5509693026542664,
				0,
				-0.020919356495141983
			]
		},
		{
			"mesh":0,
			"name":"cemaz.086",
			"rotation":[
				0.5434125661849976,
				0.45244091749191284,
				-0.45244094729423523,
				0.5434125661849976
			],
			"scale":[
				0.15609970688819885,
				0.15609972178936005,
				0.15609970688819885
			],
			"translation":[
				0.42595672607421875,
				0,
				-0.27604013681411743
			]
		},
		{
			"mesh":0,
			"name":"cemaz.087",
			"rotation":[
				0.11554519087076187,
				0.6976025700569153,
				-0.6976025104522705,
				0.11554516106843948
			],
			"scale":[
				0.15609970688819885,
				0.15609972178936005,
				0.15609970688819885
			],
			"translation":[
				0.6995441317558289,
				0,
				-0.07018494606018066
			]
		}
	],
	"materials":[
		{
			"alphaMode":"BLEND",
			"doubleSided":true,
			"name":"cemaz_list",
			"pbrMetallicRoughness":{
				"baseColorTexture":{
					"index":0
				},
				"metallicFactor":0
			}
		},
		{
			"doubleSided":true,
			"name":"Material.001",
			"pbrMetallicRoughness":{
				"baseColorFactor":[
					0.9819421768188477,
					1,
					0.942684531211853,
					1
				],
				"metallicFactor":0,
				"roughnessFactor":0.5
			}
		},
		{
			"doubleSided":true,
			"name":"Material.002",
			"pbrMetallicRoughness":{
				"baseColorFactor":[
					0.2599135935306549,
					0.4898499846458435,
					0.01308590080589056,
					1
				],
				"metallicFactor":0,
				"roughnessFactor":0.5
			}
		},
		{
			"alphaMode":"BLEND",
			"doubleSided":true,
			"name":"cemaz_cvet",
			"pbrMetallicRoughness":{
				"baseColorTexture":{
					"index":1
				},
				"metallicFactor":0,
				"roughnessFactor":0.5
			}
		},
		{
			"alphaMode":"BLEND",
			"doubleSided":true,
			"name":"2ab11311-9020-476e-adce-2d6f4f832ffa",
			"pbrMetallicRoughness":{
				"baseColorTexture":{
					"index":2
				},
				"metallicFactor":0
			}
		}
	],
	"meshes":[
		{
			"name":"cemaz_list",
			"primitives":[
				{
					"attributes":{
						"POSITION":0,
						"NORMAL":1,
						"TEXCOORD_0":2,
						"TEXCOORD_1":3,
						"TEXCOORD_2":4,
						"COLOR_0":5,
						"COLOR_1":6
					},
					"indices":7,
					"material":0
				},
				{
					"attributes":{
						"POSITION":8,
						"NORMAL":9,
						"TEXCOORD_0":10,
						"TEXCOORD_1":11,
						"TEXCOORD_2":12,
						"COLOR_0":13,
						"COLOR_1":14
					},
					"indices":15,
					"material":1
				},
				{
					"attributes":{
						"POSITION":16,
						"NORMAL":17,
						"TEXCOORD_0":18,
						"TEXCOORD_1":19,
						"TEXCOORD_2":20,
						"COLOR_0":21,
						"COLOR_1":22
					},
					"indices":23,
					"material":2
				},
				{
					"attributes":{
						"POSITION":24,
						"NORMAL":25,
						"TEXCOORD_0":26,
						"TEXCOORD_1":27,
						"TEXCOORD_2":28,
						"COLOR_0":29,
						"COLOR_1":30
					},
					"indices":31,
					"material":3
				},
				{
					"attributes":{
						"POSITION":32,
						"NORMAL":33,
						"TEXCOORD_0":34,
						"TEXCOORD_1":35,
						"TEXCOORD_2":36,
						"COLOR_0":37,
						"COLOR_1":38
					},
					"indices":39,
					"material":4
				}
			]
		}
	],
	"textures":[
		{
			"sampler":0,
			"source":0
		},
		{
			"sampler":0,
			"source":1
		},
		{
			"sampler":0,
			"source":2
		}
	],
	"images":[
		{
			"mimeType":"image/png",
			"name":"cemaz_list.png",
			"uri":"cemaz_list_png.png"
		},
		{
			"mimeType":"image/png",
			"name":"cemaz_cvet",
			"uri":"cemaz_cvet.png"
		},
		{
			"mimeType":"image/png",
			"name":"2ab11311-9020-476e-adce-2d6f4f832ffa",
			"uri":"2ab11311-9020-476e-adce-2d6f4f832ffa.png"
		}
	],
	"accessors":[
		{
			"bufferView":0,
			"componentType":5126,
			"count":75,
			"max":[
				0.765889048576355,
				0.9933617115020752,
				-0.25079345703125
			],
			"min":[
				-1.01546311378479,
				-0.8572264909744263,
				-0.7873916029930115
			],
			"type":"VEC3"
		},
		{
			"bufferView":1,
			"componentType":5126,
			"count":75,
			"type":"VEC3"
		},
		{
			"bufferView":2,
			"componentType":5126,
			"count":75,
			"type":"VEC2"
		},
		{
			"bufferView":3,
			"componentType":5126,
			"count":75,
			"type":"VEC2"
		},
		{
			"bufferView":4,
			"componentType":5126,
			"count":75,
			"type":"VEC2"
		},
		{
			"bufferView":5,
			"componentType":5121,
			"count":75,
			"normalized":true,
			"type":"VEC4"
		},
		{
			"bufferView":6,
			"componentType":5123,
			"count":75,
			"normalized":true,
			"type":"VEC4"
		},
		{
			"bufferView":7,
			"componentType":5123,
			"count":288,
			"type":"SCALAR"
		},
		{
			"bufferView":8,
			"componentType":5126,
			"count":1800,
			"max":[
				0.15482062101364136,
				0.18490582704544067,
				-0.9819210171699524
			],
			"min":[
				-0.2505895495414734,
				-0.21962189674377441,
				-1.1724480390548706
			],
			"type":"VEC3"
		},
		{
			"bufferView":9,
			"componentType":5126,
			"count":1800,
			"type":"VEC3"
		},
		{
			"bufferView":10,
			"componentType":5126,
			"count":1800,
			"type":"VEC2"
		},
		{
			"bufferView":11,
			"componentType":5126,
			"count":1800,
			"type":"VEC2"
		},
		{
			"bufferView":12,
			"componentType":5126,
			"count":1800,
			"type":"VEC2"
		},
		{
			"bufferView":13,
			"componentType":5121,
			"count":1800,
			"normalized":true,
			"type":"VEC4"
		},
		{
			"bufferView":14,
			"componentType":5123,
			"count":1800,
			"normalized":true,
			"type":"VEC4"
		},
		{
			"bufferView":15,
			"componentType":5123,
			"count":7776,
			"type":"SCALAR"
		},
		{
			"bufferView":16,
			"componentType":5126,
			"count":1116,
			"max":[
				0.12736105918884277,
				0.15780246257781982,
				-0.9957110285758972
			],
			"min":[
				-0.2237342894077301,
				-0.1920783519744873,
				-1.145767092704773
			],
			"type":"VEC3"
		},
		{
			"bufferView":17,
			"componentType":5126,
			"count":1116,
			"type":"VEC3"
		},
		{
			"bufferView":18,
			"componentType":5126,
			"count":1116,
			"type":"VEC2"
		},
		{
			"bufferView":19,
			"componentType":5126,
			"count":1116,
			"type":"VEC2"
		},
		{
			"bufferView":20,
			"componentType":5126,
			"count":1116,
			"type":"VEC2"
		},
		{
			"bufferView":21,
			"componentType":5121,
			"count":1116,
			"normalized":true,
			"type":"VEC4"
		},
		{
			"bufferView":22,
			"componentType":5123,
			"count":1116,
			"normalized":true,
			"type":"VEC4"
		},
		{
			"bufferView":23,
			"componentType":5123,
			"count":4320,
			"type":"SCALAR"
		},
		{
			"bufferView":24,
			"componentType":5126,
			"count":48,
			"max":[
				0.16704198718070984,
				0.2229122519493103,
				-0.9052020311355591
			],
			"min":[
				-0.25571638345718384,
				-0.23241770267486572,
				-1.1785625219345093
			],
			"type":"VEC3"
		},
		{
			"bufferView":25,
			"componentType":5126,
			"count":48,
			"type":"VEC3"
		},
		{
			"bufferView":26,
			"componentType":5126,
			"count":48,
			"type":"VEC2"
		},
		{
			"bufferView":27,
			"componentType":5126,
			"count":48,
			"type":"VEC2"
		},
		{
			"bufferView":28,
			"componentType":5126,
			"count":48,
			"type":"VEC2"
		},
		{
			"bufferView":29,
			"componentType":5121,
			"count":48,
			"normalized":true,
			"type":"VEC4"
		},
		{
			"bufferView":30,
			"componentType":5123,
			"count":48,
			"normalized":true,
			"type":"VEC4"
		},
		{
			"bufferView":31,
			"componentType":5123,
			"count":72,
			"type":"SCALAR"
		},
		{
			"bufferView":32,
			"componentType":5126,
			"count":805,
			"max":[
				0.12183061242103577,
				0.15081846714019775,
				0.0018185308435931802
			],
			"min":[
				-0.21749843657016754,
				-0.1870262622833252,
				-1.1408071517944336
			],
			"type":"VEC3"
		},
		{
			"bufferView":33,
			"componentType":5126,
			"count":805,
			"type":"VEC3"
		},
		{
			"bufferView":34,
			"componentType":5126,
			"count":805,
			"type":"VEC2"
		},
		{
			"bufferView":35,
			"componentType":5126,
			"count":805,
			"type":"VEC2"
		},
		{
			"bufferView":36,
			"componentType":5126,
			"count":805,
			"type":"VEC2"
		},
		{
			"bufferView":37,
			"componentType":5121,
			"count":805,
			"normalized":true,
			"type":"VEC4"
		},
		{
			"bufferView":38,
			"componentType":5123,
			"count":805,
			"normalized":true,
			"type":"VEC4"
		},
		{
			"bufferView":39,
			"componentType":5123,
			"count":1320,
			"type":"SCALAR"
		}
	],
	"bufferViews":[
		{
			"buffer":0,
			"byteLength":900,
			"byteOffset":0,
			"target":34962
		},
		{
			"buffer":0,
			"byteLength":900,
			"byteOffset":900,
			"target":34962
		},
		{
			"buffer":0,
			"byteLength":600,
			"byteOffset":1800,
			"target":34962
		},
		{
			"buffer":0,
			"byteLength":600,
			"byteOffset":2400,
			"target":34962
		},
		{
			"buffer":0,
			"byteLength":600,
			"byteOffset":3000,
			"target":34962
		},
		{
			"buffer":0,
			"byteLength":300,
			"byteOffset":3600,
			"target":34962
		},
		{
			"buffer":0,
			"byteLength":600,
			"byteOffset":3900,
			"target":34962
		},
		{
			"buffer":0,
			"byteLength":576,
			"byteOffset":4500,
			"target":34963
		},
		{
			"buffer":0,
			"byteLength":21600,
			"byteOffset":5076,
			"target":34962
		},
		{
			"buffer":0,
			"byteLength":21600,
			"byteOffset":26676,
			"target":34962
		},
		{
			"buffer":0,
			"byteLength":14400,
			"byteOffset":48276,
			"target":34962
		},
		{
			"buffer":0,
			"byteLength":14400,
			"byteOffset":62676,
			"target":34962
		},
		{
			"buffer":0,
			"byteLength":14400,
			"byteOffset":77076,
			"target":34962
		},
		{
			"buffer":0,
			"byteLength":7200,
			"byteOffset":91476,
			"target":34962
		},
		{
			"buffer":0,
			"byteLength":14400,
			"byteOffset":98676,
			"target":34962
		},
		{
			"buffer":0,
			"byteLength":15552,
			"byteOffset":113076,
			"target":34963
		},
		{
			"buffer":0,
			"byteLength":13392,
			"byteOffset":128628,
			"target":34962
		},
		{
			"buffer":0,
			"byteLength":13392,
			"byteOffset":142020,
			"target":34962
		},
		{
			"buffer":0,
			"byteLength":8928,
			"byteOffset":155412,
			"target":34962
		},
		{
			"buffer":0,
			"byteLength":8928,
			"byteOffset":164340,
			"target":34962
		},
		{
			"buffer":0,
			"byteLength":8928,
			"byteOffset":173268,
			"target":34962
		},
		{
			"buffer":0,
			"byteLength":4464,
			"byteOffset":182196,
			"target":34962
		},
		{
			"buffer":0,
			"byteLength":8928,
			"byteOffset":186660,
			"target":34962
		},
		{
			"buffer":0,
			"byteLength":8640,
			"byteOffset":195588,
			"target":34963
		},
		{
			"buffer":0,
			"byteLength":576,
			"byteOffset":204228,
			"target":34962
		},
		{
			"buffer":0,
			"byteLength":576,
			"byteOffset":204804,
			"target":34962
		},
		{
			"buffer":0,
			"byteLength":384,
			"byteOffset":205380,
			"target":34962
		},
		{
			"buffer":0,
			"byteLength":384,
			"byteOffset":205764,
			"target":34962
		},
		{
			"buffer":0,
			"byteLength":384,
			"byteOffset":206148,
			"target":34962
		},
		{
			"buffer":0,
			"byteLength":192,
			"byteOffset":206532,
			"target":34962
		},
		{
			"buffer":0,
			"byteLength":384,
			"byteOffset":206724,
			"target":34962
		},
		{
			"buffer":0,
			"byteLength":144,
			"byteOffset":207108,
			"target":34963
		},
		{
			"buffer":0,
			"byteLength":9660,
			"byteOffset":207252,
			"target":34962
		},
		{
			"buffer":0,
			"byteLength":9660,
			"byteOffset":216912,
			"target":34962
		},
		{
			"buffer":0,
			"byteLength":6440,
			"byteOffset":226572,
			"target":34962
		},
		{
			"buffer":0,
			"byteLength":6440,
			"byteOffset":233012,
			"target":34962
		},
		{
			"buffer":0,
			"byteLength":6440,
			"byteOffset":239452,
			"target":34962
		},
		{
			"buffer":0,
			"byteLength":3220,
			"byteOffset":245892,
			"target":34962
		},
		{
			"buffer":0,
			"byteLength":6440,
			"byteOffset":249112,
			"target":34962
		},
		{
			"buffer":0,
			"byteLength":2640,
			"byteOffset":255552,
			"target":34963
		}
	],
	"samplers":[
		{
			"magFilter":9729,
			"minFilter":9987,
			"wrapS":33071,
			"wrapT":33071
		}
	],
	"buffers":[
		{
			"byteLength":258192,
			"uri":"cemaz_lowp_foto.bin"
		}
	]
}
