{
	"asset":{
		"generator":"Khronos glTF Blender I/O v4.3.47",
		"version":"2.0"
	},
	"scene":0,
	"scenes":[
		{
			"name":"Scene",
			"nodes":[
				0,
				1,
				2,
				3,
				4
			]
		}
	],
	"nodes":[
		{
			"mesh":0,
			"name":"og_deblo_veje"
		},
		{
			"mesh":1,
			"name":"dob_novaveja_foto.196",
			"rotation":[
				-0.20703889429569244,
				-0.10136038064956665,
				0.5821548700332642,
				0.7797157764434814
			],
			"scale":[
				0.6374116539955139,
				0.6374116539955139,
				0.6374115943908691
			],
			"translation":[
				4.749987602233887,
				7.5721635818481445,
				-4.152219772338867
			]
		},
		{
			"mesh":2,
			"name":"Sphere.001",
			"rotation":[
				0.035315994173288345,
				0.061534442007541656,
				0.1986694037914276,
				0.9774951338768005
			],
			"scale":[
				0.017269911244511604,
				0.024398477748036385,
				0.017269913107156754
			],
			"translation":[
				3.194761276245117,
				2.5302789211273193,
				-3.507746458053589
			]
		},
		{
			"mesh":3,
			"name":"vejicaa",
			"rotation":[
				0.9450370669364929,
				0.09616408497095108,
				-0.07192759215831757,
				0.3041115403175354
			],
			"scale":[
				-0.1501505821943283,
				-0.10312192142009735,
				-0.04296029359102249
			]
		},
		{
			"mesh":4,
			"name":"dob_novaveja_foto.001",
			"rotation":[
				-0.6154356002807617,
				-0.7802845239639282,
				-0.0548485703766346,
				0.09688514471054077
			],
			"scale":[
				0.6374116539955139,
				0.6374116539955139,
				0.6374115943908691
			],
			"translation":[
				-0.3721866011619568,
				7.9688005447387695,
				-1.5938127040863037
			]
		}
	],
	"materials":[
		{
			"doubleSided":true,
			"name":"Material.003",
			"pbrMetallicRoughness":{
				"baseColorTexture":{
					"index":0
				},
				"metallicFactor":0
			}
		},
		{
			"alphaMode":"BLEND",
			"doubleSided":true,
			"name":"dob_list.001",
			"pbrMetallicRoughness":{
				"baseColorTexture":{
					"index":1
				},
				"metallicFactor":0
			}
		},
		{
			"doubleSided":true,
			"name":"Material.002",
			"pbrMetallicRoughness":{
				"baseColorFactor":[
					0.14147695899009705,
					0.10595016181468964,
					0.053496651351451874,
					1
				],
				"metallicFactor":0
			}
		},
		{
			"doubleSided":true,
			"name":"Material.006",
			"pbrMetallicRoughness":{
				"baseColorFactor":[
					0.2424927055835724,
					0.2768555283546448,
					0.05395181477069855,
					1
				],
				"metallicFactor":0
			}
		},
		{
			"doubleSided":true,
			"name":"Material",
			"pbrMetallicRoughness":{
				"baseColorFactor":[
					0.800000011920929,
					0.800000011920929,
					0.800000011920929,
					1
				],
				"metallicFactor":0,
				"roughnessFactor":0.5
			}
		}
	],
	"meshes":[
		{
			"name":"Plane.002",
			"primitives":[
				{
					"attributes":{
						"POSITION":0,
						"NORMAL":1,
						"TEXCOORD_0":2
					},
					"indices":3,
					"material":0
				}
			]
		},
		{
			"name":"dob_list",
			"primitives":[
				{
					"attributes":{
						"POSITION":4,
						"NORMAL":5,
						"TEXCOORD_0":6
					},
					"indices":7,
					"material":1
				}
			]
		},
		{
			"name":"Sphere.003",
			"primitives":[
				{
					"attributes":{
						"POSITION":8,
						"NORMAL":9,
						"TEXCOORD_0":10
					},
					"indices":11,
					"material":2
				},
				{
					"attributes":{
						"POSITION":12,
						"NORMAL":13,
						"TEXCOORD_0":14
					},
					"indices":15,
					"material":3
				}
			]
		},
		{
			"name":"Plane.001",
			"primitives":[
				{
					"attributes":{
						"POSITION":16,
						"NORMAL":17,
						"TEXCOORD_0":18
					},
					"indices":19,
					"material":4
				}
			]
		},
		{
			"name":"dob_list.001",
			"primitives":[
				{
					"attributes":{
						"POSITION":20,
						"NORMAL":21,
						"TEXCOORD_0":22
					},
					"indices":23,
					"material":1
				}
			]
		}
	],
	"textures":[
		{
			"sampler":0,
			"source":0
		},
		{
			"sampler":1,
			"source":1
		}
	],
	"images":[
		{
			"mimeType":"image/jpeg",
			"name":"dob_koncni_relief-texture-brown-bark-tree-close-up",
			"uri":"dob_koncni_relief-texture-brown-bark-tree-close-up.jpg"
		},
		{
			"mimeType":"image/png",
			"name":"dob_list",
			"uri":"dob_list.png"
		}
	],
	"accessors":[
		{
			"bufferView":0,
			"componentType":5126,
			"count":4746,
			"max":[
				5.7482147216796875,
				13.066449165344238,
				5.092530727386475
			],
			"min":[
				-5.419101238250732,
				-0.13188432157039642,
				-7.411596298217773
			],
			"type":"VEC3"
		},
		{
			"bufferView":1,
			"componentType":5126,
			"count":4746,
			"type":"VEC3"
		},
		{
			"bufferView":2,
			"componentType":5126,
			"count":4746,
			"type":"VEC2"
		},
		{
			"bufferView":3,
			"componentType":5123,
			"count":16134,
			"type":"SCALAR"
		},
		{
			"bufferView":4,
			"componentType":5126,
			"count":232216,
			"max":[
				8.368634223937988,
				14.969861030578613,
				17.595121383666992
			],
			"min":[
				-12.32778263092041,
				-10.192998886108398,
				-6.43587589263916
			],
			"type":"VEC3"
		},
		{
			"bufferView":5,
			"componentType":5126,
			"count":232216,
			"type":"VEC3"
		},
		{
			"bufferView":6,
			"componentType":5126,
			"count":232216,
			"type":"VEC2"
		},
		{
			"bufferView":7,
			"componentType":5125,
			"count":352140,
			"type":"SCALAR"
		},
		{
			"bufferView":8,
			"componentType":5126,
			"count":70,
			"max":[
				0.9749279022216797,
				1,
				0.9749279022216797
			],
			"min":[
				-0.9749279022216797,
				-1,
				-0.9749279022216797
			],
			"type":"VEC3"
		},
		{
			"bufferView":9,
			"componentType":5126,
			"count":70,
			"type":"VEC3"
		},
		{
			"bufferView":10,
			"componentType":5126,
			"count":70,
			"type":"VEC2"
		},
		{
			"bufferView":11,
			"componentType":5123,
			"count":288,
			"type":"SCALAR"
		},
		{
			"bufferView":12,
			"componentType":5126,
			"count":46,
			"max":[
				1.1333045959472656,
				1.0692256689071655,
				1.1333160400390625
			],
			"min":[
				-1.1332969665527344,
				0.10843540728092194,
				-1.1332855224609375
			],
			"type":"VEC3"
		},
		{
			"bufferView":13,
			"componentType":5126,
			"count":46,
			"type":"VEC3"
		},
		{
			"bufferView":14,
			"componentType":5126,
			"count":46,
			"type":"VEC2"
		},
		{
			"bufferView":15,
			"componentType":5123,
			"count":192,
			"type":"SCALAR"
		},
		{
			"bufferView":16,
			"componentType":5126,
			"count":1298,
			"max":[
				6.465448379516602,
				0.6277999877929688,
				47.93876647949219
			],
			"min":[
				-2.8984832763671875,
				-18.736818313598633,
				-3.601583480834961
			],
			"type":"VEC3"
		},
		{
			"bufferView":17,
			"componentType":5126,
			"count":1298,
			"type":"VEC3"
		},
		{
			"bufferView":18,
			"componentType":5126,
			"count":1298,
			"type":"VEC2"
		},
		{
			"bufferView":19,
			"componentType":5123,
			"count":3312,
			"type":"SCALAR"
		},
		{
			"bufferView":20,
			"componentType":5126,
			"count":180912,
			"max":[
				11.447731971740723,
				11.929764747619629,
				10.266996383666992
			],
			"min":[
				-9.858904838562012,
				-13.233094215393066,
				-13.76400089263916
			],
			"type":"VEC3"
		},
		{
			"bufferView":21,
			"componentType":5126,
			"count":180912,
			"type":"VEC3"
		},
		{
			"bufferView":22,
			"componentType":5126,
			"count":180912,
			"type":"VEC2"
		},
		{
			"bufferView":23,
			"componentType":5125,
			"count":274020,
			"type":"SCALAR"
		}
	],
	"bufferViews":[
		{
			"buffer":0,
			"byteLength":56952,
			"byteOffset":0,
			"target":34962
		},
		{
			"buffer":0,
			"byteLength":56952,
			"byteOffset":56952,
			"target":34962
		},
		{
			"buffer":0,
			"byteLength":37968,
			"byteOffset":113904,
			"target":34962
		},
		{
			"buffer":0,
			"byteLength":32268,
			"byteOffset":151872,
			"target":34963
		},
		{
			"buffer":0,
			"byteLength":2786592,
			"byteOffset":184140,
			"target":34962
		},
		{
			"buffer":0,
			"byteLength":2786592,
			"byteOffset":2970732,
			"target":34962
		},
		{
			"buffer":0,
			"byteLength":1857728,
			"byteOffset":5757324,
			"target":34962
		},
		{
			"buffer":0,
			"byteLength":1408560,
			"byteOffset":7615052,
			"target":34963
		},
		{
			"buffer":0,
			"byteLength":840,
			"byteOffset":9023612,
			"target":34962
		},
		{
			"buffer":0,
			"byteLength":840,
			"byteOffset":9024452,
			"target":34962
		},
		{
			"buffer":0,
			"byteLength":560,
			"byteOffset":9025292,
			"target":34962
		},
		{
			"buffer":0,
			"byteLength":576,
			"byteOffset":9025852,
			"target":34963
		},
		{
			"buffer":0,
			"byteLength":552,
			"byteOffset":9026428,
			"target":34962
		},
		{
			"buffer":0,
			"byteLength":552,
			"byteOffset":9026980,
			"target":34962
		},
		{
			"buffer":0,
			"byteLength":368,
			"byteOffset":9027532,
			"target":34962
		},
		{
			"buffer":0,
			"byteLength":384,
			"byteOffset":9027900,
			"target":34963
		},
		{
			"buffer":0,
			"byteLength":15576,
			"byteOffset":9028284,
			"target":34962
		},
		{
			"buffer":0,
			"byteLength":15576,
			"byteOffset":9043860,
			"target":34962
		},
		{
			"buffer":0,
			"byteLength":10384,
			"byteOffset":9059436,
			"target":34962
		},
		{
			"buffer":0,
			"byteLength":6624,
			"byteOffset":9069820,
			"target":34963
		},
		{
			"buffer":0,
			"byteLength":2170944,
			"byteOffset":9076444,
			"target":34962
		},
		{
			"buffer":0,
			"byteLength":2170944,
			"byteOffset":11247388,
			"target":34962
		},
		{
			"buffer":0,
			"byteLength":1447296,
			"byteOffset":13418332,
			"target":34962
		},
		{
			"buffer":0,
			"byteLength":1096080,
			"byteOffset":14865628,
			"target":34963
		}
	],
	"samplers":[
		{
			"magFilter":9729,
			"minFilter":9987
		},
		{
			"magFilter":9729,
			"minFilter":9987,
			"wrapS":33071,
			"wrapT":33071
		}
	],
	"buffers":[
		{
			"byteLength":15961708,
			"uri":"dob_koncni_siv_foto2.bin"
		}
	]
}
