{
	"asset":{
		"generator":"Khronos glTF Blender I/O v4.3.47",
		"version":"2.0"
	},
	"scene":0,
	"scenes":[
		{
			"name":"Scene",
			"nodes":[
				0,
				1,
				2,
				3,
				4,
				5
			]
		}
	],
	"nodes":[
		{
			"mesh":0,
			"name":"og_deblo_veje"
		},
		{
			"mesh":1,
			"name":"dob_novaveja_foto.196"
		},
		{
			"mesh":2,
			"name":"dob_novaveja_foto.1002"
		},
		{
			"mesh":3,
			"name":"dob_novaveja_foto.1004",
			"rotation":[
				0.8023957014083862,
				0.26102307438850403,
				-0.4488750100135803,
				0.2941757142543793
			],
			"scale":[
				1.033331036567688,
				1.033331036567688,
				1.033331036567688
			],
			"translation":[
				7.306469917297363,
				1.2816884517669678,
				0.00027233362197875977
			]
		},
		{
			"mesh":4,
			"name":"dob_novaveja_foto.1003",
			"rotation":[
				0.8795707821846008,
				-0.03134026750922203,
				0.267736554145813,
				0.3920333683490753
			],
			"scale":[
				1.033331036567688,
				1.033331036567688,
				1.033331036567688
			],
			"translation":[
				4.0545735359191895,
				6.647426128387451,
				0.14513075351715088
			]
		},
		{
			"mesh":5,
			"name":"dob_novaveja_foto.1005",
			"rotation":[
				0.8795707821846008,
				-0.03134026750922203,
				0.267736554145813,
				0.3920333683490753
			],
			"scale":[
				1.033331036567688,
				1.033331036567688,
				1.033331036567688
			],
			"translation":[
				3.28725266456604,
				4.7543110847473145,
				0.14047259092330933
			]
		}
	],
	"materials":[
		{
			"doubleSided":true,
			"name":"Material.003",
			"pbrMetallicRoughness":{
				"baseColorTexture":{
					"index":0
				},
				"metallicFactor":0
			}
		},
		{
			"alphaMode":"BLEND",
			"doubleSided":true,
			"name":"dob_list.001",
			"pbrMetallicRoughness":{
				"baseColorTexture":{
					"index":1
				},
				"metallicFactor":0
			}
		}
	],
	"meshes":[
		{
			"name":"Plane.002",
			"primitives":[
				{
					"attributes":{
						"POSITION":0,
						"NORMAL":1,
						"TEXCOORD_0":2
					},
					"indices":3,
					"material":0
				}
			]
		},
		{
			"name":"dob_list.001",
			"primitives":[
				{
					"attributes":{
						"POSITION":4,
						"NORMAL":5,
						"TEXCOORD_0":6
					},
					"indices":7,
					"material":1
				}
			]
		},
		{
			"name":"dob_list.002",
			"primitives":[
				{
					"attributes":{
						"POSITION":8,
						"NORMAL":9,
						"TEXCOORD_0":10
					},
					"indices":11,
					"material":1
				}
			]
		},
		{
			"name":"dob_list.004",
			"primitives":[
				{
					"attributes":{
						"POSITION":12,
						"NORMAL":13,
						"TEXCOORD_0":14
					},
					"indices":15,
					"material":1
				}
			]
		},
		{
			"name":"dob_list.006",
			"primitives":[
				{
					"attributes":{
						"POSITION":16,
						"NORMAL":17,
						"TEXCOORD_0":18
					},
					"indices":15,
					"material":1
				}
			]
		},
		{
			"name":"dob_list.007",
			"primitives":[
				{
					"attributes":{
						"POSITION":19,
						"NORMAL":20,
						"TEXCOORD_0":21
					},
					"indices":15,
					"material":1
				}
			]
		}
	],
	"textures":[
		{
			"sampler":0,
			"source":0
		},
		{
			"sampler":1,
			"source":1
		}
	],
	"images":[
		{
			"mimeType":"image/jpeg",
			"name":"dob_koncni_relief-texture-brown-bark-tree-close-up",
			"uri":"dob_koncni_relief-texture-brown-bark-tree-close-up.jpg"
		},
		{
			"mimeType":"image/png",
			"name":"dob_list",
			"uri":"dob_list.png"
		}
	],
	"accessors":[
		{
			"bufferView":0,
			"componentType":5126,
			"count":4746,
			"max":[
				5.7482147216796875,
				13.16100025177002,
				5.092530727386475
			],
			"min":[
				-5.419101238250732,
				-0.03733323514461517,
				-7.411596298217773
			],
			"type":"VEC3"
		},
		{
			"bufferView":1,
			"componentType":5126,
			"count":4746,
			"type":"VEC3"
		},
		{
			"bufferView":2,
			"componentType":5126,
			"count":4746,
			"type":"VEC2"
		},
		{
			"bufferView":3,
			"componentType":5123,
			"count":16134,
			"type":"SCALAR"
		},
		{
			"bufferView":4,
			"componentType":5126,
			"count":227180,
			"max":[
				7.3305463790893555,
				15.266130447387695,
				7.01057767868042
			],
			"min":[
				-8.207670211791992,
				2.0113463401794434,
				-8.507111549377441
			],
			"type":"VEC3"
		},
		{
			"bufferView":5,
			"componentType":5126,
			"count":227180,
			"type":"VEC3"
		},
		{
			"bufferView":6,
			"componentType":5126,
			"count":227180,
			"type":"VEC2"
		},
		{
			"bufferView":7,
			"componentType":5125,
			"count":340770,
			"type":"SCALAR"
		},
		{
			"bufferView":8,
			"componentType":5126,
			"count":226688,
			"max":[
				6.3888773918151855,
				14.679479598999023,
				8.065449714660645
			],
			"min":[
				-7.8965044021606445,
				2.0370707511901855,
				-6.953738689422607
			],
			"type":"VEC3"
		},
		{
			"bufferView":9,
			"componentType":5126,
			"count":226688,
			"type":"VEC3"
		},
		{
			"bufferView":10,
			"componentType":5126,
			"count":226688,
			"type":"VEC2"
		},
		{
			"bufferView":11,
			"componentType":5125,
			"count":340032,
			"type":"SCALAR"
		},
		{
			"bufferView":12,
			"componentType":5126,
			"count":5460,
			"max":[
				-0.45653367042541504,
				-6.849203109741211,
				6.6605634689331055
			],
			"min":[
				-6.795828342437744,
				-13.446639060974121,
				0.7594830989837646
			],
			"type":"VEC3"
		},
		{
			"bufferView":13,
			"componentType":5126,
			"count":5460,
			"type":"VEC3"
		},
		{
			"bufferView":14,
			"componentType":5126,
			"count":5460,
			"type":"VEC2"
		},
		{
			"bufferView":15,
			"componentType":5123,
			"count":8190,
			"type":"SCALAR"
		},
		{
			"bufferView":16,
			"componentType":5126,
			"count":5460,
			"max":[
				3.1224703788757324,
				2.7261085510253906,
				2.023590564727783
			],
			"min":[
				-3.2168242931365967,
				-3.8713274002075195,
				-3.8774898052215576
			],
			"type":"VEC3"
		},
		{
			"bufferView":17,
			"componentType":5126,
			"count":5460,
			"type":"VEC3"
		},
		{
			"bufferView":18,
			"componentType":5126,
			"count":5460,
			"type":"VEC2"
		},
		{
			"bufferView":19,
			"componentType":5126,
			"count":5460,
			"max":[
				3.1224703788757324,
				2.7261085510253906,
				2.023590564727783
			],
			"min":[
				-3.2168242931365967,
				-3.8713274002075195,
				-3.8774898052215576
			],
			"type":"VEC3"
		},
		{
			"bufferView":20,
			"componentType":5126,
			"count":5460,
			"type":"VEC3"
		},
		{
			"bufferView":21,
			"componentType":5126,
			"count":5460,
			"type":"VEC2"
		}
	],
	"bufferViews":[
		{
			"buffer":0,
			"byteLength":56952,
			"byteOffset":0,
			"target":34962
		},
		{
			"buffer":0,
			"byteLength":56952,
			"byteOffset":56952,
			"target":34962
		},
		{
			"buffer":0,
			"byteLength":37968,
			"byteOffset":113904,
			"target":34962
		},
		{
			"buffer":0,
			"byteLength":32268,
			"byteOffset":151872,
			"target":34963
		},
		{
			"buffer":0,
			"byteLength":2726160,
			"byteOffset":184140,
			"target":34962
		},
		{
			"buffer":0,
			"byteLength":2726160,
			"byteOffset":2910300,
			"target":34962
		},
		{
			"buffer":0,
			"byteLength":1817440,
			"byteOffset":5636460,
			"target":34962
		},
		{
			"buffer":0,
			"byteLength":1363080,
			"byteOffset":7453900,
			"target":34963
		},
		{
			"buffer":0,
			"byteLength":2720256,
			"byteOffset":8816980,
			"target":34962
		},
		{
			"buffer":0,
			"byteLength":2720256,
			"byteOffset":11537236,
			"target":34962
		},
		{
			"buffer":0,
			"byteLength":1813504,
			"byteOffset":14257492,
			"target":34962
		},
		{
			"buffer":0,
			"byteLength":1360128,
			"byteOffset":16070996,
			"target":34963
		},
		{
			"buffer":0,
			"byteLength":65520,
			"byteOffset":17431124,
			"target":34962
		},
		{
			"buffer":0,
			"byteLength":65520,
			"byteOffset":17496644,
			"target":34962
		},
		{
			"buffer":0,
			"byteLength":43680,
			"byteOffset":17562164,
			"target":34962
		},
		{
			"buffer":0,
			"byteLength":16380,
			"byteOffset":17605844,
			"target":34963
		},
		{
			"buffer":0,
			"byteLength":65520,
			"byteOffset":17622224,
			"target":34962
		},
		{
			"buffer":0,
			"byteLength":65520,
			"byteOffset":17687744,
			"target":34962
		},
		{
			"buffer":0,
			"byteLength":43680,
			"byteOffset":17753264,
			"target":34962
		},
		{
			"buffer":0,
			"byteLength":65520,
			"byteOffset":17796944,
			"target":34962
		},
		{
			"buffer":0,
			"byteLength":65520,
			"byteOffset":17862464,
			"target":34962
		},
		{
			"buffer":0,
			"byteLength":43680,
			"byteOffset":17927984,
			"target":34962
		}
	],
	"samplers":[
		{
			"magFilter":9729,
			"minFilter":9987
		},
		{
			"magFilter":9729,
			"minFilter":9987,
			"wrapS":33071,
			"wrapT":33071
		}
	],
	"buffers":[
		{
			"byteLength":17971664,
			"uri":"dob_koncni.bin"
		}
	]
}
