{
	"asset":{
		"generator":"Khronos glTF Blender I/O v4.3.47",
		"version":"2.0"
	},
	"scene":0,
	"scenes":[
		{
			"name":"Scene",
			"nodes":[
				0,
				1
			]
		}
	],
	"nodes":[
		{
			"mesh":0,
			"name":"og_deblo_veje",
			"scale":[
				2.1777098178863525,
				2.1777098178863525,
				2.1777098178863525
			],
			"translation":[
				0,
				0,
				-0.17688989639282227
			]
		},
		{
			"mesh":1,
			"name":"bitmap.444",
			"translation":[
				0,
				0.8418762683868408,
				0
			]
		}
	],
	"materials":[
		{
			"doubleSided":true,
			"name":"Material.003",
			"pbrMetallicRoughness":{
				"baseColorTexture":{
					"index":0
				},
				"metallicFactor":0
			}
		},
		{
			"alphaMode":"BLEND",
			"doubleSided":true,
			"name":"bitmap",
			"pbrMetallicRoughness":{
				"baseColorTexture":{
					"index":1
				},
				"metallicFactor":0
			}
		}
	],
	"meshes":[
		{
			"name":"Plane.002",
			"primitives":[
				{
					"attributes":{
						"POSITION":0,
						"NORMAL":1,
						"TEXCOORD_0":2
					},
					"indices":3,
					"material":0
				}
			]
		},
		{
			"name":"bitmap.001",
			"primitives":[
				{
					"attributes":{
						"POSITION":4,
						"NORMAL":5,
						"TEXCOORD_0":6
					},
					"indices":7,
					"material":1
				}
			]
		}
	],
	"textures":[
		{
			"sampler":0,
			"source":0
		},
		{
			"sampler":1,
			"source":1
		}
	],
	"images":[
		{
			"mimeType":"image/jpeg",
			"name":"dob_koncni_relief-texture-brown-bark-tree-close-up",
			"uri":"dob_koncni_relief-texture-brown-bark-tree-close-up.jpg"
		},
		{
			"mimeType":"image/png",
			"name":"bitmap",
			"uri":"bitmap.png"
		}
	],
	"accessors":[
		{
			"bufferView":0,
			"componentType":5126,
			"count":1657,
			"max":[
				2.6716339588165283,
				6.0401105880737305,
				2.434011459350586
			],
			"min":[
				-2.518587112426758,
				-0.08249032497406006,
				-3.3663442134857178
			],
			"type":"VEC3"
		},
		{
			"bufferView":1,
			"componentType":5126,
			"count":1657,
			"type":"VEC3"
		},
		{
			"bufferView":2,
			"componentType":5126,
			"count":1657,
			"type":"VEC2"
		},
		{
			"bufferView":3,
			"componentType":5123,
			"count":3945,
			"type":"SCALAR"
		},
		{
			"bufferView":4,
			"componentType":5126,
			"count":44928,
			"max":[
				7.60398006439209,
				15.351912498474121,
				7.676745891571045
			],
			"min":[
				-7.029046058654785,
				0.280972957611084,
				-9.025836944580078
			],
			"type":"VEC3"
		},
		{
			"bufferView":5,
			"componentType":5126,
			"count":44928,
			"type":"VEC3"
		},
		{
			"bufferView":6,
			"componentType":5126,
			"count":44928,
			"type":"VEC2"
		},
		{
			"bufferView":7,
			"componentType":5123,
			"count":67392,
			"type":"SCALAR"
		}
	],
	"bufferViews":[
		{
			"buffer":0,
			"byteLength":19884,
			"byteOffset":0,
			"target":34962
		},
		{
			"buffer":0,
			"byteLength":19884,
			"byteOffset":19884,
			"target":34962
		},
		{
			"buffer":0,
			"byteLength":13256,
			"byteOffset":39768,
			"target":34962
		},
		{
			"buffer":0,
			"byteLength":7890,
			"byteOffset":53024,
			"target":34963
		},
		{
			"buffer":0,
			"byteLength":539136,
			"byteOffset":60916,
			"target":34962
		},
		{
			"buffer":0,
			"byteLength":539136,
			"byteOffset":600052,
			"target":34962
		},
		{
			"buffer":0,
			"byteLength":359424,
			"byteOffset":1139188,
			"target":34962
		},
		{
			"buffer":0,
			"byteLength":134784,
			"byteOffset":1498612,
			"target":34963
		}
	],
	"samplers":[
		{
			"magFilter":9729,
			"minFilter":9987
		},
		{
			"magFilter":9728,
			"minFilter":9984,
			"wrapS":33071,
			"wrapT":33071
		}
	],
	"buffers":[
		{
			"byteLength":1633396,
			"uri":"dob_koncni_siv.bin"
		}
	]
}
