{
	"asset":{
		"generator":"Khronos glTF Blender I/O v4.3.47",
		"version":"2.0"
	},
	"scene":0,
	"scenes":[
		{
			"name":"Scene",
			"nodes":[
				0,
				1,
				2,
				3,
				4,
				5,
				6,
				7,
				8,
				9,
				10,
				11,
				12,
				13,
				14,
				15,
				16,
				17,
				18,
				19,
				20,
				21
			]
		}
	],
	"nodes":[
		{
			"mesh":0,
			"name":"jesenskipodlesek_list.001",
			"rotation":[
				0.6291829943656921,
				-0.322689950466156,
				0.3226899802684784,
				0.6291829943656921
			],
			"scale":[
				0.8203187584877014,
				0.8203187584877014,
				1.2268472909927368
			],
			"translation":[
				-0.7100763320922852,
				0,
				-1.2186691761016846
			]
		},
		{
			"mesh":0,
			"name":"jesenskipodlesek_list.002",
			"rotation":[
				0.6558763384819031,
				-0.2642468512058258,
				0.2642469108104706,
				0.6558761596679688
			],
			"scale":[
				0.7048307061195374,
				0.7048307061195374,
				1.0541263818740845
			],
			"translation":[
				2.189573049545288,
				0,
				-1.582802653312683
			]
		},
		{
			"mesh":0,
			"name":"jesenskipodlesek_list.003",
			"rotation":[
				0.6429578065872192,
				0.294287770986557,
				-0.2942877411842346,
				0.6429578065872192
			],
			"scale":[
				0.7262105941772461,
				0.7262105941772461,
				1.0861015319824219
			],
			"translation":[
				3.275423765182495,
				0,
				-2.352281093597412
			]
		},
		{
			"mesh":0,
			"name":"jesenskipodlesek_list.005",
			"rotation":[
				0.7040525078773499,
				-0.06565150618553162,
				0.065651535987854,
				0.7040524482727051
			],
			"scale":[
				0.817143976688385,
				0.817143976688385,
				1.2220991849899292
			],
			"translation":[
				3.878274917602539,
				0,
				1.1829842329025269
			]
		},
		{
			"mesh":0,
			"name":"jesenskipodlesek_list.006",
			"rotation":[
				0.399709016084671,
				-0.583294689655304,
				0.5832945704460144,
				0.39970913529396057
			],
			"scale":[
				0.7791798710823059,
				0.7791798710823059,
				1.1653211116790771
			],
			"translation":[
				3.443873405456543,
				0,
				-4.345837116241455
			]
		},
		{
			"mesh":0,
			"name":"jesenskipodlesek_list.007",
			"rotation":[
				0.6862843632698059,
				0.17033421993255615,
				-0.17033420503139496,
				0.6862844228744507
			],
			"scale":[
				0.829839289188385,
				0.829839289188385,
				1.2410858869552612
			],
			"translation":[
				-0.1992979794740677,
				0,
				1.1553843021392822
			]
		},
		{
			"mesh":0,
			"name":"jesenskipodlesek_list.008",
			"rotation":[
				0.1680460274219513,
				0.6868483424186707,
				-0.6868482828140259,
				0.1680460125207901
			],
			"scale":[
				0.733953058719635,
				0.733953058719635,
				1.097680926322937
			],
			"translation":[
				1.0773930549621582,
				0,
				-0.22426381707191467
			]
		},
		{
			"mesh":0,
			"name":"jesenskipodlesek_list.009",
			"rotation":[
				0.37802743911743164,
				-0.5975744724273682,
				0.5975744724273682,
				0.37802746891975403
			],
			"scale":[
				0.699802577495575,
				0.699802577495575,
				1.046606421470642
			],
			"translation":[
				1.2041703462600708,
				0,
				4.6030168533325195
			]
		},
		{
			"mesh":0,
			"name":"jesenskipodlesek_list.010",
			"rotation":[
				0.7063870429992676,
				0.03189588710665703,
				-0.03189586475491524,
				0.7063870429992676
			],
			"scale":[
				0.7453746199607849,
				0.7453746199607849,
				1.114762783050537
			],
			"translation":[
				4.595842361450195,
				0,
				-0.9496562480926514
			]
		},
		{
			"mesh":0,
			"name":"jesenskipodlesek_list.011",
			"rotation":[
				0.46220946311950684,
				-0.5351285338401794,
				0.5351284146308899,
				0.462209552526474
			],
			"scale":[
				0.8103874921798706,
				0.8103874921798706,
				1.2119942903518677
			],
			"translation":[
				1.9559146165847778,
				0,
				1.3842830657958984
			]
		},
		{
			"mesh":0,
			"name":"jesenskipodlesek_list.012",
			"rotation":[
				0.3094405233860016,
				-0.6358038783073425,
				0.6358038783073425,
				0.309440553188324
			],
			"scale":[
				0.7731819748878479,
				0.7731819748878479,
				1.1563507318496704
			],
			"translation":[
				-3.6636264324188232,
				0,
				0.7548239231109619
			]
		},
		{
			"mesh":0,
			"name":"jesenskipodlesek_list.013",
			"rotation":[
				0.6769664287567139,
				0.20424605906009674,
				-0.20424605906009674,
				0.6769664287567139
			],
			"scale":[
				0.7164157032966614,
				0.7164157032966614,
				1.0714526176452637
			],
			"translation":[
				0.6159238815307617,
				0,
				2.847395896911621
			]
		},
		{
			"mesh":0,
			"name":"jesenskipodlesek_list.014",
			"rotation":[
				0.5341679453849792,
				0.46331915259361267,
				-0.46331918239593506,
				0.5341679453849792
			],
			"scale":[
				0.7438575625419617,
				0.7438575625419617,
				1.112493872642517
			],
			"translation":[
				2.621403217315674,
				0,
				3.305727958679199
			]
		},
		{
			"mesh":0,
			"name":"jesenskipodlesek_list.015",
			"rotation":[
				0.5902310609817505,
				-0.38939371705055237,
				0.38939377665519714,
				0.5902308821678162
			],
			"scale":[
				0.7517576813697815,
				0.7517576813697815,
				1.1243090629577637
			],
			"translation":[
				-4.050872802734375,
				0,
				-3.2476744651794434
			]
		},
		{
			"mesh":0,
			"name":"jesenskipodlesek_list.016",
			"rotation":[
				0.6282906532287598,
				0.32442376017570496,
				-0.32442373037338257,
				0.6282907724380493
			],
			"scale":[
				0.7029286623001099,
				0.7029286623001099,
				1.0512818098068237
			],
			"translation":[
				4.6299662590026855,
				0,
				3.1353769302368164
			]
		},
		{
			"mesh":0,
			"name":"jesenskipodlesek_list.017",
			"rotation":[
				0.362570583820343,
				-0.6070770621299744,
				0.6070770621299744,
				0.3625706136226654
			],
			"scale":[
				0.8144867420196533,
				0.8144867420196533,
				1.2181252241134644
			],
			"translation":[
				-0.6345515251159668,
				0,
				4.1812357902526855
			]
		},
		{
			"mesh":0,
			"name":"jesenskipodlesek_list.018",
			"rotation":[
				0.7003082036972046,
				-0.0978183001279831,
				0.09781832247972488,
				0.7003082036972046
			],
			"scale":[
				0.6925433874130249,
				0.6925433874130249,
				1.0357497930526733
			],
			"translation":[
				0.5740405917167664,
				0,
				-2.81254243850708
			]
		},
		{
			"mesh":0,
			"name":"jesenskipodlesek_list.019",
			"rotation":[
				0.4840627610683441,
				0.515444815158844,
				-0.515444815158844,
				0.48406270146369934
			],
			"scale":[
				0.8067309260368347,
				0.8067309260368347,
				1.2065255641937256
			],
			"translation":[
				-1.9104329347610474,
				0,
				0.12992769479751587
			]
		},
		{
			"mesh":0,
			"name":"jesenskipodlesek_list.020",
			"rotation":[
				0.586937427520752,
				0.39434051513671875,
				-0.39434048533439636,
				0.5869374871253967
			],
			"scale":[
				0.6836923360824585,
				0.6836923360824585,
				1.0225123167037964
			],
			"translation":[
				-2.626011610031128,
				0,
				-1.7917735576629639
			]
		},
		{
			"mesh":0,
			"name":"jesenskipodlesek_list.021",
			"rotation":[
				0.3634314239025116,
				-0.6065621376037598,
				0.606562077999115,
				0.3634314239025116
			],
			"scale":[
				0.8179256319999695,
				0.8179256319999695,
				1.2232682704925537
			],
			"translation":[
				-2.1698715686798096,
				0,
				2.330275297164917
			]
		},
		{
			"mesh":0,
			"name":"jesenskipodlesek_list.022",
			"rotation":[
				0.5520380139350891,
				0.4418756067752838,
				-0.44187554717063904,
				0.5520380735397339
			],
			"scale":[
				0.8136105537414551,
				0.8136105537414551,
				1.2168147563934326
			],
			"translation":[
				-3.231304407119751,
				0,
				4.033795356750488
			]
		},
		{
			"mesh":0,
			"name":"jesenskipodlesek_list.023",
			"rotation":[
				0.6706569790840149,
				-0.22409619390964508,
				0.22409619390964508,
				0.6706570982933044
			],
			"scale":[
				0.7750504612922668,
				0.7750504612922668,
				1.1591451168060303
			],
			"translation":[
				-2.0315632820129395,
				0,
				-3.695112705230713
			]
		}
	],
	"materials":[
		{
			"alphaMode":"BLEND",
			"doubleSided":true,
			"name":"jesenskipodlesek_list",
			"pbrMetallicRoughness":{
				"baseColorTexture":{
					"index":0
				},
				"metallicFactor":0,
				"roughnessFactor":0.5
			}
		}
	],
	"meshes":[
		{
			"name":"jesenskipodlesek_list.003",
			"primitives":[
				{
					"attributes":{
						"POSITION":0,
						"NORMAL":1,
						"TEXCOORD_0":2
					},
					"indices":3,
					"material":0
				}
			]
		}
	],
	"textures":[
		{
			"sampler":0,
			"source":0
		}
	],
	"images":[
		{
			"mimeType":"image/png",
			"name":"jesenskipodlesek_list",
			"uri":"jesenskipodlesek_list.png"
		}
	],
	"accessors":[
		{
			"bufferView":0,
			"componentType":5126,
			"count":2906,
			"max":[
				0.5505936145782471,
				1.2027779817581177,
				0.00433280598372221
			],
			"min":[
				-0.9430742859840393,
				-0.7938774824142456,
				-0.8278856873512268
			],
			"type":"VEC3"
		},
		{
			"bufferView":1,
			"componentType":5126,
			"count":2906,
			"type":"VEC3"
		},
		{
			"bufferView":2,
			"componentType":5126,
			"count":2906,
			"type":"VEC2"
		},
		{
			"bufferView":3,
			"componentType":5123,
			"count":10248,
			"type":"SCALAR"
		}
	],
	"bufferViews":[
		{
			"buffer":0,
			"byteLength":34872,
			"byteOffset":0,
			"target":34962
		},
		{
			"buffer":0,
			"byteLength":34872,
			"byteOffset":34872,
			"target":34962
		},
		{
			"buffer":0,
			"byteLength":23248,
			"byteOffset":69744,
			"target":34962
		},
		{
			"buffer":0,
			"byteLength":20496,
			"byteOffset":92992,
			"target":34963
		}
	],
	"samplers":[
		{
			"magFilter":9729,
			"minFilter":9987,
			"wrapS":33071,
			"wrapT":33071
		}
	],
	"buffers":[
		{
			"byteLength":113488,
			"uri":"jesenskipodlesek_star_trop.bin"
		}
	]
}
