{
	"asset":{
		"generator":"Khronos glTF Blender I/O v4.3.47",
		"version":"2.0"
	},
	"scene":0,
	"scenes":[
		{
			"name":"Scene",
			"nodes":[
				0,
				1,
				2,
				3,
				4,
				5,
				6,
				7,
				8,
				9,
				10,
				11,
				12,
				13,
				14,
				15,
				16
			]
		}
	],
	"nodes":[
		{
			"mesh":0,
			"name":"smrdljivibezeg_veja.015",
			"rotation":[
				-0.28032130002975464,
				0.05533124879002571,
				0.0403437539935112,
				0.9574607014656067
			],
			"scale":[
				0.5103458762168884,
				0.5103458166122437,
				0.5103457570075989
			],
			"translation":[
				-0.09346316754817963,
				3.3451170921325684,
				0
			]
		},
		{
			"mesh":1,
			"name":"smrdljivibezeg_veja.014",
			"rotation":[
				-0.1414746791124344,
				0.7870331406593323,
				0.2453416883945465,
				0.5480613112449646
			],
			"scale":[
				0.6347243189811707,
				0.6347241997718811,
				0.6347242593765259
			],
			"translation":[
				-0.058670248836278915,
				0.732088565826416,
				-0.06292681396007538
			]
		},
		{
			"mesh":2,
			"name":"smrdljivibezeg_veja.013",
			"rotation":[
				-0.11665678769350052,
				-0.9043685793876648,
				-0.2580675184726715,
				0.3192331790924072
			],
			"scale":[
				0.6347243189811707,
				0.6347241997718811,
				0.6347242593765259
			],
			"translation":[
				0,
				0.732088565826416,
				0.09580191969871521
			]
		},
		{
			"mesh":3,
			"name":"smrdljivibezeg_veja.012",
			"rotation":[
				-0.349172443151474,
				0,
				0,
				0.9370585680007935
			],
			"scale":[
				0.6347241997718811,
				0.6347241997718811,
				0.6347241997718811
			],
			"translation":[
				-0.04825965315103531,
				0.732088565826416,
				0
			]
		},
		{
			"mesh":4,
			"name":"smrdljivibezeg_veja.011",
			"rotation":[
				-0.24200677871704102,
				0.4266032874584198,
				0.14710669219493866,
				0.858954131603241
			],
			"scale":[
				0.5960370898246765,
				0.5960370302200317,
				0.5960370898246765
			],
			"translation":[
				-0.03956305980682373,
				2.125908136367798,
				-0.0022583534009754658
			]
		},
		{
			"mesh":5,
			"name":"smrdljivibezeg_veja.010",
			"rotation":[
				-0.021785201504826546,
				0.9464681148529053,
				0.2823704183101654,
				0.1548888385295868
			],
			"scale":[
				0.5960370898246765,
				0.5960370302200317,
				0.5960370898246765
			],
			"translation":[
				-0.09080751985311508,
				1.646530032157898,
				0.017585251480340958
			]
		},
		{
			"mesh":6,
			"name":"smrdljivibezeg_veja.009",
			"rotation":[
				-0.30616819858551025,
				-0.4505217969417572,
				-0.16787616908550262,
				0.8216500282287598
			],
			"scale":[
				0.5960370302200317,
				0.5960370302200317,
				0.5960370302200317
			],
			"translation":[
				-0.02354349195957184,
				1.9198946952819824,
				0
			]
		},
		{
			"mesh":7,
			"name":"smrdljivibezeg_veja.008",
			"rotation":[
				-0.1414746791124344,
				0.7870331406593323,
				0.2453416883945465,
				0.5480613112449646
			],
			"scale":[
				0.3369561433792114,
				0.33695608377456665,
				0.33695611357688904
			],
			"translation":[
				-0.0236597191542387,
				4.600776195526123,
				0.020190365612506866
			]
		},
		{
			"mesh":8,
			"name":"smrdljivibezeg_veja.007",
			"rotation":[
				-0.11665679514408112,
				-0.9043685793876648,
				-0.2580675184726715,
				0.3192331790924072
			],
			"scale":[
				0.3369561433792114,
				0.3369560241699219,
				0.3369561433792114
			],
			"translation":[
				0,
				4.398132801055908,
				0
			]
		},
		{
			"mesh":9,
			"name":"smrdljivibezeg_veja.006",
			"rotation":[
				-0.3491724729537964,
				0,
				0,
				0.9370585680007935
			],
			"scale":[
				0.33695605397224426,
				0.3369560241699219,
				0.3369560241699219
			],
			"translation":[
				0.006953686475753784,
				4.57835054397583,
				0
			]
		},
		{
			"mesh":10,
			"name":"smrdljivibezeg_veja.005",
			"rotation":[
				-0.1414746791124344,
				0.7870331406593323,
				0.2453416883945465,
				0.5480613112449646
			],
			"scale":[
				0.22601079940795898,
				0.2260107696056366,
				0.2260107845067978
			],
			"translation":[
				0,
				5.001908779144287,
				0
			]
		},
		{
			"mesh":11,
			"name":"smrdljivibezeg_veja.004",
			"rotation":[
				-0.11665679514408112,
				-0.9043685793876648,
				-0.2580675184726715,
				0.3192331790924072
			],
			"scale":[
				0.22601079940795898,
				0.2260107696056366,
				0.22601079940795898
			],
			"translation":[
				0,
				5.001908779144287,
				0
			]
		},
		{
			"mesh":12,
			"name":"smrdljivibezeg_veja.003",
			"rotation":[
				-0.19447597861289978,
				0,
				0,
				0.9809073805809021
			],
			"scale":[
				0.2260107845067978,
				0.2260107845067978,
				0.2260107845067978
			],
			"translation":[
				0,
				5.001908779144287,
				0
			]
		},
		{
			"mesh":13,
			"name":"smrdljivibezeg_veja.002",
			"rotation":[
				-0.13084076344966888,
				0.8097766041755676,
				0.2511740028858185,
				0.5138622522354126
			],
			"scale":[
				0.5103458166122437,
				0.5103458166122437,
				0.5103458762168884
			],
			"translation":[
				-0.1174096167087555,
				3.3111236095428467,
				-0.006335806101560593
			]
		},
		{
			"mesh":14,
			"name":"smrdljivibezeg_veja.001",
			"rotation":[
				-0.21573655307292938,
				-0.7368046641349792,
				-0.2745526134967804,
				0.5789625644683838
			],
			"scale":[
				0.5103458166122437,
				0.5103458166122437,
				0.5103458166122437
			],
			"translation":[
				-0.06137276440858841,
				3.6976816654205322,
				0.041812051087617874
			]
		},
		{
			"mesh":15,
			"name":"smrdljivibezeg_cvet.4585",
			"rotation":[
				0.5915911197662354,
				0.5801050066947937,
				-0.3944844901561737,
				0.3973413407802582
			],
			"scale":[
				0.10465647280216217,
				0.09401445090770721,
				0.08139566332101822
			],
			"translation":[
				0.11379887908697128,
				5.493290901184082,
				0
			]
		},
		{
			"mesh":16,
			"name":"Cube.002",
			"scale":[
				0.05243951082229614,
				0.05243951082229614,
				0.05243951082229614
			],
			"translation":[
				0.026224613189697266,
				-0.315650999546051,
				0
			]
		}
	],
	"materials":[
		{
			"alphaMode":"BLEND",
			"doubleSided":true,
			"name":"smrdljivibezeg_veja",
			"pbrMetallicRoughness":{
				"baseColorTexture":{
					"index":0
				},
				"metallicFactor":0
			}
		},
		{
			"alphaMode":"BLEND",
			"doubleSided":true,
			"name":"smrdljivibezeg_cvet",
			"pbrMetallicRoughness":{
				"baseColorTexture":{
					"index":1
				},
				"metallicFactor":0
			}
		},
		{
			"alphaMode":"BLEND",
			"doubleSided":true,
			"name":"smrdljivibezeg_LIST",
			"pbrMetallicRoughness":{
				"baseColorTexture":{
					"index":2
				},
				"metallicFactor":0
			}
		}
	],
	"meshes":[
		{
			"name":"smrdljivibezeg_veja.017",
			"primitives":[
				{
					"attributes":{
						"POSITION":0,
						"NORMAL":1,
						"TEXCOORD_0":2
					},
					"indices":3,
					"material":0
				}
			]
		},
		{
			"name":"smrdljivibezeg_veja.014",
			"primitives":[
				{
					"attributes":{
						"POSITION":4,
						"NORMAL":5,
						"TEXCOORD_0":6
					},
					"indices":3,
					"material":0
				}
			]
		},
		{
			"name":"smrdljivibezeg_veja.013",
			"primitives":[
				{
					"attributes":{
						"POSITION":7,
						"NORMAL":8,
						"TEXCOORD_0":9
					},
					"indices":3,
					"material":0
				}
			]
		},
		{
			"name":"smrdljivibezeg_veja.012",
			"primitives":[
				{
					"attributes":{
						"POSITION":10,
						"NORMAL":11,
						"TEXCOORD_0":12
					},
					"indices":13,
					"material":0
				}
			]
		},
		{
			"name":"smrdljivibezeg_veja.011",
			"primitives":[
				{
					"attributes":{
						"POSITION":14,
						"NORMAL":15,
						"TEXCOORD_0":16
					},
					"indices":3,
					"material":0
				}
			]
		},
		{
			"name":"smrdljivibezeg_veja.010",
			"primitives":[
				{
					"attributes":{
						"POSITION":17,
						"NORMAL":18,
						"TEXCOORD_0":19
					},
					"indices":3,
					"material":0
				}
			]
		},
		{
			"name":"smrdljivibezeg_veja.009",
			"primitives":[
				{
					"attributes":{
						"POSITION":20,
						"NORMAL":21,
						"TEXCOORD_0":22
					},
					"indices":13,
					"material":0
				}
			]
		},
		{
			"name":"smrdljivibezeg_veja.008",
			"primitives":[
				{
					"attributes":{
						"POSITION":23,
						"NORMAL":24,
						"TEXCOORD_0":25
					},
					"indices":3,
					"material":0
				}
			]
		},
		{
			"name":"smrdljivibezeg_veja.007",
			"primitives":[
				{
					"attributes":{
						"POSITION":26,
						"NORMAL":27,
						"TEXCOORD_0":28
					},
					"indices":3,
					"material":0
				}
			]
		},
		{
			"name":"smrdljivibezeg_veja.006",
			"primitives":[
				{
					"attributes":{
						"POSITION":29,
						"NORMAL":30,
						"TEXCOORD_0":31
					},
					"indices":13,
					"material":0
				}
			]
		},
		{
			"name":"smrdljivibezeg_veja.005",
			"primitives":[
				{
					"attributes":{
						"POSITION":32,
						"NORMAL":33,
						"TEXCOORD_0":34
					},
					"indices":3,
					"material":0
				}
			]
		},
		{
			"name":"smrdljivibezeg_veja.004",
			"primitives":[
				{
					"attributes":{
						"POSITION":35,
						"NORMAL":36,
						"TEXCOORD_0":37
					},
					"indices":3,
					"material":0
				}
			]
		},
		{
			"name":"smrdljivibezeg_veja.003",
			"primitives":[
				{
					"attributes":{
						"POSITION":38,
						"NORMAL":39,
						"TEXCOORD_0":40
					},
					"indices":41,
					"material":0
				}
			]
		},
		{
			"name":"smrdljivibezeg_veja.016",
			"primitives":[
				{
					"attributes":{
						"POSITION":42,
						"NORMAL":43,
						"TEXCOORD_0":44
					},
					"indices":3,
					"material":0
				}
			]
		},
		{
			"name":"smrdljivibezeg_veja.015",
			"primitives":[
				{
					"attributes":{
						"POSITION":45,
						"NORMAL":46,
						"TEXCOORD_0":47
					},
					"indices":13,
					"material":0
				}
			]
		},
		{
			"name":"smrdljivibezeg_cvet.009",
			"primitives":[
				{
					"attributes":{
						"POSITION":48,
						"NORMAL":49,
						"TEXCOORD_0":50
					},
					"indices":51,
					"material":1
				}
			]
		},
		{
			"name":"Cube.003",
			"primitives":[
				{
					"attributes":{
						"POSITION":52,
						"NORMAL":53,
						"TEXCOORD_0":54
					},
					"indices":55,
					"material":2
				}
			]
		}
	],
	"textures":[
		{
			"sampler":0,
			"source":0
		},
		{
			"sampler":0,
			"source":1
		},
		{
			"sampler":0,
			"source":0
		}
	],
	"images":[
		{
			"mimeType":"image/png",
			"name":"smrdljivibezeg_veja",
			"uri":"smrdljivibezeg_veja.png"
		},
		{
			"mimeType":"image/png",
			"name":"smrdljivibezeg_cvet",
			"uri":"smrdljivibezeg_cvet.png"
		}
	],
	"accessors":[
		{
			"bufferView":0,
			"componentType":5126,
			"count":12,
			"max":[
				1.3065615892410278,
				2.7859697341918945,
				0.1588647961616516
			],
			"min":[
				-1.2347415685653687,
				-0.211511492729187,
				-2.2652692794799805
			],
			"type":"VEC3"
		},
		{
			"bufferView":1,
			"componentType":5126,
			"count":12,
			"type":"VEC3"
		},
		{
			"bufferView":2,
			"componentType":5126,
			"count":12,
			"type":"VEC2"
		},
		{
			"bufferView":3,
			"componentType":5123,
			"count":30,
			"type":"SCALAR"
		},
		{
			"bufferView":4,
			"componentType":5126,
			"count":12,
			"max":[
				1.3535025119781494,
				2.8359432220458984,
				0.1874150037765503
			],
			"min":[
				-1.2189605236053467,
				-0.171792134642601,
				-2.2755444049835205
			],
			"type":"VEC3"
		},
		{
			"bufferView":5,
			"componentType":5126,
			"count":12,
			"type":"VEC3"
		},
		{
			"bufferView":6,
			"componentType":5126,
			"count":12,
			"type":"VEC2"
		},
		{
			"bufferView":7,
			"componentType":5126,
			"count":12,
			"max":[
				1.3253884315490723,
				2.755265474319458,
				0.2454061210155487
			],
			"min":[
				-1.2494738101959229,
				-0.11222634464502335,
				-2.2954018115997314
			],
			"type":"VEC3"
		},
		{
			"bufferView":8,
			"componentType":5126,
			"count":12,
			"type":"VEC3"
		},
		{
			"bufferView":9,
			"componentType":5126,
			"count":12,
			"type":"VEC2"
		},
		{
			"bufferView":10,
			"componentType":5126,
			"count":10,
			"max":[
				1.3208125829696655,
				2.4879140853881836,
				0.37544238567352295
			],
			"min":[
				-1.3591389656066895,
				0.17455706000328064,
				-2.5379421710968018
			],
			"type":"VEC3"
		},
		{
			"bufferView":11,
			"componentType":5126,
			"count":10,
			"type":"VEC3"
		},
		{
			"bufferView":12,
			"componentType":5126,
			"count":10,
			"type":"VEC2"
		},
		{
			"bufferView":13,
			"componentType":5123,
			"count":24,
			"type":"SCALAR"
		},
		{
			"bufferView":14,
			"componentType":5126,
			"count":12,
			"max":[
				1.2925429344177246,
				2.7023184299468994,
				0.1653791069984436
			],
			"min":[
				-1.2887117862701416,
				-0.14319400489330292,
				-2.313657283782959
			],
			"type":"VEC3"
		},
		{
			"bufferView":15,
			"componentType":5126,
			"count":12,
			"type":"VEC3"
		},
		{
			"bufferView":16,
			"componentType":5126,
			"count":12,
			"type":"VEC2"
		},
		{
			"bufferView":17,
			"componentType":5126,
			"count":12,
			"max":[
				1.2777525186538696,
				2.7519428730010986,
				0.19490952789783478
			],
			"min":[
				-1.2724577188491821,
				-0.13448676466941833,
				-2.360379219055176
			],
			"type":"VEC3"
		},
		{
			"bufferView":18,
			"componentType":5126,
			"count":12,
			"type":"VEC3"
		},
		{
			"bufferView":19,
			"componentType":5126,
			"count":12,
			"type":"VEC2"
		},
		{
			"bufferView":20,
			"componentType":5126,
			"count":10,
			"max":[
				1.2463386058807373,
				2.4712750911712646,
				0.3872172236442566
			],
			"min":[
				-1.21774423122406,
				0.08057156950235367,
				-2.567913055419922
			],
			"type":"VEC3"
		},
		{
			"bufferView":21,
			"componentType":5126,
			"count":10,
			"type":"VEC3"
		},
		{
			"bufferView":22,
			"componentType":5126,
			"count":10,
			"type":"VEC2"
		},
		{
			"bufferView":23,
			"componentType":5126,
			"count":12,
			"max":[
				1.2859218120574951,
				2.792081832885742,
				0.243569016456604
			],
			"min":[
				-1.247841477394104,
				-0.08749061077833176,
				-2.298224687576294
			],
			"type":"VEC3"
		},
		{
			"bufferView":24,
			"componentType":5126,
			"count":12,
			"type":"VEC3"
		},
		{
			"bufferView":25,
			"componentType":5126,
			"count":12,
			"type":"VEC2"
		},
		{
			"bufferView":26,
			"componentType":5126,
			"count":12,
			"max":[
				1.3988100290298462,
				2.7627692222595215,
				0.22751422226428986
			],
			"min":[
				-1.329896092414856,
				-0.18713343143463135,
				-2.2380781173706055
			],
			"type":"VEC3"
		},
		{
			"bufferView":27,
			"componentType":5126,
			"count":12,
			"type":"VEC3"
		},
		{
			"bufferView":28,
			"componentType":5126,
			"count":12,
			"type":"VEC2"
		},
		{
			"bufferView":29,
			"componentType":5126,
			"count":10,
			"max":[
				1.3265485763549805,
				2.4395556449890137,
				0.32903045415878296
			],
			"min":[
				-1.3268858194351196,
				0.06564822793006897,
				-2.5332531929016113
			],
			"type":"VEC3"
		},
		{
			"bufferView":30,
			"componentType":5126,
			"count":10,
			"type":"VEC3"
		},
		{
			"bufferView":31,
			"componentType":5126,
			"count":10,
			"type":"VEC2"
		},
		{
			"bufferView":32,
			"componentType":5126,
			"count":12,
			"max":[
				1.36127507686615,
				2.8569159507751465,
				0.19793134927749634
			],
			"min":[
				-1.246347427368164,
				-0.07646605372428894,
				-2.239063262939453
			],
			"type":"VEC3"
		},
		{
			"bufferView":33,
			"componentType":5126,
			"count":12,
			"type":"VEC3"
		},
		{
			"bufferView":34,
			"componentType":5126,
			"count":12,
			"type":"VEC2"
		},
		{
			"bufferView":35,
			"componentType":5126,
			"count":12,
			"max":[
				1.3096370697021484,
				2.741842031478882,
				0.2385185956954956
			],
			"min":[
				-1.2270863056182861,
				-0.2509351372718811,
				-2.2809360027313232
			],
			"type":"VEC3"
		},
		{
			"bufferView":36,
			"componentType":5126,
			"count":12,
			"type":"VEC3"
		},
		{
			"bufferView":37,
			"componentType":5126,
			"count":12,
			"type":"VEC2"
		},
		{
			"bufferView":38,
			"componentType":5126,
			"count":4,
			"max":[
				1.314224123954773,
				2.3458027839660645,
				0.2127780020236969
			],
			"min":[
				-1.2833969593048096,
				-0.13838572800159454,
				-2.5803914070129395
			],
			"type":"VEC3"
		},
		{
			"bufferView":39,
			"componentType":5126,
			"count":4,
			"type":"VEC3"
		},
		{
			"bufferView":40,
			"componentType":5126,
			"count":4,
			"type":"VEC2"
		},
		{
			"bufferView":41,
			"componentType":5123,
			"count":6,
			"type":"SCALAR"
		},
		{
			"bufferView":42,
			"componentType":5126,
			"count":12,
			"max":[
				1.3072254657745361,
				2.7017765045166016,
				0.18536020815372467
			],
			"min":[
				-1.3072803020477295,
				-0.12398737668991089,
				-2.334012031555176
			],
			"type":"VEC3"
		},
		{
			"bufferView":43,
			"componentType":5126,
			"count":12,
			"type":"VEC3"
		},
		{
			"bufferView":44,
			"componentType":5126,
			"count":12,
			"type":"VEC2"
		},
		{
			"bufferView":45,
			"componentType":5126,
			"count":10,
			"max":[
				1.2804951667785645,
				2.467772960662842,
				0.3537724018096924
			],
			"min":[
				-1.250486969947815,
				0.11762858927249908,
				-2.57563853263855
			],
			"type":"VEC3"
		},
		{
			"bufferView":46,
			"componentType":5126,
			"count":10,
			"type":"VEC3"
		},
		{
			"bufferView":47,
			"componentType":5126,
			"count":10,
			"type":"VEC2"
		},
		{
			"bufferView":48,
			"componentType":5126,
			"count":5372,
			"max":[
				5.014713287353516,
				6.173260688781738,
				4.536792755126953
			],
			"min":[
				-5.285889625549316,
				-7.475438117980957,
				-3.888000011444092
			],
			"type":"VEC3"
		},
		{
			"bufferView":49,
			"componentType":5126,
			"count":5372,
			"type":"VEC3"
		},
		{
			"bufferView":50,
			"componentType":5126,
			"count":5372,
			"type":"VEC2"
		},
		{
			"bufferView":51,
			"componentType":5123,
			"count":8058,
			"type":"SCALAR"
		},
		{
			"bufferView":52,
			"componentType":5126,
			"count":200,
			"max":[
				8.313485145568848,
				111.52761840820312,
				7.190718650817871
			],
			"min":[
				-8.436816215515137,
				-0.9999997615814209,
				-8.652528762817383
			],
			"type":"VEC3"
		},
		{
			"bufferView":53,
			"componentType":5126,
			"count":200,
			"type":"VEC3"
		},
		{
			"bufferView":54,
			"componentType":5126,
			"count":200,
			"type":"VEC2"
		},
		{
			"bufferView":55,
			"componentType":5123,
			"count":300,
			"type":"SCALAR"
		}
	],
	"bufferViews":[
		{
			"buffer":0,
			"byteLength":144,
			"byteOffset":0,
			"target":34962
		},
		{
			"buffer":0,
			"byteLength":144,
			"byteOffset":144,
			"target":34962
		},
		{
			"buffer":0,
			"byteLength":96,
			"byteOffset":288,
			"target":34962
		},
		{
			"buffer":0,
			"byteLength":60,
			"byteOffset":384,
			"target":34963
		},
		{
			"buffer":0,
			"byteLength":144,
			"byteOffset":444,
			"target":34962
		},
		{
			"buffer":0,
			"byteLength":144,
			"byteOffset":588,
			"target":34962
		},
		{
			"buffer":0,
			"byteLength":96,
			"byteOffset":732,
			"target":34962
		},
		{
			"buffer":0,
			"byteLength":144,
			"byteOffset":828,
			"target":34962
		},
		{
			"buffer":0,
			"byteLength":144,
			"byteOffset":972,
			"target":34962
		},
		{
			"buffer":0,
			"byteLength":96,
			"byteOffset":1116,
			"target":34962
		},
		{
			"buffer":0,
			"byteLength":120,
			"byteOffset":1212,
			"target":34962
		},
		{
			"buffer":0,
			"byteLength":120,
			"byteOffset":1332,
			"target":34962
		},
		{
			"buffer":0,
			"byteLength":80,
			"byteOffset":1452,
			"target":34962
		},
		{
			"buffer":0,
			"byteLength":48,
			"byteOffset":1532,
			"target":34963
		},
		{
			"buffer":0,
			"byteLength":144,
			"byteOffset":1580,
			"target":34962
		},
		{
			"buffer":0,
			"byteLength":144,
			"byteOffset":1724,
			"target":34962
		},
		{
			"buffer":0,
			"byteLength":96,
			"byteOffset":1868,
			"target":34962
		},
		{
			"buffer":0,
			"byteLength":144,
			"byteOffset":1964,
			"target":34962
		},
		{
			"buffer":0,
			"byteLength":144,
			"byteOffset":2108,
			"target":34962
		},
		{
			"buffer":0,
			"byteLength":96,
			"byteOffset":2252,
			"target":34962
		},
		{
			"buffer":0,
			"byteLength":120,
			"byteOffset":2348,
			"target":34962
		},
		{
			"buffer":0,
			"byteLength":120,
			"byteOffset":2468,
			"target":34962
		},
		{
			"buffer":0,
			"byteLength":80,
			"byteOffset":2588,
			"target":34962
		},
		{
			"buffer":0,
			"byteLength":144,
			"byteOffset":2668,
			"target":34962
		},
		{
			"buffer":0,
			"byteLength":144,
			"byteOffset":2812,
			"target":34962
		},
		{
			"buffer":0,
			"byteLength":96,
			"byteOffset":2956,
			"target":34962
		},
		{
			"buffer":0,
			"byteLength":144,
			"byteOffset":3052,
			"target":34962
		},
		{
			"buffer":0,
			"byteLength":144,
			"byteOffset":3196,
			"target":34962
		},
		{
			"buffer":0,
			"byteLength":96,
			"byteOffset":3340,
			"target":34962
		},
		{
			"buffer":0,
			"byteLength":120,
			"byteOffset":3436,
			"target":34962
		},
		{
			"buffer":0,
			"byteLength":120,
			"byteOffset":3556,
			"target":34962
		},
		{
			"buffer":0,
			"byteLength":80,
			"byteOffset":3676,
			"target":34962
		},
		{
			"buffer":0,
			"byteLength":144,
			"byteOffset":3756,
			"target":34962
		},
		{
			"buffer":0,
			"byteLength":144,
			"byteOffset":3900,
			"target":34962
		},
		{
			"buffer":0,
			"byteLength":96,
			"byteOffset":4044,
			"target":34962
		},
		{
			"buffer":0,
			"byteLength":144,
			"byteOffset":4140,
			"target":34962
		},
		{
			"buffer":0,
			"byteLength":144,
			"byteOffset":4284,
			"target":34962
		},
		{
			"buffer":0,
			"byteLength":96,
			"byteOffset":4428,
			"target":34962
		},
		{
			"buffer":0,
			"byteLength":48,
			"byteOffset":4524,
			"target":34962
		},
		{
			"buffer":0,
			"byteLength":48,
			"byteOffset":4572,
			"target":34962
		},
		{
			"buffer":0,
			"byteLength":32,
			"byteOffset":4620,
			"target":34962
		},
		{
			"buffer":0,
			"byteLength":12,
			"byteOffset":4652,
			"target":34963
		},
		{
			"buffer":0,
			"byteLength":144,
			"byteOffset":4664,
			"target":34962
		},
		{
			"buffer":0,
			"byteLength":144,
			"byteOffset":4808,
			"target":34962
		},
		{
			"buffer":0,
			"byteLength":96,
			"byteOffset":4952,
			"target":34962
		},
		{
			"buffer":0,
			"byteLength":120,
			"byteOffset":5048,
			"target":34962
		},
		{
			"buffer":0,
			"byteLength":120,
			"byteOffset":5168,
			"target":34962
		},
		{
			"buffer":0,
			"byteLength":80,
			"byteOffset":5288,
			"target":34962
		},
		{
			"buffer":0,
			"byteLength":64464,
			"byteOffset":5368,
			"target":34962
		},
		{
			"buffer":0,
			"byteLength":64464,
			"byteOffset":69832,
			"target":34962
		},
		{
			"buffer":0,
			"byteLength":42976,
			"byteOffset":134296,
			"target":34962
		},
		{
			"buffer":0,
			"byteLength":16116,
			"byteOffset":177272,
			"target":34963
		},
		{
			"buffer":0,
			"byteLength":2400,
			"byteOffset":193388,
			"target":34962
		},
		{
			"buffer":0,
			"byteLength":2400,
			"byteOffset":195788,
			"target":34962
		},
		{
			"buffer":0,
			"byteLength":1600,
			"byteOffset":198188,
			"target":34962
		},
		{
			"buffer":0,
			"byteLength":600,
			"byteOffset":199788,
			"target":34963
		}
	],
	"samplers":[
		{
			"magFilter":9729,
			"minFilter":9987,
			"wrapS":33071,
			"wrapT":33071
		}
	],
	"buffers":[
		{
			"byteLength":200388,
			"uri":"smrdljivi_bezeg.bin"
		}
	]
}
