{
	"asset":{
		"generator":"Khronos glTF Blender I/O v4.3.47",
		"version":"2.0"
	},
	"scene":0,
	"scenes":[
		{
			"name":"Scene",
			"nodes":[
				0,
				1,
				2,
				3,
				4,
				5,
				6,
				7,
				8,
				9,
				10,
				11,
				12,
				13,
				14,
				15,
				16,
				17,
				18,
				19,
				20,
				21,
				22,
				23,
				24,
				25,
				26,
				27,
				28,
				29,
				30,
				31,
				32,
				33,
				34,
				35,
				36,
				37,
				38,
				39
			]
		}
	],
	"nodes":[
		{
			"mesh":0,
			"name":"SMRDLIVI_BEZEG.001",
			"rotation":[
				0.4563136398792267,
				0.5122865438461304,
				-0.5583648085594177,
				0.46644312143325806
			],
			"scale":[
				0.25867903232574463,
				0.25867903232574463,
				0.25867903232574463
			],
			"translation":[
				1.649111270904541,
				0,
				-1.2439874410629272
			]
		},
		{
			"mesh":0,
			"name":"SMRDLIVI_BEZEG.002",
			"rotation":[
				0.6851771473884583,
				-0.03532978519797325,
				0.11984064429998398,
				0.7175808548927307
			],
			"scale":[
				0.24289478361606598,
				0.24289479851722717,
				0.24289479851722717
			],
			"translation":[
				1.2809449434280396,
				0,
				-1.668036937713623
			]
		},
		{
			"mesh":0,
			"name":"SMRDLIVI_BEZEG.003",
			"rotation":[
				0.49483585357666016,
				0.5294668674468994,
				-0.45144516229629517,
				0.5205762386322021
			],
			"scale":[
				0.23310641944408417,
				0.23310641944408417,
				0.23310638964176178
			],
			"translation":[
				1.043800711631775,
				0,
				-1.0512545108795166
			]
		},
		{
			"mesh":0,
			"name":"SMRDLIVI_BEZEG.004",
			"rotation":[
				0.478854238986969,
				-0.44254663586616516,
				0.4549688994884491,
				0.6065102219581604
			],
			"scale":[
				0.32237955927848816,
				0.32237958908081055,
				0.32237958908081055
			],
			"translation":[
				1.649111270904541,
				0,
				-1.2439874410629272
			]
		},
		{
			"mesh":0,
			"name":"SMRDLIVI_BEZEG.005",
			"rotation":[
				0.0738595500588417,
				-0.6952454447746277,
				0.7107495665550232,
				0.07754731178283691
			],
			"scale":[
				0.3598504960536957,
				0.35985058546066284,
				0.35985052585601807
			],
			"translation":[
				-0.7840757966041565,
				0,
				-1.7753894329071045
			]
		},
		{
			"mesh":0,
			"name":"SMRDLIVI_BEZEG.006",
			"rotation":[
				0.6721259951591492,
				-0.3581337630748749,
				0.2702508270740509,
				0.5890257954597473
			],
			"scale":[
				0.3361472189426422,
				0.336147278547287,
				0.3361471891403198
			],
			"translation":[
				-1.0332961082458496,
				0,
				-1.0519520044326782
			]
		},
		{
			"mesh":0,
			"name":"SMRDLIVI_BEZEG.007",
			"rotation":[
				0.40056008100509644,
				-0.5775259733200073,
				0.5640390515327454,
				0.43344587087631226
			],
			"scale":[
				0.32324734330177307,
				0.32324740290641785,
				0.32324737310409546
			],
			"translation":[
				-0.4281366765499115,
				0,
				-1.3116729259490967
			]
		},
		{
			"mesh":0,
			"name":"SMRDLIVI_BEZEG.008",
			"rotation":[
				0.5831093192100525,
				0.4546329081058502,
				-0.37993940711021423,
				0.555822491645813
			],
			"scale":[
				0.332393616437912,
				0.3323936462402344,
				0.332393616437912
			],
			"translation":[
				-0.7840757966041565,
				0,
				-1.7753894329071045
			]
		},
		{
			"mesh":0,
			"name":"SMRDLIVI_BEZEG.009",
			"rotation":[
				0.733839213848114,
				-0.09207528084516525,
				0.04071661829948425,
				0.671821653842926
			],
			"scale":[
				0.2674362063407898,
				0.2674362063407898,
				0.2674362063407898
			],
			"translation":[
				-1.0328489542007446,
				0,
				1.0256807804107666
			]
		},
		{
			"mesh":0,
			"name":"SMRDLIVI_BEZEG.010",
			"rotation":[
				0.6500834822654724,
				0.3317689001560211,
				-0.23431633412837982,
				0.6421968340873718
			],
			"scale":[
				0.21744872629642487,
				0.21744872629642487,
				0.21744872629642487
			],
			"translation":[
				-0.42429473996162415,
				0,
				0.8138988614082336
			]
		},
		{
			"mesh":0,
			"name":"SMRDLIVI_BEZEG.011",
			"rotation":[
				0.5699447989463806,
				0.4120669960975647,
				-0.3951456546783447,
				0.5909514427185059
			],
			"scale":[
				0.19532065093517303,
				0.19532065093517303,
				0.19532066583633423
			],
			"translation":[
				1.3734685182571411,
				0,
				0.3969837725162506
			]
		},
		{
			"mesh":0,
			"name":"SMRDLIVI_BEZEG.012",
			"rotation":[
				0.6879600882530212,
				0.026175962761044502,
				-0.13489504158496857,
				0.7126213312149048
			],
			"scale":[
				0.30562472343444824,
				0.30562475323677063,
				0.30562472343444824
			],
			"translation":[
				0.00531529076397419,
				0,
				1.0256807804107666
			]
		},
		{
			"mesh":0,
			"name":"SMRDLIVI_BEZEG.013",
			"rotation":[
				0.32338330149650574,
				0.6165376901626587,
				-0.5871204137802124,
				0.4130305051803589
			],
			"scale":[
				0.31520479917526245,
				0.31520479917526245,
				0.3152047395706177
			],
			"translation":[
				0.6138696074485779,
				0,
				0.8138988614082336
			]
		},
		{
			"mesh":0,
			"name":"SMRDLIVI_BEZEG.014",
			"rotation":[
				0.7048841118812561,
				-0.28398221731185913,
				0.1696195751428604,
				0.6274725794792175
			],
			"scale":[
				0.24079281091690063,
				0.2407928705215454,
				0.24079285562038422
			],
			"translation":[
				0.27762097120285034,
				0,
				1.5316411256790161
			]
		},
		{
			"mesh":0,
			"name":"SMRDLIVI_BEZEG.015",
			"rotation":[
				0.6402450203895569,
				0.31404104828834534,
				-0.31473541259765625,
				0.6264232993125916
			],
			"scale":[
				0.2682642340660095,
				0.2682642936706543,
				0.2682642638683319
			],
			"translation":[
				0.005476773250848055,
				0,
				2.39634108543396
			]
		},
		{
			"mesh":0,
			"name":"SMRDLIVI_BEZEG.016",
			"rotation":[
				0.3502674996852875,
				0.5406185388565063,
				-0.6765629649162292,
				0.35680100321769714
			],
			"scale":[
				0.22415375709533691,
				0.22415374219417572,
				0.22415372729301453
			],
			"translation":[
				0.6332313418388367,
				0,
				1.997383713722229
			]
		},
		{
			"mesh":0,
			"name":"SMRDLIVI_BEZEG.017",
			"rotation":[
				0.6744655966758728,
				0.06991230696439743,
				-0.07652723789215088,
				0.730993926525116
			],
			"scale":[
				0.2501014173030853,
				0.2501014173030853,
				0.2501014173030853
			],
			"translation":[
				0.27762097120285034,
				0,
				1.5316411256790161
			]
		},
		{
			"mesh":0,
			"name":"SMRDLIVI_BEZEG.018",
			"rotation":[
				0.7012092471122742,
				-0.13752347230911255,
				0.16538222134113312,
				0.6797364354133606
			],
			"scale":[
				0.2986454367637634,
				0.2986454963684082,
				0.2986454367637634
			],
			"translation":[
				0.005476773250848055,
				0,
				2.39634108543396
			]
		},
		{
			"mesh":0,
			"name":"SMRDLIVI_BEZEG.019",
			"rotation":[
				0.6555972099304199,
				-0.10417582094669342,
				0.009410842321813107,
				0.7478309869766235
			],
			"scale":[
				0.200569286942482,
				0.2005693018436432,
				0.200569286942482
			],
			"translation":[
				0.6332313418388367,
				0,
				1.997383713722229
			]
		},
		{
			"mesh":0,
			"name":"SMRDLIVI_BEZEG.020",
			"rotation":[
				0.6909076571464539,
				-0.14041905105113983,
				0.10867352783679962,
				0.7007989287376404
			],
			"scale":[
				0.3591979742050171,
				0.3591980040073395,
				0.3591980040073395
			],
			"translation":[
				1.2969127893447876,
				0,
				1.4210302829742432
			]
		},
		{
			"mesh":0,
			"name":"SMRDLIVI_BEZEG.021",
			"rotation":[
				0.18121185898780823,
				-0.674704909324646,
				0.6522272229194641,
				0.29416877031326294
			],
			"scale":[
				0.24389387667179108,
				0.24389389157295227,
				0.24389386177062988
			],
			"translation":[
				1.0828336477279663,
				0,
				2.143845319747925
			]
		},
		{
			"mesh":0,
			"name":"SMRDLIVI_BEZEG.022",
			"rotation":[
				0.6354899406433105,
				0.1543576717376709,
				-0.07777835428714752,
				0.7525136470794678
			],
			"scale":[
				0.19732479751110077,
				0.19732479751110077,
				0.19732478260993958
			],
			"translation":[
				-1.5199371576309204,
				0,
				0.8269586563110352
			]
		},
		{
			"mesh":0,
			"name":"SMRDLIVI_BEZEG.023",
			"rotation":[
				0.6619886159896851,
				-0.2227284461259842,
				0.2173837423324585,
				0.6818411946296692
			],
			"scale":[
				0.27163198590278625,
				0.27163198590278625,
				0.27163195610046387
			],
			"translation":[
				-1.9821947813034058,
				0,
				0.4039207994937897
			]
		},
		{
			"mesh":0,
			"name":"SMRDLIVI_BEZEG.024",
			"rotation":[
				0.6697902679443359,
				0.3124694228172302,
				-0.18096867203712463,
				0.6488407850265503
			],
			"scale":[
				0.31185904145240784,
				0.31185904145240784,
				0.31185904145240784
			],
			"translation":[
				-2.1484625339508057,
				0,
				-1.0874508619308472
			]
		},
		{
			"mesh":0,
			"name":"SMRDLIVI_BEZEG.025",
			"rotation":[
				0.7097113728523254,
				-0.054752327501773834,
				0.04992742836475372,
				0.7005850076675415
			],
			"scale":[
				0.2612530291080475,
				0.2612529993057251,
				0.2612529993057251
			],
			"translation":[
				-1.4593472480773926,
				0,
				-1.251349925994873
			]
		},
		{
			"mesh":0,
			"name":"SMRDLIVI_BEZEG.026",
			"rotation":[
				0.2986868619918823,
				0.6497036814689636,
				-0.5749005675315857,
				0.39769408106803894
			],
			"scale":[
				0.28550752997398376,
				0.28550755977630615,
				0.28550752997398376
			],
			"translation":[
				-1.660813808441162,
				0,
				-1.536696195602417
			]
		},
		{
			"mesh":0,
			"name":"SMRDLIVI_BEZEG.027",
			"rotation":[
				0.627496063709259,
				0.14553602039813995,
				-0.10710716247558594,
				0.7573612332344055
			],
			"scale":[
				0.2054753303527832,
				0.2054753303527832,
				0.205475315451622
			],
			"translation":[
				-2.1484625339508057,
				0,
				-1.0874508619308472
			]
		},
		{
			"mesh":0,
			"name":"SMRDLIVI_BEZEG.028",
			"rotation":[
				0.6558040976524353,
				-0.2566473186016083,
				0.26262056827545166,
				0.6596086621284485
			],
			"scale":[
				0.23637309670448303,
				0.23637311160564423,
				0.23637308180332184
			],
			"translation":[
				-1.57673978805542,
				0,
				-0.22810740768909454
			]
		},
		{
			"mesh":0,
			"name":"SMRDLIVI_BEZEG.029",
			"rotation":[
				0.7284232378005981,
				0.1888691633939743,
				-0.077938511967659,
				0.653952419757843
			],
			"scale":[
				0.21202069520950317,
				0.21202071011066437,
				0.21202071011066437
			],
			"translation":[
				-1.9335620403289795,
				0,
				-0.6647130250930786
			]
		},
		{
			"mesh":0,
			"name":"SMRDLIVI_BEZEG.030",
			"rotation":[
				0.1899423599243164,
				0.6817258596420288,
				-0.689496636390686,
				0.15416258573532104
			],
			"scale":[
				0.19858874380588531,
				0.19858872890472412,
				0.19858874380588531
			],
			"translation":[
				-2.404080390930176,
				0,
				-0.012930541299283504
			]
		},
		{
			"mesh":0,
			"name":"SMRDLIVI_BEZEG.031",
			"rotation":[
				0.2472771853208542,
				-0.7065038084983826,
				0.5818804502487183,
				0.3179963231086731
			],
			"scale":[
				0.23252682387828827,
				0.23252685368061066,
				0.23252685368061066
			],
			"translation":[
				-0.42429473996162415,
				0,
				-0.22426550090312958
			]
		},
		{
			"mesh":0,
			"name":"SMRDLIVI_BEZEG.032",
			"rotation":[
				0.3585699200630188,
				0.6478269100189209,
				-0.5734173059463501,
				0.35062873363494873
			],
			"scale":[
				0.34425681829452515,
				0.34425681829452515,
				0.34425681829452515
			],
			"translation":[
				0.27980315685272217,
				0,
				-1.8533222675323486
			]
		},
		{
			"mesh":0,
			"name":"SMRDLIVI_BEZEG.033",
			"rotation":[
				0.6887536644935608,
				0.1939142495393753,
				-0.21223337948322296,
				0.6655619740486145
			],
			"scale":[
				0.25277552008628845,
				0.25277554988861084,
				0.2527755796909332
			],
			"translation":[
				0.00536554167047143,
				0,
				-1.0543969869613647
			]
		},
		{
			"mesh":0,
			"name":"SMRDLIVI_BEZEG.034",
			"rotation":[
				0.32963088154792786,
				0.5858150124549866,
				-0.579220175743103,
				0.4611597955226898
			],
			"scale":[
				0.21219222247600555,
				0.21219219267368317,
				0.21219219267368317
			],
			"translation":[
				0.6189612746238708,
				0,
				-1.3039718866348267
			]
		},
		{
			"mesh":0,
			"name":"SMRDLIVI_BEZEG.035",
			"rotation":[
				0.3817087411880493,
				0.5948240160942078,
				-0.5791729092597961,
				0.4062531888484955
			],
			"scale":[
				0.3461564779281616,
				0.3461565375328064,
				0.346156507730484
			],
			"translation":[
				0.27980315685272217,
				0,
				-1.8533222675323486
			]
		},
		{
			"mesh":0,
			"name":"SMRDLIVI_BEZEG.036",
			"rotation":[
				0.5705103278160095,
				0.49469053745269775,
				-0.3489282727241516,
				0.5550209879875183
			],
			"scale":[
				0.2306102216243744,
				0.2306102067232132,
				0.2306102067232132
			],
			"translation":[
				0.00536554167047143,
				0,
				-1.0543969869613647
			]
		},
		{
			"mesh":0,
			"name":"SMRDLIVI_BEZEG.037",
			"rotation":[
				0.6274697184562683,
				0.22507087886333466,
				-0.2433178722858429,
				0.7045717835426331
			],
			"scale":[
				0.2494976818561554,
				0.24949763715267181,
				0.2494976669549942
			],
			"translation":[
				0.6189612746238708,
				0,
				-1.3039718866348267
			]
		},
		{
			"mesh":0,
			"name":"SMRDLIVI_BEZEG.038",
			"rotation":[
				0.5201178789138794,
				-0.5278280377388,
				0.4784995913505554,
				0.47107672691345215
			],
			"scale":[
				0.23792511224746704,
				0.237925186753273,
				0.23792517185211182
			],
			"translation":[
				0.27326926589012146,
				0,
				-0.6455322504043579
			]
		},
		{
			"mesh":0,
			"name":"SMRDLIVI_BEZEG.039",
			"rotation":[
				-0.010940504260361195,
				-0.6842347979545593,
				0.7291796803474426,
				0.0002195693668909371
			],
			"scale":[
				0.2419935166835785,
				0.2419935166835785,
				0.2419935017824173
			],
			"translation":[
				1.0448980331420898,
				0,
				-0.012533765286207199
			]
		},
		{
			"mesh":0,
			"name":"SMRDLIVI_BEZEG.040",
			"rotation":[
				0.10902769863605499,
				-0.7360885739326477,
				0.6503750681877136,
				0.1526397317647934
			],
			"scale":[
				0.3032691776752472,
				0.3032691776752472,
				0.3032691776752472
			],
			"translation":[
				1.8202524185180664,
				0,
				-0.22935715317726135
			]
		}
	],
	"materials":[
		{
			"alphaMode":"BLEND",
			"doubleSided":true,
			"name":"smrdljivibezeg_veja.002",
			"pbrMetallicRoughness":{
				"baseColorTexture":{
					"index":0
				},
				"metallicFactor":0
			}
		},
		{
			"alphaMode":"BLEND",
			"doubleSided":true,
			"name":"smrdljivibezeg_LIST.002",
			"pbrMetallicRoughness":{
				"baseColorTexture":{
					"index":1
				},
				"metallicFactor":0
			}
		},
		{
			"alphaMode":"BLEND",
			"doubleSided":true,
			"name":"smrdljivibezeg_cvet.002",
			"pbrMetallicRoughness":{
				"baseColorTexture":{
					"index":2
				},
				"metallicFactor":0,
				"roughnessFactor":0.5
			}
		},
		{
			"alphaMode":"BLEND",
			"doubleSided":true,
			"name":"smrdljivibezeg_veja.003",
			"pbrMetallicRoughness":{
				"baseColorTexture":{
					"index":3
				},
				"metallicFactor":0
			}
		},
		{
			"alphaMode":"BLEND",
			"doubleSided":true,
			"name":"smrdljivibezeg_cvet.003",
			"pbrMetallicRoughness":{
				"baseColorTexture":{
					"index":4
				},
				"metallicFactor":0,
				"roughnessFactor":0.5
			}
		}
	],
	"meshes":[
		{
			"name":"smrdljivibezeg_veja.035",
			"primitives":[
				{
					"attributes":{
						"POSITION":0,
						"NORMAL":1,
						"TEXCOORD_0":2
					},
					"indices":3,
					"material":0
				},
				{
					"attributes":{
						"POSITION":4,
						"NORMAL":5,
						"TEXCOORD_0":6
					},
					"indices":7,
					"material":1
				},
				{
					"attributes":{
						"POSITION":8,
						"NORMAL":9,
						"TEXCOORD_0":10
					},
					"indices":11,
					"material":2
				},
				{
					"attributes":{
						"POSITION":12,
						"NORMAL":13,
						"TEXCOORD_0":14
					},
					"indices":15,
					"material":3
				},
				{
					"attributes":{
						"POSITION":16,
						"NORMAL":17,
						"TEXCOORD_0":18
					},
					"indices":19,
					"material":4
				}
			]
		}
	],
	"textures":[
		{
			"sampler":0,
			"source":0
		},
		{
			"sampler":0,
			"source":1
		},
		{
			"sampler":0,
			"source":2
		},
		{
			"sampler":0,
			"source":0
		},
		{
			"sampler":0,
			"source":2
		}
	],
	"images":[
		{
			"mimeType":"image/png",
			"name":"smrdljivibezeg_veja_rumenkast.png",
			"uri":"smrdljivibezeg_veja_rumenkast_png.png"
		},
		{
			"mimeType":"image/png",
			"name":"smrdljivibezeg_LIST",
			"uri":"smrdljivibezeg_LIST.png"
		},
		{
			"mimeType":"image/png",
			"name":"smrdljivibezeg_cvet",
			"uri":"smrdljivibezeg_cvet.png"
		}
	],
	"accessors":[
		{
			"bufferView":0,
			"componentType":5126,
			"count":204,
			"max":[
				2.5103683471679688,
				2.9204699993133545,
				-1.3943134546279907
			],
			"min":[
				-3.31234073638916,
				-2.7704155445098877,
				-7.401605129241943
			],
			"type":"VEC3"
		},
		{
			"bufferView":1,
			"componentType":5126,
			"count":204,
			"type":"VEC3"
		},
		{
			"bufferView":2,
			"componentType":5126,
			"count":204,
			"type":"VEC2"
		},
		{
			"bufferView":3,
			"componentType":5123,
			"count":504,
			"type":"SCALAR"
		},
		{
			"bufferView":4,
			"componentType":5126,
			"count":921,
			"max":[
				0.45688533782958984,
				0.36716341972351074,
				-0.019887611269950867
			],
			"min":[
				-0.5011320114135742,
				-0.39887547492980957,
				-7.856077671051025
			],
			"type":"VEC3"
		},
		{
			"bufferView":5,
			"componentType":5126,
			"count":921,
			"type":"VEC3"
		},
		{
			"bufferView":6,
			"componentType":5126,
			"count":921,
			"type":"VEC2"
		},
		{
			"bufferView":7,
			"componentType":5123,
			"count":1392,
			"type":"SCALAR"
		},
		{
			"bufferView":8,
			"componentType":5126,
			"count":5372,
			"max":[
				0.5463838577270508,
				0.41585612297058105,
				-7.591180801391602
			],
			"min":[
				-0.4023141860961914,
				-0.5393707752227783,
				-8.009414672851562
			],
			"type":"VEC3"
		},
		{
			"bufferView":9,
			"componentType":5126,
			"count":5372,
			"type":"VEC3"
		},
		{
			"bufferView":10,
			"componentType":5126,
			"count":5372,
			"type":"VEC2"
		},
		{
			"bufferView":11,
			"componentType":5123,
			"count":8058,
			"type":"SCALAR"
		},
		{
			"bufferView":12,
			"componentType":5126,
			"count":144,
			"max":[
				-0.0026197433471679688,
				0.3457210063934326,
				-7.258935451507568
			],
			"min":[
				-0.040894508361816406,
				-0.2499229907989502,
				-7.501384258270264
			],
			"type":"VEC3"
		},
		{
			"bufferView":13,
			"componentType":5126,
			"count":144,
			"type":"VEC3"
		},
		{
			"bufferView":14,
			"componentType":5126,
			"count":144,
			"type":"VEC2"
		},
		{
			"bufferView":15,
			"componentType":5123,
			"count":216,
			"type":"SCALAR"
		},
		{
			"bufferView":16,
			"componentType":5126,
			"count":1076,
			"max":[
				0.16367149353027344,
				0.5361487865447998,
				-7.405197620391846
			],
			"min":[
				-0.2836275100708008,
				-0.41903233528137207,
				-7.5985188484191895
			],
			"type":"VEC3"
		},
		{
			"bufferView":17,
			"componentType":5126,
			"count":1076,
			"type":"VEC3"
		},
		{
			"bufferView":18,
			"componentType":5126,
			"count":1076,
			"type":"VEC2"
		},
		{
			"bufferView":19,
			"componentType":5123,
			"count":1614,
			"type":"SCALAR"
		}
	],
	"bufferViews":[
		{
			"buffer":0,
			"byteLength":2448,
			"byteOffset":0,
			"target":34962
		},
		{
			"buffer":0,
			"byteLength":2448,
			"byteOffset":2448,
			"target":34962
		},
		{
			"buffer":0,
			"byteLength":1632,
			"byteOffset":4896,
			"target":34962
		},
		{
			"buffer":0,
			"byteLength":1008,
			"byteOffset":6528,
			"target":34963
		},
		{
			"buffer":0,
			"byteLength":11052,
			"byteOffset":7536,
			"target":34962
		},
		{
			"buffer":0,
			"byteLength":11052,
			"byteOffset":18588,
			"target":34962
		},
		{
			"buffer":0,
			"byteLength":7368,
			"byteOffset":29640,
			"target":34962
		},
		{
			"buffer":0,
			"byteLength":2784,
			"byteOffset":37008,
			"target":34963
		},
		{
			"buffer":0,
			"byteLength":64464,
			"byteOffset":39792,
			"target":34962
		},
		{
			"buffer":0,
			"byteLength":64464,
			"byteOffset":104256,
			"target":34962
		},
		{
			"buffer":0,
			"byteLength":42976,
			"byteOffset":168720,
			"target":34962
		},
		{
			"buffer":0,
			"byteLength":16116,
			"byteOffset":211696,
			"target":34963
		},
		{
			"buffer":0,
			"byteLength":1728,
			"byteOffset":227812,
			"target":34962
		},
		{
			"buffer":0,
			"byteLength":1728,
			"byteOffset":229540,
			"target":34962
		},
		{
			"buffer":0,
			"byteLength":1152,
			"byteOffset":231268,
			"target":34962
		},
		{
			"buffer":0,
			"byteLength":432,
			"byteOffset":232420,
			"target":34963
		},
		{
			"buffer":0,
			"byteLength":12912,
			"byteOffset":232852,
			"target":34962
		},
		{
			"buffer":0,
			"byteLength":12912,
			"byteOffset":245764,
			"target":34962
		},
		{
			"buffer":0,
			"byteLength":8608,
			"byteOffset":258676,
			"target":34962
		},
		{
			"buffer":0,
			"byteLength":3228,
			"byteOffset":267284,
			"target":34963
		}
	],
	"samplers":[
		{
			"magFilter":9729,
			"minFilter":9987,
			"wrapS":33071,
			"wrapT":33071
		}
	],
	"buffers":[
		{
			"byteLength":270512,
			"uri":"smrdljivibezeg_trop2.bin"
		}
	]
}
